<?xml version="1.0" encoding="utf-8"?>
<!-- Generator: Adobe Illustrator 16.0.0, SVG Export Plug-In . SVG Version: 6.00 Build 0)  -->
<!DOCTYPE svg PUBLIC "-//W3C//DTD SVG 1.1//EN" "http://www.w3.org/Graphics/SVG/1.1/DTD/svg11.dtd">
<svg version="1.1" id="Capa_1" xmlns="http://www.w3.org/2000/svg" xmlns:xlink="http://www.w3.org/1999/xlink" x="0px" y="0px"
	 width="600px" height="600px" viewBox="0 0 600 600" enable-background="new 0 0 600 600" xml:space="preserve">
<linearGradient id="SVGID_1_" gradientUnits="userSpaceOnUse" x1="143.3916" y1="218.7598" x2="599.6426" y2="218.7598">
	<stop  offset="0.3475" style="stop-color:#36078B"/>
	<stop  offset="1" style="stop-color:#16B1FF"/>
</linearGradient>
<polygon fill="url(#SVGID_1_)" points="599.643,55.812 599.643,381.707 143.392,381.707 143.392,84.744 "/>
<polygon opacity="0.4" fill="#46CCCC" points="262.358,271.035 359.451,268.795 359.451,135.368 262.358,140.25 "/>
<g>
	<polygon opacity="0.6" fill="#7BCAFF" points="276.237,223.169 163.051,226.897 163.051,106.111 276.237,99.477 	"/>
	<path fill="#3A7BD8" d="M254.711,162.639c0,21.313-16.067,39.204-35.739,39.942c-19.51,0.735-35.212-15.702-35.212-36.704
		s15.702-38.87,35.212-39.919C238.644,124.902,254.711,141.319,254.711,162.639z"/>
	<path fill="#EFF4F4" d="M246.001,163.027c0,9.667-4.349,18.39-11.051,23.973c-1.988,1.67-4.199,3.047-6.537,4.091
		c-1.053,0.468-2.141,0.865-3.245,1.19c-0.668,0.197-1.336,0.366-2.02,0.509c-1.361,0.292-2.752,0.458-4.177,0.515
		c-2.774,0.111-5.449-0.248-7.969-0.979c-10.893-3.226-18.759-13.882-18.759-26.839c0-4.512,0.957-8.815,2.656-12.693
		c2.07-4.77,5.277-8.897,9.241-11.941c0.922-0.724,1.898-1.379,2.9-1.98c2.173-1.282,4.521-2.263,6.989-2.885
		c1.606-0.407,3.254-0.663,4.94-0.749c11.438-0.593,21.266,6.62,25.178,17.321C245.353,155.768,246.001,159.305,246.001,163.027z"/>
	<path fill="#A9C3EA" d="M218.972,167.567c-1.82,0-3.296-1.476-3.296-3.296v-18.59c0-1.819,1.476-3.295,3.296-3.295
		c1.819,0,3.295,1.476,3.295,3.295v18.59C222.267,166.091,220.791,167.567,218.972,167.567z"/>
	<path fill="#A9C3EA" d="M218.975,167.567c-1.021,0-2.029-0.474-2.676-1.365c-1.065-1.476-0.734-3.534,0.741-4.602l8.955-6.477
		c1.47-1.067,3.534-0.74,4.604,0.739c1.065,1.475,0.734,3.534-0.741,4.602l-8.955,6.475
		C220.32,167.363,219.643,167.567,218.975,167.567z"/>
</g>
<polygon opacity="0.5" fill="#7BCAFF" points="585.64,360.869 132.872,362.711 132.872,69.408 585.64,39.146 "/>
<g>
	<g>
		<linearGradient id="SVGID_2_" gradientUnits="userSpaceOnUse" x1="256.5215" y1="166.9297" x2="271.9351" y2="181.948">
			<stop  offset="0" style="stop-color:#FEA600"/>
			<stop  offset="1" style="stop-color:#EF1829"/>
		</linearGradient>
		<path fill="url(#SVGID_2_)" d="M314.958,215.102c-11.602,5.293-25.255,3.232-34.547-6.343c-4.476-4.613-7.329-10.333-8.566-16.421
			l15.476-4.231c1.571,7.616,8.004,13.119,15.708,12.833c2.115-0.08,4.136-0.582,5.98-1.438L314.958,215.102z"/>
		<path fill="#EDF4FC" d="M325.859,207.13c-0.255,0.273-0.519,0.541-0.783,0.805l-11.003-12.034
			c3.152-3.251,5.128-7.784,5.128-12.741c0-9.479-7.253-16.84-16.173-16.443c-6.333,0.28-11.805,4.399-14.42,10.154L274.383,170
			c1.488-3.308,3.502-6.448,6.028-9.257c12.46-13.855,32.819-14.844,45.448-2.083C338.564,171.499,338.555,193.264,325.859,207.13z"
			/>
		<path fill="#BAF4D5" d="M286.951,184.48c0,1.253,0.131,2.472,0.369,3.626l-15.476,4.231c-1.527-7.352-0.69-15.256,2.538-22.338
			l14.226,6.872C287.55,179.187,286.951,181.77,286.951,184.48z"/>
		<path fill="#D1D9FE" d="M325.076,207.935c-3.021,3.114-6.467,5.513-10.118,7.167l-5.949-15.6c1.89-0.859,3.598-2.093,5.064-3.601
			L325.076,207.935z"/>
	</g>
	<polygon fill="#A6EDC8" points="332.501,223.624 332.501,220.28 326.171,220.49 326.171,223.831 	"/>
	<polygon fill="#A6EDC8" points="343.746,223.258 343.746,219.908 337.388,220.118 337.388,223.465 	"/>
	<polygon fill="#A6EDC8" points="355.046,222.892 355.046,219.536 348.655,219.746 348.655,223.099 	"/>
	<g>
		<path fill="#EDF4FC" d="M350.643,160.909c-2.073-0.774-4.523-0.216-6.196,1.622c-0.808,0.885-1.326,1.947-1.549,3.051l2.793,0.519
			c0.283-1.374,1.44-2.449,2.821-2.51c0.379-0.016,0.738,0.042,1.068,0.168L350.643,160.909z"/>
		<path fill="#FFC550" d="M352.583,162.162c-0.044-0.044-0.092-0.089-0.14-0.13l-1.959,2.287c0.563,0.531,0.916,1.304,0.916,2.182
			c0,1.673-1.295,3.092-2.889,3.159c-1.136,0.048-2.118-0.595-2.59-1.581l-2.566,1.444c0.271,0.569,0.633,1.094,1.091,1.556
			c2.242,2.265,5.888,2.109,8.137-0.35C354.836,168.263,354.832,164.427,352.583,162.162z"/>
		<path fill="#FFC550" d="M345.623,166.752c0-0.223,0.025-0.442,0.067-0.652l-2.793-0.519c-0.277,1.333-0.124,2.733,0.458,3.941
			l2.566-1.444C345.731,167.685,345.623,167.236,345.623,166.752z"/>
		<path fill="#BAF4D5" d="M352.443,162.032c-0.537-0.507-1.151-0.881-1.801-1.123l-1.063,2.85c0.338,0.121,0.643,0.318,0.904,0.56
			L352.443,162.032z"/>
	</g>
	<g>
		<path fill="#BAF4D5" d="M343.231,205.826c0.878,2.122,2.91,3.557,5.28,3.471c1.146-0.042,2.211-0.43,3.107-1.069l-1.549-2.481
			c-1.12,0.795-2.624,0.709-3.601-0.28c-0.268-0.271-0.471-0.589-0.611-0.926L343.231,205.826z"/>
		<path fill="#D1D9FE" d="M342.764,203.459c0,0.063,0.003,0.13,0.006,0.197l2.856-0.204c-0.025-0.808,0.258-1.635,0.847-2.278
			c1.126-1.228,2.952-1.294,4.081-0.153c0.802,0.818,1.034,2.03,0.693,3.099l2.717,0.872c0.2-0.617,0.309-1.279,0.309-1.957
			c0-3.343-2.583-5.958-5.761-5.84C345.334,197.316,342.764,200.122,342.764,203.459z"/>
		<path fill="#EDF4FC" d="M350.554,205.32c-0.149,0.162-0.312,0.305-0.483,0.426l1.549,2.481c1.089-0.767,1.925-1.906,2.345-3.235
			l-2.717-0.872C351.11,204.556,350.879,204.967,350.554,205.32z"/>
		<path fill="#FFC550" d="M342.77,203.656c0.02,0.773,0.185,1.508,0.462,2.169l2.627-1.285c-0.143-0.344-0.219-0.713-0.232-1.088
			L342.77,203.656z"/>
	</g>
	<g>
		<path fill="#D1D9FE" d="M350.786,190.404c2.052-1.005,3.486-3.204,3.486-5.701c0-1.203-0.334-2.313-0.916-3.232l-2.414,1.724
			c0.719,1.152,0.588,2.739-0.389,3.805c-0.267,0.292-0.575,0.521-0.903,0.681L350.786,190.404z"/>
		<path fill="#BAF4D5" d="M348.512,190.986c0.063-0.003,0.127-0.01,0.19-0.013l-0.095-3.006c-0.771,0.058-1.55-0.21-2.138-0.805
			c-1.126-1.142-1.126-3.06,0-4.291c0.802-0.875,1.963-1.167,2.968-0.846l0.923-2.895c-0.579-0.185-1.203-0.273-1.852-0.245
			c-3.172,0.131-5.745,2.946-5.745,6.283S345.337,191.11,348.512,190.986z"/>
		<path fill="#FFC550" d="M350.554,182.706c0.149,0.152,0.28,0.318,0.389,0.49l2.414-1.724c-0.693-1.113-1.75-1.953-2.996-2.341
			l-0.923,2.895C349.845,182.152,350.229,182.375,350.554,182.706z"/>
		<path fill="#EDF4FC" d="M348.702,190.973c0.735-0.054,1.441-0.251,2.084-0.569l-1.136-2.723c-0.331,0.166-0.687,0.258-1.043,0.286
			L348.702,190.973z"/>
	</g>
</g>
<g>
	<polygon fill="#D3D3D3" points="599.637,55.82 143.386,84.75 143.386,41.912 599.637,8.808 	"/>
	<polygon fill="#F2F2F2" points="590.398,46.569 151.084,75.269 151.084,61.112 590.398,31.085 	"/>
	<polygon fill="#F9F4EA" points="157.809,55.875 151.084,56.341 151.084,48.984 157.809,48.506 	"/>
	<polygon fill="#F9F4EA" points="169.811,55.043 163.051,55.511 163.051,48.136 169.811,47.656 	"/>
	<polygon fill="#F9F4EA" points="181.877,54.206 175.082,54.678 175.082,47.282 181.877,46.8 	"/>
</g>
<g>
	<polygon opacity="0.5" fill="#7BCAFF" points="345.64,335.324 569.044,333.205 569.044,74.7 345.64,88.124 	"/>
	<path fill="#BBCEFF" d="M375.376,143.842c-1.508,0-2.927-0.566-4.024-1.611c-1.225-1.166-1.898-2.774-1.898-4.528v-33.839
		c0-3.461,2.72-6.434,6.06-6.626l199.279-11.473c1.733-0.092,3.423,0.496,4.676,1.681c1.26,1.188,1.954,2.818,1.954,4.592v35.28
		c0,3.582-2.901,6.637-6.471,6.813l-199.279,9.704C375.573,143.839,375.475,143.842,375.376,143.842z M575.171,88.739
		c-0.07,0-0.137,0.001-0.207,0.006l-199.279,11.473c-1.791,0.102-3.248,1.738-3.248,3.646v33.839c0,0.929,0.347,1.771,0.974,2.368
		c0.569,0.544,1.368,0.819,2.115,0.783l199.279-9.704c2.004-0.099,3.633-1.816,3.633-3.832v-35.28c0-0.943-0.362-1.804-1.018-2.422
		C576.818,89.046,576.026,88.739,575.171,88.739z"/>
	<path fill="#BBCEFF" d="M375.43,201.353c-1.533,0-2.974-0.579-4.084-1.648c-1.222-1.177-1.893-2.79-1.893-4.542v-33.839
		c0-3.471,2.726-6.418,6.079-6.57l199.279-9.141c1.736-0.099,3.406,0.533,4.663,1.728c1.257,1.199,1.947,2.836,1.947,4.606v35.28
		c0,3.592-2.911,6.62-6.49,6.753l-199.279,7.371C375.579,201.353,375.503,201.353,375.43,201.353z M575.113,148.59
		c-0.054,0-0.111,0-0.165,0.003l-199.283,9.141c-1.777,0.081-3.229,1.692-3.229,3.59v33.839c0,0.935,0.347,1.781,0.979,2.392
		c0.573,0.554,1.272,0.795,2.129,0.814l199.279-7.374c1.991-0.073,3.613-1.763,3.613-3.77v-35.28c0-0.948-0.362-1.818-1.024-2.448
		C576.796,148.908,575.985,148.59,575.113,148.59z"/>
	<path fill="#BBCEFF" d="M375.48,258.87c-1.552,0-3.016-0.598-4.138-1.692c-1.219-1.187-1.89-2.802-1.89-4.552v-33.841
		c0-3.48,2.735-6.403,6.095-6.518l199.279-6.811c1.756-0.009,3.407,0.573,4.653,1.778c1.251,1.212,1.941,2.85,1.941,4.616v35.281
		c0,3.601-2.918,6.604-6.506,6.693l-199.279,5.042C375.583,258.867,375.532,258.87,375.48,258.87z M575.053,208.44
		c-0.041,0-0.083,0-0.124,0l-199.279,6.811c-1.771,0.061-3.213,1.645-3.213,3.534v33.841c0,0.938,0.35,1.794,0.989,2.414
		c0.582,0.57,1.419,0.84,2.135,0.843l199.279-5.039c1.985-0.051,3.598-1.718,3.598-3.712v-35.281c0-0.948-0.366-1.826-1.03-2.468
		C576.773,208.771,575.943,208.44,575.053,208.44z"/>
	<path fill="#BBCEFF" d="M375.535,316.385c-1.575,0-3.063-0.615-4.199-1.734c-1.215-1.199-1.883-2.818-1.883-4.564v-33.837
		c0-3.49,2.742-6.388,6.113-6.464l199.276-4.479c1.76,0.029,3.397,0.607,4.642,1.823c1.25,1.222,1.938,2.866,1.938,4.632v35.278
		c0,3.61-2.927,6.589-6.524,6.636l-199.279,2.711C375.593,316.385,375.563,316.385,375.535,316.385z M375.579,313.4l0.02,1.492
		L375.579,313.4l199.279-2.711c1.973-0.025,3.579-1.663,3.579-3.651V271.76c0-0.955-0.369-1.842-1.04-2.498
		c-0.662-0.649-1.674-0.977-2.484-0.973l-199.279,4.479c-1.763,0.038-3.197,1.6-3.197,3.48v33.837c0,0.941,0.354,1.807,0.996,2.439
		C374.015,313.102,374.629,313.406,375.579,313.4z"/>
	<polygon opacity="0.5" fill="#7BCAFF" points="471.051,230.088 557.22,227.482 557.22,220.573 471.051,223.296 	"/>
	<polygon opacity="0.5" fill="#7BCAFF" points="498.885,241.387 557.22,239.761 557.22,232.852 498.885,234.557 	"/>
	<polygon opacity="0.5" fill="#7BCAFF" points="477.884,241.972 492.198,241.575 492.198,234.754 477.884,235.171 	"/>
	<polygon opacity="0.5" fill="#7BCAFF" points="471.051,114.232 557.22,109.633 557.22,102.725 471.051,107.442 	"/>
	<polygon opacity="0.5" fill="#7BCAFF" points="505.588,124.545 557.22,121.915 557.22,115.005 505.588,117.708 	"/>
	<polygon opacity="0.5" fill="#7BCAFF" points="445.487,127.609 498.885,124.888 498.885,118.06 445.487,120.853 	"/>
	<polygon opacity="0.5" fill="#7BCAFF" points="522.457,287.767 557.22,287.122 557.22,280.215 522.457,280.906 	"/>
	<polygon opacity="0.5" fill="#7BCAFF" points="481.838,288.521 516.047,287.885 516.047,281.033 481.838,281.713 	"/>
	<polygon opacity="0.5" fill="#7BCAFF" points="498.885,300.345 557.22,299.404 557.22,292.495 498.885,293.516 	"/>
	<polygon opacity="0.5" fill="#7BCAFF" points="436.163,301.357 492.198,300.454 492.198,293.633 436.163,294.613 	"/>
</g>
<path fill="#F6F3FF" d="M385.657,191.107l200.112-7.746c2.8-0.108,5.071-2.472,5.071-5.281v-35.354c0-2.809-2.271-4.979-5.071-4.845
	l-200.112,9.52c-2.583,0.122-4.676,2.406-4.676,5.101v33.907C380.981,189.103,383.074,191.206,385.657,191.107z"/>
<g opacity="0.6">
	<polygon fill="#7BCAFF" points="493.84,154.858 579.93,150.977 579.93,145.819 493.84,149.786 	"/>
	<polygon fill="#7BCAFF" points="493.84,163.874 579.93,160.148 579.93,154.99 493.84,158.803 	"/>
	<polygon fill="#7BCAFF" points="541.396,170.917 579.93,169.319 579.93,164.16 541.396,165.798 	"/>
</g>
<linearGradient id="SVGID_3_" gradientUnits="userSpaceOnUse" x1="389.3691" y1="109.417" x2="433.8246" y2="166.0977">
	<stop  offset="0" style="stop-color:#FEA600"/>
	<stop  offset="1" style="stop-color:#EF1829"/>
</linearGradient>
<polygon fill="url(#SVGID_3_)" points="421.123,176.165 443.451,175.239 443.451,152.108 421.123,153.137 "/>
<polygon opacity="0.6" fill="#7BCAFF" points="395.385,177.231 417.48,176.318 417.48,153.304 395.385,154.322 "/>
<g>
	<linearGradient id="SVGID_4_" gradientUnits="userSpaceOnUse" x1="402.0605" y1="133.5142" x2="386.8592" y2="176.9468">
		<stop  offset="0" style="stop-color:#FEA600"/>
		<stop  offset="1" style="stop-color:#EF1829"/>
	</linearGradient>
	<path fill="url(#SVGID_4_)" d="M180.216,280.718l315.832,86.108c4.243,1.156,8.62-1.346,9.778-5.592l14.566-53.424
		c1.157-4.242-1.346-8.62-5.59-9.778l-315.831-86.106c-4.243-1.158-8.624,1.343-9.778,5.586l-14.566,53.423
		C173.469,275.183,175.973,279.56,180.216,280.718z"/>
	<g opacity="0.6">
		<linearGradient id="SVGID_5_" gradientUnits="userSpaceOnUse" x1="317.7129" y1="316.7422" x2="-28.3897" y2="386.7769">
			<stop  offset="0" style="stop-color:#FEA600"/>
			<stop  offset="1" style="stop-color:#EF1829"/>
		</linearGradient>
		<polygon fill="url(#SVGID_5_)" points="367.541,278.739 500.644,315.025 502.772,307.217 369.672,270.927 		"/>
		<linearGradient id="SVGID_6_" gradientUnits="userSpaceOnUse" x1="320.2646" y1="329.3447" x2="-25.8366" y2="399.3792">
			<stop  offset="0" style="stop-color:#FEA600"/>
			<stop  offset="1" style="stop-color:#EF1829"/>
		</linearGradient>
		<polygon fill="url(#SVGID_6_)" points="363.756,292.625 496.855,328.914 498.986,321.102 365.884,284.812 		"/>
		<linearGradient id="SVGID_7_" gradientUnits="userSpaceOnUse" x1="493.1934" y1="325.0684" x2="436.0613" y2="336.6292">
			<stop  offset="0" style="stop-color:#FEA600"/>
			<stop  offset="1" style="stop-color:#EF1829"/>
		</linearGradient>
		<polygon fill="url(#SVGID_7_)" points="434.055,326.711 493.07,342.801 495.201,334.988 436.183,318.896 		"/>
	</g>
	<linearGradient id="SVGID_8_" gradientUnits="userSpaceOnUse" x1="305.1055" y1="254.4258" x2="-41.0102" y2="324.4632">
		<stop  offset="0" style="stop-color:#FEA600"/>
		<stop  offset="1" style="stop-color:#EF1829"/>
	</linearGradient>
	<polygon opacity="0.6" fill="url(#SVGID_8_)" points="243.828,275.282 279.816,285.092 289.63,249.104 253.643,239.291 	"/>
	<linearGradient id="SVGID_9_" gradientUnits="userSpaceOnUse" x1="301.2383" y1="235.3125" x2="-44.8707" y2="305.3485">
		<stop  offset="0" style="stop-color:#FEA600"/>
		<stop  offset="1" style="stop-color:#EF1829"/>
	</linearGradient>
	<polygon opacity="0.6" fill="url(#SVGID_9_)" points="201.943,263.861 237.931,273.672 247.744,237.684 211.757,227.871 	"/>
</g>
<ellipse opacity="0.1" cx="483.788" cy="585.523" rx="56.14" ry="3.775"/>
<g>
	<g>
		
			<linearGradient id="SVGID_10_" gradientUnits="userSpaceOnUse" x1="477.1123" y1="136.8838" x2="520.1423" y2="213.8848" gradientTransform="matrix(0.9879 0.1552 -0.1552 0.9879 45.5237 126.2788)">
			<stop  offset="0" style="stop-color:#36078B"/>
			<stop  offset="1" style="stop-color:#16B1FF"/>
		</linearGradient>
		<path fill="url(#SVGID_10_)" d="M490.5,384.492c3.658,1.863,7.087,1.199,16.726,0.623c13.883-0.83,17.127-1.918,25.407-5.455
			c5.408-2.311-1.256-13.813-9.123-12.74c-6.648,0.902-28.375,12.014-32.425,12.549C488.403,379.822,487.528,382.977,490.5,384.492z
			"/>
		
			<linearGradient id="SVGID_11_" gradientUnits="userSpaceOnUse" x1="500.3691" y1="123.8867" x2="543.399" y2="200.8874" gradientTransform="matrix(0.9879 0.1552 -0.1552 0.9879 45.5237 126.2788)">
			<stop  offset="0" style="stop-color:#36078B"/>
			<stop  offset="1" style="stop-color:#16B1FF"/>
		</linearGradient>
		<path fill="url(#SVGID_11_)" d="M534.376,377.844c1.413-2.883,3.572-9.785,4.32-27.33c0.458-10.701-0.111-15.311-0.423-18.6
			c-0.557-5.865-6.168-8.219-8.93-6.826c-4.45,2.248-8.961,8.303-8.859,11.395c0.592,17.449,2.115,30.832,1.511,35.078
			C521.114,377.768,532.696,381.26,534.376,377.844z"/>
		<path fill="#4E11F4" d="M522.205,573.559c-0.61,2.262-0.378,3.07-0.62,4.547c-0.299,1.828-2.042,2.494-3.054,3.996
			c-1.113,1.656-2.859,4.053,3.967,4.186c7.307,0.141,11.637-0.09,10.396-4.068c-1.24-3.982-1.479-5.736-1.396-7.033
			c0.083-1.299-0.003-2.65-0.83-3.43C529.84,570.98,523.28,569.58,522.205,573.559z"/>
		<path fill="#4E11F4" d="M447.564,576.881c-0.572,1.072-3.312,3.553-7.106,5.188c-3.792,1.633-11.837,2.398-7.367,3.836
			c4.466,1.439,9.677,0.566,12.313,0.16c2.638-0.41,5.198-0.465,8.31-0.484c4.1-0.025,4.132-0.27,3.581-4.73
			C456.535,574.711,449.413,573.414,447.564,576.881z"/>
		<path fill="#FFAF84" d="M530.781,299.741c-2.105,8.068-2.634,9.842-6.74,12.636c-4.106,2.795-9.778,2.404-13.663,1.793
			c-4.195-0.658-6.168-6.154-6.568-9.771c-0.417-3.745-0.372-10.651,2.214-19.44c1.311-4.454,7.794-9.092,13.586-8.182
			C525.399,277.687,535.929,280.028,530.781,299.741z"/>
		
			<linearGradient id="SVGID_12_" gradientUnits="userSpaceOnUse" x1="470.4541" y1="98.6079" x2="470.4541" y2="182.4218" gradientTransform="matrix(0.9879 0.1552 -0.1552 0.9879 45.5237 126.2788)">
			<stop  offset="0" style="stop-color:#36078B"/>
			<stop  offset="1" style="stop-color:#16B1FF"/>
		</linearGradient>
		<path fill="url(#SVGID_12_)" d="M477.909,363.846c2.745-1.666,8.276-6.326,18.342-20.711c6.143-8.777,8.144-12.967,9.648-15.91
			c2.685-5.244-0.776-10.248-3.855-10.557c-4.963-0.496-12.021,2.178-13.597,4.842c-8.888,15.027-14.801,27.127-17.594,30.385
			C466.771,356.65,474.658,365.824,477.909,363.846z"/>
		<path fill="#FFAF84" d="M524.34,313.521c-0.226,2.875-0.528,6.178-0.903,9.178c-0.493,3.932-4.119,7.115-8.073,6.867
			c-0.179-0.012-0.313-0.027-0.455-0.051c-3.537-0.557-7.199-4.416-6.33-7.91c0.565-2.271,1.005-4.584,1.339-6.617
			c0.633-3.891,3.623-6.961,7.498-7.68l0,0C521.207,306.603,524.639,309.676,524.34,313.521z"/>
		
			<linearGradient id="SVGID_13_" gradientUnits="userSpaceOnUse" x1="490.7754" y1="98.606" x2="490.7754" y2="182.4241" gradientTransform="matrix(0.9879 0.1552 -0.1552 0.9879 45.5237 126.2788)">
			<stop  offset="0" style="stop-color:#36078B"/>
			<stop  offset="1" style="stop-color:#16B1FF"/>
		</linearGradient>
		<path fill="url(#SVGID_13_)" d="M535.232,351.131c-9.977,20.592-15.677,42.813-16.765,58.119l-49.533-7.781
			c0,0,7.581-46.348,14.888-71.234c1.702-5.789,5.937-10.576,12.743-12.928c4.04-1.393,10.924-1.279,13.663-0.85l9.155,1.438
			c3.066,0.484,6.643,1.344,9.477,2.725C541.718,326.879,541.016,339.199,535.232,351.131z"/>
		
			<linearGradient id="SVGID_14_" gradientUnits="userSpaceOnUse" x1="477.4727" y1="172.4224" x2="509.1777" y2="373.975" gradientTransform="matrix(0.9879 0.1552 -0.1552 0.9879 45.5237 126.2788)">
			<stop  offset="0" style="stop-color:#0000FF"/>
			<stop  offset="1" style="stop-color:#9E005D"/>
		</linearGradient>
		<path fill="url(#SVGID_14_)" d="M513.505,439.521c0,0,5.914-9.723,4.963-30.271l-49.533-7.781c0,0-3.998,13.928-6.565,30.02
			L513.505,439.521z"/>
		<g>
			<g>
				
					<linearGradient id="SVGID_15_" gradientUnits="userSpaceOnUse" x1="457.7373" y1="586.1162" x2="488.2104" y2="779.8369" gradientTransform="matrix(0.9861 -0.166 0.166 0.9861 -83.7114 -117.501)">
					<stop  offset="0" style="stop-color:#0000FF"/>
					<stop  offset="1" style="stop-color:#9E005D"/>
				</linearGradient>
				<path fill="url(#SVGID_15_)" d="M495.771,508.598c-6.667-15.432,9.299-21.033,16.449-10.258
					c10.113,15.234,18.403,64.148,19.78,74.723c0.178,1.387,0.703,3.041,0.086,3.633c-1.154,1.113-3.922,1.566-5.087,1.721
					c-1.854,0.256-3.661,0.564-4.228-1.678C518.938,561.611,502.231,523.547,495.771,508.598z"/>
				
					<linearGradient id="SVGID_16_" gradientUnits="userSpaceOnUse" x1="489.8311" y1="170.4785" x2="521.5365" y2="372.0338" gradientTransform="matrix(0.9879 0.1552 -0.1552 0.9879 45.5237 126.2788)">
					<stop  offset="0" style="stop-color:#0000FF"/>
					<stop  offset="1" style="stop-color:#9E005D"/>
				</linearGradient>
				<path fill="url(#SVGID_16_)" d="M488.578,437.836c1.406-20.309,11.786-34.617,23.174-26.055
					c4.794,3.607,5.835,9.477,5.714,14.83c-0.118,5.357-4.835,60.471-5.036,70.531c-0.445,22.682-17.041,13.943-17.976,7.488
					C492.094,488.344,487.812,448.902,488.578,437.836z"/>
			</g>
		</g>
		
			<linearGradient id="SVGID_17_" gradientUnits="userSpaceOnUse" x1="445.5869" y1="279.5342" x2="477.2913" y2="481.0825" gradientTransform="matrix(0.9973 0.0741 -0.0741 0.9973 20.7422 59.5883)">
			<stop  offset="0" style="stop-color:#0000FF"/>
			<stop  offset="1" style="stop-color:#9E005D"/>
		</linearGradient>
		<path fill="url(#SVGID_17_)" d="M456.442,578.939c2.399-23.779,15.601-64.746,11.204-84.615
			c-2.796-12.625-17.55-14.047-18.021,1.182c-0.503,16.273,2.045,48.068-1.947,79.287
			C447.288,577.863,456.125,581.715,456.442,578.939z"/>
		
			<linearGradient id="SVGID_18_" gradientUnits="userSpaceOnUse" x1="457.7617" y1="175.521" x2="489.4677" y2="377.0796" gradientTransform="matrix(0.9879 0.1552 -0.1552 0.9879 45.5237 126.2788)">
			<stop  offset="0" style="stop-color:#0000FF"/>
			<stop  offset="1" style="stop-color:#9E005D"/>
		</linearGradient>
		<path fill="url(#SVGID_18_)" d="M466.444,499.164c-2.911,5.834-20.782,10.307-15.521-11.762
			c2.332-9.791,12.998-64.188,14.226-69.4c1.231-5.215,3.353-12.779,6.152-13.326c13.984-2.73,24.342,15.021,17.754,34.283
			C484.646,451.832,472.479,487.068,466.444,499.164z"/>
		
			<ellipse transform="matrix(0.9732 -0.2299 0.2299 0.9732 -54.3011 123.7689)" fill="#FFAF84" cx="503.922" cy="294.882" rx="2.94" ry="5.611"/>
		
			<ellipse transform="matrix(-0.8559 -0.5172 0.5172 -0.8559 830.1189 829.5014)" fill="#FFAF84" cx="530.645" cy="299.079" rx="2.94" ry="5.614"/>
		
			<linearGradient id="SVGID_19_" gradientUnits="userSpaceOnUse" x1="-61.7305" y1="-745.9712" x2="-61.7305" y2="-662.1484" gradientTransform="matrix(0.57 0.8216 -0.8216 0.57 -57.0815 787.1101)">
			<stop  offset="0" style="stop-color:#36078B"/>
			<stop  offset="1" style="stop-color:#16B1FF"/>
		</linearGradient>
		<path fill="url(#SVGID_19_)" d="M436.548,350.35c2.542,3.225,4.601,5.102,13.819,7.98c12.457,3.887,19.655,5.273,25.999,5.779
			c5.862,0.471,5.108-13.57-2.481-15.893c-6.416-1.963-30.8-0.973-34.702-2.186C436.6,345.23,434.483,347.729,436.548,350.35z"/>
		<path fill="#FFAF84" d="M439.978,345.893c-2.37-1.232-22.91-8.301-23.085-3.742c-0.197,5.043,8.08,8.164,10.856,8.959
			c5.376,1.543,9.83,2.602,12.041,0.273C441.354,349.732,442.232,347.063,439.978,345.893z"/>
		<path fill="#FFAF84" d="M438.737,344.744c-0.938-0.795-6.519-5.488-7.473-4.504c-1.454,1.498,2.045,4.754,4.354,6.918
			c1.25,1.174,3.722,1.914,4.549,0.785S440.235,346.016,438.737,344.744z"/>
	</g>
	
		<linearGradient id="SVGID_20_" gradientUnits="userSpaceOnUse" x1="470.0791" y1="61.8081" x2="504.8999" y2="102.574" gradientTransform="matrix(0.9879 0.1552 -0.1552 0.9879 45.5237 126.2788)">
		<stop  offset="0" style="stop-color:#0000FF"/>
		<stop  offset="1" style="stop-color:#9E005D"/>
	</linearGradient>
	<path fill="url(#SVGID_20_)" d="M513.572,279.64c-5.201,2.122-6.699,4.463-7.492,10.357c-0.788,5.895,0.15,16.31,10.612,20.245
		c10.463,3.938,14.697-6.389,16.514-13.692c1.816-7.301,2.262-12.896-2.997-15.085C522.399,278.218,516.722,278.354,513.572,279.64z
		"/>
	
		<linearGradient id="SVGID_21_" gradientUnits="userSpaceOnUse" x1="473.0898" y1="59.4111" x2="507.7901" y2="100.0359" gradientTransform="matrix(0.9879 0.1552 -0.1552 0.9879 45.5237 126.2788)">
		<stop  offset="0" style="stop-color:#0000FF"/>
		<stop  offset="1" style="stop-color:#9E005D"/>
	</linearGradient>
	<path fill="url(#SVGID_21_)" d="M533.005,282.678c0.372-4.606-6.505-7.826-7.316-9.96c0,0-0.41,3.134,0.878,4.053
		c0,0-8.423-3.448-11.64-6.244c0,0,1.358,3.222,3.02,4.056c0,0-9.248-2.599-12.244-4.504c0,0,2.067,3.264,5.249,6.27
		c0,0-7.826,0.095-12.448-2.045c0,0,3.709,10.415,10.867,11.684C516.527,287.255,532.328,291.098,533.005,282.678z"/>
</g>
<g>
	<defs>
		<path id="SVGID_68_" d="M528.86,320.619c-1.518-0.742-3.248-1.32-5.001-1.781c0.185-1.824,0.347-3.641,0.48-5.316
			c0.035-0.455,0.01-0.896-0.054-1.324c2.179-1.516,3.317-2.814,4.253-5.035c0.954-1.195,1.756-2.576,2.427-4.033
			c0.783-0.611,1.556-1.47,2.195-2.529c1.536-2.542,1.743-5.229,0.537-6.19c1.016-4.714,1.168-8.551-0.843-11
			c0.051-0.242,0.131-0.461,0.149-0.731c0.372-4.606-6.505-7.826-7.316-9.96c0,0-0.41,3.134,0.878,4.053
			c0,0-8.423-3.448-11.64-6.244c0,0,1.358,3.222,3.02,4.056c0,0-9.248-2.599-12.244-4.504c0,0,2.067,3.264,5.249,6.27
			c0,0-7.826,0.095-12.448-2.045c0,0,2.603,7.262,7.635,10.393c-0.028,0.089-0.089,0.175-0.114,0.264
			c-0.547,1.857-0.958,3.607-1.298,5.284c-0.675-0.652-1.409-0.986-2.094-0.824c-1.581,0.372-2.283,3.121-1.571,6.139
			c0.48,2.033,1.482,3.646,2.57,4.384c-0.025,1.76,0.045,3.279,0.179,4.457c0.395,3.54,2.306,8.855,6.323,9.695
			c-0.076,0.297-0.168,0.586-0.216,0.895c-0.073,0.441-0.172,0.936-0.255,1.402c-2.528-0.309-7.332-0.369-11.076,0.395
			c-4.316,0.57-8.907,2.641-10.139,4.725c-0.502,0.85-0.995,1.689-1.479,2.52c-1.009,1.313-1.826,2.742-2.453,4.258
			c-4.81,8.449-8.528,15.49-11.117,19.816c-6.451-1.654-26.674-1.021-32.884-1.826c-0.158-0.137-0.321-0.273-0.537-0.385
			c-0.02-0.01-0.063-0.029-0.086-0.041c-0.302-0.338-0.671-0.693-1.154-1.107c-0.938-0.795-6.519-5.488-7.473-4.504
			c-0.633,0.654-0.299,1.646,0.442,2.734c-6.617-1.975-14.706-3.678-14.814-0.824c-0.197,5.043,8.08,8.164,10.856,8.959
			c4.355,1.25,8.084,2.15,10.523,1.219c2.103,2.127,4.938,3.766,12.095,6.002c12.11,3.779,19.245,5.188,25.465,5.729
			c-3.971,19.52-6.897,37.41-6.897,37.41s-3.998,13.928-6.565,30.02l0,0c-3.678,18.248-9.753,48.811-11.445,55.914
			c-0.369,1.541-0.599,2.92-0.754,4.209c-0.286,1.162-0.5,2.428-0.544,3.895c-0.503,16.273,2.045,48.068-1.947,79.287
			c-0.061,0.475,0.118,0.965,0.43,1.447c-0.19,0.205-0.407,0.383-0.544,0.641c-0.572,1.072-3.312,3.553-7.106,5.188
			c-3.792,1.633-11.837,2.398-7.367,3.836c4.466,1.439,9.677,0.566,12.313,0.16c2.638-0.41,5.198-0.465,8.31-0.484
			c4.1-0.025,4.132-0.27,3.581-4.73c-0.114-0.938-0.416-1.723-0.788-2.439c2.462-23.205,14.763-62.123,11.407-82.387
			c6.098-13.576,16.166-42.561,20.578-55.434c-0.086,13.752,3.767,48.896,5.962,64.041c0.047,0.334,0.162,0.678,0.289,1.02
			c0.255,0.941,0.582,1.918,1.027,2.947c6.13,14.182,21.466,49.145,26.292,65.607c-0.392,1.746-0.261,2.586-0.478,3.9
			c-0.299,1.828-2.042,2.494-3.054,3.996c-1.113,1.656-2.859,4.053,3.967,4.186c7.307,0.141,11.637-0.09,10.396-4.068
			c-0.757-2.434-1.139-4.027-1.304-5.205c0.162-0.105,0.369-0.193,0.496-0.318c0.617-0.592,0.092-2.246-0.086-3.633
			c-1.374-10.531-9.604-59.102-19.662-74.531c0.025-0.475,0.083-0.883,0.092-1.389c0.194-9.836,4.705-62.682,5.021-70.063
			c0.82-4.619,1.354-10.527,1.018-17.83c0.528-7.416,2.16-16.469,4.813-26.154c3.032-0.797,5.704-1.877,9.353-3.436
			c0.862-0.369,1.387-0.986,1.677-1.734c0.019-0.029,0.051-0.051,0.066-0.082c1.413-2.883,3.572-9.785,4.32-27.33
			c0.182-4.23,0.197-7.484,0.137-10.105C540.194,332.322,537.841,324.992,528.86,320.619z"/>
	</defs>
	<clipPath id="SVGID_22_">
		<use xlink:href="#SVGID_68_"  overflow="visible"/>
	</clipPath>
	
		<linearGradient id="SVGID_23_" gradientUnits="userSpaceOnUse" x1="-153.8516" y1="-1806.27" x2="249.7692" y2="-1558.2938" gradientTransform="matrix(0.3987 -0.8712 -0.5368 -0.4748 -324.8365 -245.0142)">
		<stop  offset="0" style="stop-color:#0000FF"/>
		<stop  offset="1" style="stop-color:#9E005D"/>
	</linearGradient>
	<path opacity="0.3" clip-path="url(#SVGID_22_)" fill="url(#SVGID_23_)" d="M597.209,277.906
		c-37.623-6.305-91.081,18.857-101.899,58.202c-11.042,40.164,19.144,59.375-5.605,114.982
		c-19.579,43.988,2.907,92.232,8.204,130.305c5.815,41.803-15.098,62.018-8.194,99.301c15.89,85.787,14.862,111.074,73.836,129.26
		c60.546,18.674,72.987-65.777,112.309-132.529c29.034-49.285,45.547-100.256,25.693-136.447
		c-28.506-51.969-70.175,0.754-55.558-61.949c8.745-37.52,7.329-102.379-46.908-92.617
		C544.849,396.176,651.396,286.981,597.209,277.906z"/>
</g>
<path opacity="0.1" d="M124.62,587.318c0,2.137,40.925,3.873,91.405,3.873c50.481,0,91.402-1.736,91.402-3.873
	c0-2.143-40.921-3.879-91.402-3.879C165.545,583.439,124.62,585.176,124.62,587.318z"/>
<g>
	<g>
		<path fill="#FFAF84" d="M175.085,255.26c0.573-2.679,6.149-23.515,9.874-20.674c4.12,3.136,3.713,11.888,3.217,14.814
			c-0.907,5.348-5.329,9.066-8.618,9.295C177.229,258.857,174.541,257.811,175.085,255.26z"/>
		
			<linearGradient id="SVGID_24_" gradientUnits="userSpaceOnUse" x1="-903.5654" y1="-640.4907" x2="-903.5654" y2="-563.2807" gradientTransform="matrix(-0.0587 1.0667 -1.0108 -0.1233 -508.7532 1162.151)">
			<stop  offset="0" style="stop-color:#36078B"/>
			<stop  offset="1" style="stop-color:#168D68"/>
		</linearGradient>
		<path fill="url(#SVGID_24_)" d="M183.238,254.764c1.718,3.789,0.165,4.463-0.799,15.082c-1.205,13.293-2.656,20.565-4.803,26.645
			c-1.982,5.618-13.65-1.365-12.547-9.41c0.936-6.798,10.418-29.234,12.251-32.988C178.285,252.161,181.842,251.688,183.238,254.764
			z"/>
		
			<linearGradient id="SVGID_25_" gradientUnits="userSpaceOnUse" x1="-842.2461" y1="-626.6509" x2="-842.2461" y2="-520.5944" gradientTransform="matrix(-0.0873 0.9962 -0.9962 -0.0873 -536.3692 1094.6223)">
			<stop  offset="0" style="stop-color:#36078B"/>
			<stop  offset="1" style="stop-color:#168D68"/>
		</linearGradient>
		<path fill="url(#SVGID_25_)" d="M178.791,291.177c-0.614,3.242-3.089,10.241-13.274,25.116
			c-6.213,9.074-9.518,12.51-11.799,15.023c-4.068,4.477-10.129,2.955-11.541,0.107c-2.271-4.586-2.252-12.338-0.261-14.814
			c11.226-13.971,20.715-24.029,22.837-27.891C167.849,283.078,179.517,287.338,178.791,291.177z"/>
		<path fill="#541968" d="M144.957,575.051c0.627,2.322,0.388,3.152,0.637,4.668c0.305,1.879,2.096,2.561,3.133,4.104
			c1.146,1.697,2.939,4.16-4.071,4.297c-7.501,0.146-11.948-0.092-10.673-4.18c1.272-4.084,1.518-5.889,1.435-7.219
			c-0.086-1.332,0-2.723,0.85-3.521C137.115,572.402,143.85,570.963,144.957,575.051z"/>
		<path fill="#541968" d="M220.206,491.713c0.639,1.072,3.572,3.48,7.545,4.967c3.971,1.484,12.257,1.869,7.749,3.568
			c-4.511,1.695-9.896,1.063-12.622,0.775c-2.727-0.285-5.363,0.221-8.558,0.357c-4.208,0.178-4.24-0.506-3.896-5.109
			C210.895,489.938,218.135,488.252,220.206,491.713z"/>
		<path fill="#FFAF84" d="M154.783,286.38c0.85,8.519,1.101,10.402,4.823,13.892c3.718,3.487,9.533,3.996,13.57,3.996
			c4.361,0,7.236-5.262,8.223-8.866c1.019-3.731,2.074-10.739,0.85-20.069c-0.62-4.727-6.454-10.463-12.473-10.463
			C163.757,264.87,152.703,265.566,154.783,286.38z"/>
		<path fill="#FFAF84" d="M159.122,301.383c-0.231,2.955-0.451,6.352-0.547,9.453c-0.127,4.068,3.044,7.873,7.094,8.252
			c0.182,0.016,0.321,0.023,0.468,0.023c3.678,0,8.007-3.332,7.683-7.016c-0.21-2.395-0.29-4.809-0.303-6.925
			c-0.025-4.046-2.566-7.638-6.381-8.986l0,0C163.401,294.864,159.428,297.435,159.122,301.383z"/>
		
			<linearGradient id="SVGID_26_" gradientUnits="userSpaceOnUse" x1="-1966.1021" y1="331.1025" x2="-1966.1021" y2="486.9435" gradientTransform="matrix(-1 0 0 1 -1795.3906 0)">
			<stop  offset="0" style="stop-color:#36078B"/>
			<stop  offset="1" style="stop-color:#168D68"/>
		</linearGradient>
		<path fill="url(#SVGID_26_)" d="M142.078,337.797c6.836,22.475,9.079,45.922,7.739,61.621h51.483c0,0-0.303-48.221-3.748-74.627
			c-0.805-6.143-4.335-11.67-10.866-15.141c-3.875-2.059-10.876-3.039-13.724-3.039h-9.511c-3.19,0-6.954,0.303-10.046,1.251
			C139.364,312.162,138.114,324.77,142.078,337.797z"/>
		
			<linearGradient id="SVGID_27_" gradientUnits="userSpaceOnUse" x1="-1970.0356" y1="651.9775" x2="-1970.0356" y2="430.4323" gradientTransform="matrix(-1 0 0 1 -1795.3906 0)">
			<stop  offset="0" style="stop-color:#36078B"/>
			<stop  offset="1" style="stop-color:#16B1FF"/>
		</linearGradient>
		<path fill="url(#SVGID_27_)" d="M150.031,430.912c0,0-4.447-10.805-0.214-31.494h51.483c0,0-0.038,14.762,0,31.494H150.031z"/>
		<g>
			<g>
				
					<linearGradient id="SVGID_28_" gradientUnits="userSpaceOnUse" x1="-1943.2788" y1="651.9854" x2="-1943.2788" y2="430.4305" gradientTransform="matrix(-1 0 0 1 -1795.3906 0)">
					<stop  offset="0" style="stop-color:#36078B"/>
					<stop  offset="1" style="stop-color:#16B1FF"/>
				</linearGradient>
				<path fill="url(#SVGID_28_)" d="M160.191,498.295c4.126-16.762-12.995-19.713-18.399-7.584
					c-7.645,17.146-7.037,71.969-6.63,82.908c0.055,1.436-0.193,3.197,0.531,3.693c1.358,0.934,4.241,0.914,5.443,0.875
					c1.921-0.061,3.801-0.053,3.995-2.424C146.437,559.799,156.199,514.527,160.191,498.295z"/>
				
					<linearGradient id="SVGID_29_" gradientUnits="userSpaceOnUse" x1="-1954.0903" y1="651.9814" x2="-1954.0903" y2="430.4315" gradientTransform="matrix(-1 0 0 1 -1795.3906 0)">
					<stop  offset="0" style="stop-color:#36078B"/>
					<stop  offset="1" style="stop-color:#16B1FF"/>
				</linearGradient>
				<path fill="url(#SVGID_29_)" d="M175.581,433.172c1.811-20.82-6.438-36.99-19.354-30.115c-5.437,2.891-7.425,8.682-8.156,14.131
					c-0.734,5.449-4.733,62.1-6.133,72.34c-3.162,23.076,15.063,16.854,17.038,10.459
					C163.967,483.844,174.599,444.52,175.581,433.172z"/>
			</g>
		</g>
		
			<linearGradient id="SVGID_30_" gradientUnits="userSpaceOnUse" x1="-2042.9644" y1="452.2383" x2="-2042.9644" y2="230.6748" gradientTransform="matrix(-0.9243 -0.3816 -0.3816 0.9243 -1528.6068 -639.7921)">
			<stop  offset="0" style="stop-color:#36078B"/>
			<stop  offset="1" style="stop-color:#16B1FF"/>
		</linearGradient>
		<path fill="url(#SVGID_30_)" d="M210.809,492c8.764-22.92,15.543-66.59,28.738-82.789c8.385-10.293,22.576-4.797,15.984,9.391
			c-7.043,15.164-24.039,43.156-34.772,73.637C219.706,495.234,209.822,494.693,210.809,492z"/>
		
			<linearGradient id="SVGID_31_" gradientUnits="userSpaceOnUse" x1="-1645.7515" y1="823.5049" x2="-1645.7515" y2="644.6591" gradientTransform="matrix(-0.0354 0.9994 0.9994 0.0354 -505.8745 2037.4792)">
			<stop  offset="0" style="stop-color:#36078B"/>
			<stop  offset="1" style="stop-color:#16B1FF"/>
		</linearGradient>
		<path fill="url(#SVGID_31_)" d="M250.888,423.682c6.447-1.793,13.621-22.748-9.651-21.752c-10.323,0.439-46.667,0.207-52.164,0.43
			c-5.493,0.221-13.532,0.885-14.63,3.598c-5.484,13.564,10.39,27.473,31.089,24.588
			C219.369,428.617,237.518,427.404,250.888,423.682z"/>
		
			<ellipse transform="matrix(-0.9257 -0.3783 0.3783 -0.9257 243.9358 619.3796)" fill="#FFAF84" cx="182.801" cy="285.731" rx="3.019" ry="5.763"/>
		<path fill="#FFAF84" d="M157.821,284.589c1.202,2.946,0.929,5.847-0.614,6.477c-1.542,0.63-3.772-1.247-4.975-4.192
			c-1.203-2.946-0.929-5.847,0.613-6.477C154.393,279.764,156.619,281.644,157.821,284.589z"/>
		
			<linearGradient id="SVGID_32_" gradientUnits="userSpaceOnUse" x1="-1849.1948" y1="185.5181" x2="-1830.735" y2="172.7591" gradientTransform="matrix(-1 0 0 1 -1795.3906 0)">
			<stop  offset="0" style="stop-color:#2C27CE"/>
			<stop  offset="0.6488" style="stop-color:#EF1D68"/>
			<stop  offset="1" style="stop-color:#EFBA92"/>
		</linearGradient>
		<path fill="url(#SVGID_32_)" d="M157.404,269.594c3.318,4.953,19.348,5.414,24.581,3.591c5.232-1.826,4.87-11.942-2.615-12.635
			c-4.215-0.009-1.164,0.999-4.578,2.386C173.062,263.639,153.864,264.307,157.404,269.594z"/>
		<path fill="#FFAF84" d="M259.267,302.422c2.589-0.899,23.295-6.928,22.799-2.271c-0.548,5.149-8.246,9.337-11.004,10.427
			c-5.042,1.996-10.514,0.141-12.416-2.551C257.301,306.119,256.804,303.278,259.267,302.422z"/>
		<path fill="#FFAF84" d="M260.157,301.137c0.896-0.887,6.247-6.123,7.301-5.191c1.603,1.422-1.728,5.026-3.923,7.421
			c-1.189,1.298-3.664,2.249-4.597,1.154C258.003,303.432,258.723,302.557,260.157,301.137z"/>
		<linearGradient id="SVGID_33_" gradientUnits="userSpaceOnUse" x1="234.2656" y1="296.4854" x2="259.3078" y2="348.6058">
			<stop  offset="0" style="stop-color:#36078B"/>
			<stop  offset="1" style="stop-color:#168D68"/>
		</linearGradient>
		<path fill="url(#SVGID_33_)" d="M263.917,309.135c-2.351,3.436-3.731,2.455-13.313,7.135c-11.996,5.863-18.966,8.389-25.277,9.703
			c-5.831,1.215-5.907-12.385,1.546-15.607c6.299-2.723,30.398-6.24,34.56-6.619C263.576,303.552,265.825,306.348,263.917,309.135z"
			/>
		<linearGradient id="SVGID_34_" gradientUnits="userSpaceOnUse" x1="199.3887" y1="307.3398" x2="235.2584" y2="380.1797">
			<stop  offset="0" style="stop-color:#36078B"/>
			<stop  offset="1" style="stop-color:#168D68"/>
		</linearGradient>
		<path fill="url(#SVGID_34_)" d="M231.11,324.492c-3.013,1.334-10.183,3.271-28.21,3.328c-10.997,0.035-12.339-0.279-15.702-0.732
			c-5.996-0.811-10.09-6.715-10.004-9.893c0.14-5.242,2.821-9.154,5.986-8.923c17.878,1.311,37.607,3.712,41.987,3.267
			C231.571,310.887,234.683,322.908,231.11,324.492z"/>
	</g>
	<linearGradient id="SVGID_35_" gradientUnits="userSpaceOnUse" x1="168.499" y1="275.8408" x2="151.3967" y2="317.3752">
		<stop  offset="0" style="stop-color:#2C27CE"/>
		<stop  offset="0.6488" style="stop-color:#EF1D68"/>
		<stop  offset="1" style="stop-color:#EFBA92"/>
	</linearGradient>
	<path fill="url(#SVGID_35_)" d="M175.441,268.735c4.938,2.98,6.085,5.596,5.945,11.7c-0.137,6.104-2.748,16.519-13.987,18.845
		c-11.238,2.326-13.889-8.825-14.569-16.52c-0.678-7.695-0.238-13.443,5.446-14.824
		C166.713,265.885,172.451,266.931,175.441,268.735z"/>
</g>
<g>
	<defs>
		<path id="SVGID_83_" d="M266.032,300.501c1.438-1.819,2.459-3.639,1.426-4.555c-1.054-0.932-6.404,4.304-7.301,5.191
			c-0.576,0.57-0.986,1.041-1.272,1.482c-0.716,0.367-1.126,0.926-1.272,1.594c-8.229,1.117-25.541,3.904-30.739,6.152
			c-0.699,0.303-1.311,0.719-1.877,1.182c-4.66,0.381-24.132-1.977-41.815-3.274c0,0,0,0-0.003,0
			c-3.416-1.03-7.367-1.562-9.629-1.642c-0.01-0.483-0.028-1.002-0.032-1.46c-0.003-0.321-0.048-0.63-0.079-0.941
			c4.208-0.214,6.998-5.296,7.962-8.828c0.318-1.17,0.637-2.701,0.891-4.492c1.219-0.573,2.494-2.052,3.306-4.037
			c1.202-2.946,0.929-5.847-0.617-6.477c-0.668-0.273-1.467-0.054-2.256,0.5c-0.076-1.753-0.216-3.595-0.474-5.563
			c-0.041-0.321-0.165-0.652-0.251-0.98c0.041-0.388,0.079-0.83,0.12-1.231c3.9-1.501,4.549-7.679,1.292-10.793
			c0.464-2.745,0.772-4.113,0.483-5.615c2.007-1.638,3.751-4.183,4.282-7.313c0.496-2.926,0.903-11.678-3.217-14.814
			c-3.725-2.841-9.301,17.995-9.874,20.674c-0.216,1.018,0.093,1.788,0.675,2.344c-0.678,1.562-1.492,3.483-2.367,5.605
			c-4.352,0.607-16.484,1.574-16.376,5.204c-3.948,1.705-4.676,6.155-4.342,12.094c-1.378,0.783-1.598,3.541-0.442,6.366
			c0.48,1.177,1.126,2.169,1.826,2.914c0.445,1.584,1.04,3.111,1.816,4.479c0.362,1.473,0.858,2.625,1.641,3.7
			c-3.312,3.899-7.453,8.706-12.053,14.292c-1.095,1.021-2.011,2.148-2.748,3.369c-0.271,0.334-0.528,0.643-0.799,0.982
			c-0.795,0.99-1.26,2.832-1.406,4.967c-0.903,4.883-0.169,10.514,1.568,16.221c6.836,22.475,9.079,45.922,7.739,61.621
			c-1.504,7.352-1.902,13.43-1.804,18.242c-0.858,7.539-4.708,61.859-6.075,71.867c-0.055,0.393-0.055,0.713-0.096,1.088
			c-0.016,0.035-0.038,0.061-0.051,0.096c-7.645,17.146-7.037,71.969-6.63,82.908c0.045,1.182-0.086,2.539,0.258,3.277
			c0.055,1.316-0.22,3.131-1.438,7.043c-1.275,4.088,3.172,4.326,10.673,4.18c7.011-0.137,5.217-2.6,4.071-4.297
			c-1.037-1.543-2.828-2.225-3.133-4.104c-0.217-1.324-0.096-2.18-0.472-3.904c0.004-0.02,0.01-0.031,0.01-0.051
			c1.305-15.965,11.067-61.236,15.06-77.469c0.385-1.555,0.531-2.951,0.572-4.266c5.38-18.326,13.939-50.727,14.817-60.857
			c0.067-0.764,0.093-1.508,0.134-2.26h25.586c0-0.008,0-0.016,0-0.021c1.387-0.045,2.793-0.146,4.23-0.346
			c7.409-1.031,16.042-1.871,24.526-2.984c-7.523,20.076-12.864,47.744-19.249,64.439c-0.194,0.527,0.042,0.971,0.534,1.32
			c-0.467,0.846-0.833,1.793-0.919,2.951c-0.344,4.604-0.312,5.287,3.896,5.109c3.194-0.137,5.831-0.643,8.558-0.357
			c2.726,0.287,8.111,0.92,12.622-0.775c4.508-1.699-3.778-2.084-7.749-3.568c-3.337-1.248-5.917-3.135-7.046-4.346
			c0.016-0.035,0.045-0.061,0.054-0.096c10.263-29.139,26.222-55.975,33.765-71.529c1.66-2.32,2.834-5.629,2.682-8.838
			c0-2.418-0.802-4.32-2.1-5.668c-0.048-0.059-0.111-0.105-0.159-0.16c-0.19-0.188-0.372-0.385-0.582-0.547
			c-2.411-2.326-6.506-3.85-13.128-3.566c-7.139,0.307-26.722,0.287-39.942,0.322c0.003-1.801,0.007-2.834,0.007-2.834
			s-0.28-44.725-3.382-71.609c1.406,0.012,3.038,0.018,4.981,0.012c18.027-0.057,25.197-1.994,28.21-3.328
			c0.041-0.018,0.067-0.053,0.105-0.072c4.991-1.563,10.93-4.018,19.389-8.15c7.717-3.77,10.112-3.867,11.982-5.561
			c2.443,0.865,5.522,1.037,8.475-0.131c2.758-1.09,10.456-5.277,11.004-10.427C282.402,296.983,272.938,298.758,266.032,300.501z"
			/>
	</defs>
	<clipPath id="SVGID_36_">
		<use xlink:href="#SVGID_83_"  overflow="visible"/>
	</clipPath>
	
		<linearGradient id="SVGID_37_" gradientUnits="userSpaceOnUse" x1="-1948.8652" y1="1590.748" x2="-1545.2452" y2="1838.7238" gradientTransform="matrix(-0.3987 -0.8712 0.5368 -0.4748 -1550.5048 -245.0142)">
		<stop  offset="0" style="stop-color:#0000FF"/>
		<stop  offset="1" style="stop-color:#9E005D"/>
	</linearGradient>
	<path opacity="0.3" clip-path="url(#SVGID_36_)" fill="url(#SVGID_37_)" d="M66.639,228.818
		c37.626-6.305,91.084,18.858,101.899,58.198c11.045,40.167-19.141,59.378,5.608,114.987c19.576,43.988-2.91,92.232-8.204,130.303
		c-5.814,41.803,15.098,62.02,8.191,99.301c-15.886,85.789-14.858,111.074-73.833,129.262
		C39.752,779.541,27.314,695.09-12.011,628.338c-29.034-49.287-45.544-100.256-25.693-136.447
		c28.509-51.969,70.178,0.754,55.561-61.947c-8.745-37.521-7.329-102.381,46.908-92.617
		C118.999,347.088,12.455,237.894,66.639,228.818z"/>
</g>
<linearGradient id="SVGID_38_" gradientUnits="userSpaceOnUse" x1="46.9316" y1="251.1016" x2="30.4412" y2="327.0393">
	<stop  offset="0" style="stop-color:#2C27CE"/>
	<stop  offset="1" style="stop-color:#EF1D68"/>
</linearGradient>
<path fill="url(#SVGID_38_)" d="M27.289,277.343c-6.197,4.533-10.587,13.03-9.061,22.395c1.527,9.366,0,18.336-1.73,23.725
	s-7.711,23.406,13.501,22.998c21.212-0.406,22.534-25.244,20.092-37.969c-2.443-12.725,2.017-21.683-1.181-25.551
	S38.282,269.301,27.289,277.343z"/>
<path fill="#FFAF84" d="M107.433,323.742c3.967-3.121,7.959-6.516,8.773-2.984c0.856,3.717,0.847,3.328-1.984,5.904
	S104.096,326.367,107.433,323.742z"/>
<linearGradient id="SVGID_39_" gradientUnits="userSpaceOnUse" x1="59.5557" y1="328.0293" x2="101.0894" y2="332.1012">
	<stop  offset="0" style="stop-color:#36078B"/>
	<stop  offset="1" style="stop-color:#16B1FF"/>
</linearGradient>
<path fill="url(#SVGID_39_)" d="M107.557,323.07c-2.675,1.207-21.446,4.992-29.071,7.377c-0.07-0.025-0.131-0.057-0.207-0.078
	c-3.795-1.053-14.238-6.121-28.306-12.363c-2.494-1.104-8.506-1.281-12.556,0.742c-2.513,1.256-3.347,5.555,1.206,7.877
	c2.555,1.301,6.066,3.205,15.101,6.523c12.784,4.691,19.551,6.061,23.143,6.4c0.741,0.188,1.552,0.227,2.404,0.025
	c7.89-1.857,10.765-2.701,20.375-7.732c6.671-3.494,9.282-2.398,10.342-4.508C110.847,325.619,109.552,322.17,107.557,323.07z"/>
<ellipse opacity="0.1" cx="48.069" cy="551.867" rx="47.711" ry="3.631"/>
<linearGradient id="SVGID_40_" gradientUnits="userSpaceOnUse" x1="19.7949" y1="544.0615" x2="20.8129" y2="513.7279">
	<stop  offset="0" style="stop-color:#2C27CE"/>
	<stop  offset="0.6488" style="stop-color:#EF1D68"/>
	<stop  offset="1" style="stop-color:#EFBA92"/>
</linearGradient>
<path fill="url(#SVGID_40_)" d="M22.098,540.873c0.492,1.893,0.305,2.57,0.499,3.805c0.241,1.531,1.647,2.088,2.462,3.344
	c0.897,1.385,2.307,3.604-3.197,3.715c-5.891,0.119-9.381-0.289-8.382-3.619c1.002-3.328,1.192-4.797,1.126-5.883
	c-0.066-1.088,0.004-2.217,0.668-2.869C15.941,538.717,21.229,537.543,22.098,540.873z"/>
<path fill="#ED9169" d="M32.906,303.367c-0.048,0.436-0.744,9.775-0.865,16.943c-0.061,3.514,2.472,6.848,5.001,6.932
	c0.038,0.002,0.076,0.002,0.111,0.002c2.481,0,5.401-3.117,5.182-6.564c-0.397-6.242-0.099-12.627-0.089-12.725L32.906,303.367z"/>
<linearGradient id="SVGID_41_" gradientUnits="userSpaceOnUse" x1="34.041" y1="319.5215" x2="49.9211" y2="390.3707">
	<stop  offset="0" style="stop-color:#36078B"/>
	<stop  offset="1" style="stop-color:#16B1FF"/>
</linearGradient>
<path fill="url(#SVGID_41_)" d="M25.653,343.727c2.179,6.35,3.378,13.004,4.482,19.613c0.808,4.852,0.598,9.906-0.061,14.768
	c-0.401,2.945-0.979,5.869-1.651,8.764c-0.251,1.098-2.408,9.951-2.51,10.898c0,0,38.189,0,40.422,0
	c-0.388-7.922-9.406-32.797-3.302-48.91c4.228-11.156-1.387-11.496-5.197-20.785c-0.933-2.273-1.687-4.771-3.229-6.734
	c-1.488-1.893-3.874-3.213-6.184-3.791c-1.229-0.309-2.497-0.426-3.76-0.527c-6.84-0.551-22.945-2.533-24.46,7.197
	c-0.413,2.656-0.006,5.326,0.802,7.867c0.903,2.842,2.252,5.514,3.385,8.271C24.846,341.467,25.266,342.594,25.653,343.727z"/>
<linearGradient id="SVGID_42_" gradientUnits="userSpaceOnUse" x1="46.457" y1="445.4727" x2="48.6285" y2="639.835">
	<stop  offset="0" style="stop-color:#F70F47"/>
	<stop  offset="1" style="stop-color:#9E005D"/>
</linearGradient>
<path fill="url(#SVGID_42_)" d="M26.08,423.432c0,0-3.49-8.807-0.166-25.662h40.422c0,0,1.441,12.027,1.471,25.662H26.08z"/>
<g>
	<g>
		<linearGradient id="SVGID_43_" gradientUnits="userSpaceOnUse" x1="23.7666" y1="445.7236" x2="25.9381" y2="640.0852">
			<stop  offset="0" style="stop-color:#F70F47"/>
			<stop  offset="1" style="stop-color:#9E005D"/>
		</linearGradient>
		<path fill="url(#SVGID_43_)" d="M34.058,478.334c3.239-13.656-10.201-16.063-14.445-6.182
			c-6.003,13.975-5.525,58.641-5.204,67.557c0.041,1.168,0.652,0.949,1.305,0.713c1.912-0.689,3.515-0.963,4.271-0.801
			c1.479,0.311,2.253,1.834,2.253,1.834C23.503,529.311,30.925,491.561,34.058,478.334z"/>
		<linearGradient id="SVGID_44_" gradientUnits="userSpaceOnUse" x1="32.8623" y1="445.623" x2="35.0337" y2="639.9827">
			<stop  offset="0" style="stop-color:#F70F47"/>
			<stop  offset="1" style="stop-color:#9E005D"/>
		</linearGradient>
		<path fill="url(#SVGID_44_)" d="M46.143,425.273c1.419-16.965-5.055-30.141-15.195-24.539c-4.27,2.357-5.831,7.074-6.404,11.516
			c-0.575,4.439-3.715,50.598-4.816,58.939c-2.48,18.803,11.828,13.734,13.381,8.525C37.022,466.561,45.37,434.518,46.143,425.273z"
			/>
	</g>
</g>
<linearGradient id="SVGID_45_" gradientUnits="userSpaceOnUse" x1="61.6826" y1="445.3008" x2="63.8541" y2="639.6652">
	<stop  offset="0" style="stop-color:#F70F47"/>
	<stop  offset="1" style="stop-color:#9E005D"/>
</linearGradient>
<path fill="url(#SVGID_45_)" d="M70.033,477.453c0.531-12.732-11.414-12.461-14.414-2.1c-4.724,16.303,3.442,51.297,3.951,71.285
	c2.08-3.455,4.047-4.293,4.972-4.219c1.505,0.115,2.319,1.301,2.319,1.301C66.556,517.395,69.463,491.064,70.033,477.453z"/>
<linearGradient id="SVGID_46_" gradientUnits="userSpaceOnUse" x1="57.5723" y1="445.3477" x2="59.7437" y2="639.7112">
	<stop  offset="0" style="stop-color:#F70F47"/>
	<stop  offset="1" style="stop-color:#9E005D"/>
</linearGradient>
<path fill="url(#SVGID_46_)" d="M56.097,478.832c1.587,5.199,15.26,11.215,13.831-7.707c-0.633-8.391-2.322-54.734-2.646-59.199
	c-0.328-4.471-1.072-10.998-3.232-11.813c-10.796-4.074-21.266,9.252-18.424,26.025C47.521,437.352,52.805,468.053,56.097,478.832z"
	/>
<path fill="#FFAF84" d="M113.607,319.604c1.918-1.467,4.453-2.92,6.2-3.072c1.749-0.152-2.052,1.873-3.42,3.086
	C115.02,320.824,111.994,320.838,113.607,319.604z"/>
<path fill="#FFAF84" d="M27.563,378.598c4.934-0.994,7.443-2.65,9.695-1.406s-1.059,5.588-2.742,6.301
	c-1.68,0.709-7.586,3.764-9.32,2.131C23.462,383.988,23.92,379.332,27.563,378.598z"/>
<linearGradient id="SVGID_47_" gradientUnits="userSpaceOnUse" x1="21.7402" y1="327.1582" x2="13.5967" y2="378.0555">
	<stop  offset="0" style="stop-color:#36078B"/>
	<stop  offset="1" style="stop-color:#16B1FF"/>
</linearGradient>
<path fill="url(#SVGID_47_)" d="M10.985,357.064c2.806-4.365,9.069-12.578,16.742-23.234c1.594-2.215,3-8.061,1.852-12.439
	c-0.716-2.719-4.753-4.414-7.956-0.436c-1.801,2.23-4.384,5.277-9.482,13.441C3.783,347.775,1.449,354.18,0.732,357.17
	c-0.276,1.16,0.331,2.299,1.355,3.135c0.092,0.154,0.172,0.313,0.283,0.463c4.848,6.492,6.766,8.795,15.215,15.6
	c5.866,4.725,5.901,7.555,8.259,7.686c1.911,0.105,4.558-2.459,2.938-3.93C26.684,378.219,16.399,363.512,10.985,357.064z"/>
<path fill="#FFAF84" d="M26.662,297.953c2.055,7.749,2.566,9.454,6.527,12.123c3.957,2.67,9.113,3.354,12.846,2.752
	c4.03-0.648,6.333-5.389,6.705-8.865c0.389-3.602,0.185-11.869-2.335-20.309c-1.278-4.279-7.526-8.71-13.09-7.816
	C31.752,276.735,21.639,279.026,26.662,297.953z"/>
<linearGradient id="SVGID_48_" gradientUnits="userSpaceOnUse" x1="69.8389" y1="545.7412" x2="70.8568" y2="515.4091">
	<stop  offset="0" style="stop-color:#2C27CE"/>
	<stop  offset="0.6488" style="stop-color:#EF1D68"/>
	<stop  offset="1" style="stop-color:#EFBA92"/>
</linearGradient>
<path fill="url(#SVGID_48_)" d="M67.361,543.654c0.461,0.896,2.668,2.971,5.729,4.338c3.057,1.365,9.54,2.008,5.939,3.211
	c-3.602,1.201-7.801,0.473-9.929,0.133c-2.125-0.344-4.187-0.387-6.696-0.404c-3.309-0.021-3.334-0.225-2.889-3.957
	C60.13,541.84,65.872,540.752,67.361,543.654z"/>
<linearGradient id="SVGID_49_" gradientUnits="userSpaceOnUse" x1="35.2627" y1="400.748" x2="18.7717" y2="476.688" gradientTransform="matrix(0.9873 -0.1591 0.1591 0.9873 -61.1997 -139.8541)">
	<stop  offset="0" style="stop-color:#2C27CE"/>
	<stop  offset="1" style="stop-color:#EF1D68"/>
</linearGradient>
<path fill="url(#SVGID_49_)" d="M48.421,279.748c3.929,4.766-16.924,18.034-22.036,18.008c-5.111-0.029-5.513-9.718-2.442-15.164
	C27.012,277.143,39.145,268.493,48.421,279.748z"/>
<linearGradient id="SVGID_50_" gradientUnits="userSpaceOnUse" x1="44.9678" y1="402.8555" x2="28.4773" y2="478.7934" gradientTransform="matrix(0.9873 -0.1591 0.1591 0.9873 -61.1997 -139.8541)">
	<stop  offset="0" style="stop-color:#2C27CE"/>
	<stop  offset="1" style="stop-color:#EF1D68"/>
</linearGradient>
<path fill="url(#SVGID_50_)" d="M39.896,279.76c1.526,4.327,9.499,4.091,11.423,7.562c1.196,2.157,0.414-5.131-1.943-8.112
	C47.021,276.233,36.822,271.066,39.896,279.76z"/>
<path fill="#FFAF84" d="M30.419,296.703c1.126,2.758,0.868,5.475-0.579,6.063c-1.444,0.592-3.527-1.167-4.654-3.925
	c-1.129-2.758-0.868-5.475,0.576-6.063C27.206,292.186,29.289,293.945,30.419,296.703z"/>
<g>
	<defs>
		<path id="SVGID_99_" d="M119.808,316.531c-1.674,0.146-4.063,1.492-5.949,2.896c-1.466,0.459-3.419,1.941-5.445,3.541
			c-0.268-0.045-0.551-0.037-0.856,0.102c-2.675,1.207-21.446,4.992-29.071,7.377c-0.07-0.025-0.131-0.057-0.207-0.078
			c-3.703-1.027-13.762-5.885-27.316-11.92c0.01-3.039-0.229-5.92-0.626-8.449c1.371-1.795,2.197-4.101,2.404-6.037
			c0.331-3.064,0.217-9.515-1.371-16.568c1.117,1.845,0.328-5.249-1.994-8.185c-1.27-1.606-4.816-3.833-7.339-4.192
			c-1.772-0.649-3.547-0.843-5.268-0.681c-2.777-0.312-5.942,0.419-9.479,3.006c-6.197,4.533-10.587,13.03-9.061,22.395
			c1.527,9.366,0,18.336-1.73,23.725c-0.486,1.52-1.301,4.055-1.759,6.889c-0.796,1.203-1.639,2.508-2.599,4.045
			C3.783,347.775,1.449,354.18,0.732,357.17c-0.276,1.16,0.331,2.299,1.355,3.135c0.092,0.154,0.172,0.313,0.283,0.463
			c4.848,6.492,6.766,8.795,15.215,15.6c4.263,3.436,5.446,5.85,6.681,6.973c0.073,0.916,0.372,1.76,0.929,2.283
			c0.681,0.641,2.004,0.551,3.458,0.176c-0.079,0.355-0.146,0.715-0.229,1.072c-0.251,1.098-2.408,9.951-2.51,10.898
			c-1.18,5.99-1.495,10.945-1.415,14.869c-0.675,6.148-3.696,50.4-4.772,58.551c-0.041,0.32-0.041,0.582-0.076,0.891
			c-0.009,0.025-0.028,0.047-0.038,0.072c-6.003,13.975-5.525,58.641-5.204,67.557c0.016,0.465,0.141,0.672,0.303,0.783
			c-0.125,0.537-0.141,1.143-0.105,1.742c0.066,1.086-0.124,2.555-1.126,5.883c-0.999,3.33,2.491,3.738,8.382,3.619
			c5.504-0.111,4.095-2.33,3.197-3.715c-0.814-1.256-2.221-1.813-2.462-3.344c-0.172-1.098-0.07-1.801-0.385-3.264
			c0.003,0.006,0.025,0.041,0.025,0.041c1.266-12.145,8.688-49.895,11.82-63.121c0.303-1.27,0.417-2.406,0.452-3.477
			c3.891-13.76,9.893-37.229,11.356-47.295c1.918,11.301,6.365,36.885,9.527,48.779c-4.161,16.68,3.677,50.686,4.177,70.297
			c0.02-0.033,0.038-0.059,0.057-0.09c-0.028,0.15-0.092,0.268-0.111,0.426c-0.445,3.732-0.42,3.936,2.889,3.957
			c2.51,0.018,4.571,0.061,6.696,0.404c2.128,0.34,6.327,1.068,9.929-0.133c3.601-1.203-2.883-1.846-5.939-3.211
			c-3.061-1.367-5.268-3.441-5.729-4.338c-0.125-0.248-0.322-0.424-0.503-0.613c-0.248-26.102,2.611-52.094,3.175-65.588
			c0.035-0.854,0.006-1.637-0.064-2.373c0.061-1.191,0.07-2.469-0.041-3.955c-0.461-6.088-1.473-32.139-2.121-47.693
			c-0.029-13.635-1.471-25.662-1.471-25.662c-0.388-7.922-9.406-32.797-3.302-48.91c2.542-6.709,1.518-9.508-0.528-12.695
			c7.288,2.311,11.704,3.131,14.36,3.385c0.741,0.188,1.552,0.227,2.404,0.025c7.89-1.857,10.765-2.701,20.375-7.732
			c6.413-3.359,9.057-2.504,10.192-4.305c1.549,0.297,3.296,0.115,4.384-0.875c2.831-2.576,2.841-2.188,1.984-5.904
			c-0.079-0.34-0.21-0.563-0.347-0.781c0.191-0.105,0.372-0.223,0.528-0.359C117.756,318.404,121.557,316.379,119.808,316.531z
			 M10.985,357.064c1.775-2.762,4.94-7.068,8.965-12.557c1.676,0.906,3.775,1.568,6.499,1.826
			c1.666,5.555,2.732,11.289,3.687,17.006c0.802,4.814,0.598,9.824-0.048,14.65c-0.773,0.209-1.594,0.422-2.525,0.607
			c-0.039,0.008-0.064,0.027-0.099,0.037C23.917,374.287,15.648,362.621,10.985,357.064z"/>
	</defs>
	<clipPath id="SVGID_51_">
		<use xlink:href="#SVGID_99_"  overflow="visible"/>
	</clipPath>
	
		<linearGradient id="SVGID_52_" gradientUnits="userSpaceOnUse" x1="-1785.2964" y1="1469.8018" x2="-1381.6757" y2="1717.778" gradientTransform="matrix(-0.3987 -0.8712 0.5368 -0.4748 -1550.5048 -245.0142)">
		<stop  offset="0" style="stop-color:#0000FF"/>
		<stop  offset="1" style="stop-color:#9E005D"/>
	</linearGradient>
	<path opacity="0.3" clip-path="url(#SVGID_51_)" fill="url(#SVGID_52_)" d="M-63.5,143.74c37.623-6.303,91.084,18.861,101.9,58.201
		c11.041,40.167-19.141,59.375,5.607,114.986c19.577,43.988-2.91,92.23-8.207,130.301c-5.814,41.803,15.098,62.021,8.195,99.301
		C28.109,632.32,29.134,657.607-29.841,675.793c-60.546,18.67-72.986-65.777-112.308-132.529
		c-29.034-49.289-45.547-100.26-25.694-136.451c28.509-51.969,70.175,0.754,55.562-61.947c-8.748-37.519-7.33-102.381,46.904-92.615
		C-11.139,262.013-117.684,152.817-63.5,143.74z"/>
</g>
</svg>
