<svg xmlns="http://www.w3.org/2000/svg" width="607" height="386">
  <defs>
    <linearGradient id="a" x1=".098%" x2="100.067%" y1="49.818%" y2="49.818%">
      <stop offset="0%" stop-color="#545F7E"/>
      <stop offset="100%" stop-color="#2D3651"/>
    </linearGradient>
    <linearGradient id="b" x1="-.094%" x2="99.757%" y1="50.113%" y2="50.113%">
      <stop offset="0%" stop-color="#FDBD8A"/>
      <stop offset="100%" stop-color="#FED8B9"/>
    </linearGradient>
    <linearGradient id="c" x1="12.193%" x2="52.794%" y1="19.493%" y2="54.872%">
      <stop offset="0%" stop-color="#58F17B"/>
      <stop offset="100%" stop-color="#16CD6F"/>
    </linearGradient>
    <linearGradient id="d" x1="46.202%" x2="50.432%" y1="19.918%" y2="54.215%">
      <stop offset="0%" stop-color="#545F7E"/>
      <stop offset="100%" stop-color="#2D3651"/>
    </linearGradient>
    <linearGradient id="e" x1="50%" x2="50%" y1="100%" y2="0%">
      <stop offset="0%" stop-color="#B0CFFF"/>
      <stop offset="100%" stop-color="#83B3FF"/>
    </linearGradient>
    <linearGradient id="f" x1="50%" x2="50%" y1="100.003%" y2="0%">
      <stop offset="4.925%" stop-color="#ABC8FF"/>
      <stop offset="100%" stop-color="#DBE8FF"/>
    </linearGradient>
    <linearGradient id="g" x1="50%" x2="50%" y1="100%" y2="0%">
      <stop offset="0%" stop-color="#CEDFFF"/>
      <stop offset="100%" stop-color="#E8F0FF"/>
    </linearGradient>
    <linearGradient id="h" x1="48.049%" x2="49.919%" y1="43.292%" y2="56.407%">
      <stop offset="0%" stop-color="#E8F0FF"/>
      <stop offset="100%" stop-color="#CEDFFF"/>
    </linearGradient>
    <linearGradient id="i" x1="-104.462%" x2="14.717%" y1="-40.844%" y2="45.814%">
      <stop offset="0%" stop-color="#58F17B"/>
      <stop offset="100%" stop-color="#16CD6F"/>
    </linearGradient>
    <linearGradient id="j" x1="38.587%" x2="64.842%" y1="29.388%" y2="76.719%">
      <stop offset="0%" stop-color="#FED8B9"/>
      <stop offset="100%" stop-color="#FDBD8A"/>
    </linearGradient>
    <linearGradient id="k" x1="42.219%" x2="133.576%" y1="38.314%" y2="109.755%">
      <stop offset="0%" stop-color="#58F17B"/>
      <stop offset="100%" stop-color="#16CD6F"/>
    </linearGradient>
    <linearGradient id="l" x1="-5.287%" x2="55.038%" y1="-16.279%" y2="55.858%">
      <stop offset="0%" stop-color="#FED8B9"/>
      <stop offset="100%" stop-color="#FDBD8A"/>
    </linearGradient>
    <linearGradient id="m" x1="0%" y1="50%" y2="50%">
      <stop offset="0%" stop-color="#C7C4FF"/>
      <stop offset="100%" stop-color="#B6B2FD"/>
    </linearGradient>
    <linearGradient id="n" x1="0%" y1="50%" y2="50%">
      <stop offset="0%" stop-color="#9C95FF"/>
      <stop offset="100%" stop-color="#766DE8"/>
    </linearGradient>
    <linearGradient id="o" x1="0%" y1="50%" y2="50%">
      <stop offset="0%" stop-color="#9C95FF"/>
      <stop offset="100%" stop-color="#766DE8"/>
    </linearGradient>
    <linearGradient id="p" x1="33.336%" x2="55.595%" y1="10.319%" y2="63.315%">
      <stop offset="0%" stop-color="#B0CFFF"/>
      <stop offset="100%" stop-color="#83B3FF"/>
    </linearGradient>
    <linearGradient id="q" x1="49.999%" x2="49.999%" y1="99.036%" y2="17.505%">
      <stop offset="0%" stop-color="#90BCFF"/>
      <stop offset="100%" stop-color="#B0CFFF"/>
    </linearGradient>
    <linearGradient id="r" x1="1.677%" x2="193.035%" y1="40.776%" y2="75.239%">
      <stop offset="0%" stop-color="#B0CFFF"/>
      <stop offset="100%" stop-color="#83B3FF"/>
    </linearGradient>
    <linearGradient id="s" x1="0%" y1="50%" y2="50%">
      <stop offset="0%" stop-color="#DAD8FF"/>
      <stop offset="100%" stop-color="#C1BDFD"/>
    </linearGradient>
    <linearGradient id="t" x1="0%" y1="50%" y2="50%">
      <stop offset="0%" stop-color="#B5B5FF"/>
      <stop offset="100%" stop-color="#9290F4"/>
    </linearGradient>
    <linearGradient id="u" x1="0%" y1="50%" y2="50%">
      <stop offset="0%" stop-color="#B5B5FF"/>
      <stop offset="100%" stop-color="#9290F4"/>
    </linearGradient>
    <linearGradient id="v" x1="16.043%" x2="47.049%" y1="31.982%" y2="58.755%">
      <stop offset="0%" stop-color="#9C95FF"/>
      <stop offset="100%" stop-color="#766DE8"/>
    </linearGradient>
    <linearGradient id="w" x1="50%" x2="50%" y1="100%" y2="0%">
      <stop offset="0%" stop-color="#16CD6F"/>
      <stop offset="100%" stop-color="#58F17B"/>
    </linearGradient>
    <linearGradient id="x" x1=".087%" x2="100.086%" y1="49.994%" y2="49.994%">
      <stop offset="0%" stop-color="#FED8B9"/>
      <stop offset="100%" stop-color="#FDBD8A"/>
    </linearGradient>
    <linearGradient id="y" x1="50.398%" x2="50.398%" y1="99.524%" y2=".881%">
      <stop offset="0%" stop-color="#FDBD8A"/>
      <stop offset="100%" stop-color="#FED8B9"/>
    </linearGradient>
    <linearGradient id="z" x1="-.022%" x2="99.954%" y1="50.017%" y2="50.017%">
      <stop offset="0%" stop-color="#2D3651"/>
      <stop offset="100%" stop-color="#545F7E"/>
    </linearGradient>
    <linearGradient id="A" x1="-12.69%" x2="83.261%" y1="27.776%" y2="56.251%">
      <stop offset="0%" stop-color="#FED8B9"/>
      <stop offset="100%" stop-color="#FDBD8A"/>
    </linearGradient>
    <linearGradient id="B" x1="83.485%" x2="20.432%" y1="34.699%" y2="63.498%">
      <stop offset="0%" stop-color="#FED8B9"/>
      <stop offset="100%" stop-color="#FDBD8A"/>
    </linearGradient>
    <linearGradient id="C" x1="0%" y1="49.991%" y2="49.991%">
      <stop offset="0%" stop-color="#BF5055"/>
      <stop offset="100%" stop-color="#EA6A4D"/>
    </linearGradient>
    <linearGradient id="D" x1="37.94%" x2="90.692%" y1="43.779%" y2="72.377%">
      <stop offset="0%" stop-color="#FED8B9"/>
      <stop offset="100%" stop-color="#FDBD8A"/>
    </linearGradient>
    <linearGradient id="E" x1="0%" y1="50%" y2="50%">
      <stop offset="0%" stop-color="#DAD8FF"/>
      <stop offset="100%" stop-color="#C1BDFD"/>
    </linearGradient>
    <linearGradient id="F" x1="0%" y1="50%" y2="50%">
      <stop offset="0%" stop-color="#B5B5FF"/>
      <stop offset="100%" stop-color="#9290F4"/>
    </linearGradient>
    <linearGradient id="G" x1="0%" y1="50%" y2="50%">
      <stop offset="0%" stop-color="#B5B5FF"/>
      <stop offset="100%" stop-color="#9290F4"/>
    </linearGradient>
    <linearGradient id="H" x1="3.851%" x2="107.886%" y1="50%" y2="50%">
      <stop offset="0%" stop-color="#5690FF"/>
      <stop offset="100%" stop-color="#387DFF"/>
    </linearGradient>
    <linearGradient id="I" x1="47.442%" x2="41.362%" y1="47.154%" y2="35.386%">
      <stop offset="0%" stop-color="#2D3651"/>
      <stop offset="100%" stop-color="#545F7E"/>
    </linearGradient>
    <linearGradient id="J" x1="50.561%" x2="44.722%" y1="51.094%" y2="35.072%">
      <stop offset="0%" stop-color="#2D3651"/>
      <stop offset="100%" stop-color="#545F7E"/>
    </linearGradient>
    <linearGradient id="K" x1="-2.65%" x2="52.462%" y1="21.381%" y2="52.95%">
      <stop offset="0%" stop-color="#FED8B9"/>
      <stop offset="100%" stop-color="#FDBD8A"/>
    </linearGradient>
    <linearGradient id="L" x1="35.115%" x2="53.319%" y1="17.751%" y2="58.416%">
      <stop offset="0%" stop-color="#FED8B9"/>
      <stop offset="100%" stop-color="#FDBD8A"/>
    </linearGradient>
    <linearGradient id="M" x1="-47.681%" x2="46.433%" y1="50%" y2="50%">
      <stop offset="0%" stop-color="#5690FF"/>
      <stop offset="100%" stop-color="#387DFF"/>
    </linearGradient>
    <linearGradient id="N" x1="4.179%" x2="59.29%" y1="25.293%" y2="56.861%">
      <stop offset="0%" stop-color="#FED8B9"/>
      <stop offset="100%" stop-color="#FDBD8A"/>
    </linearGradient>
    <linearGradient id="O" x1="16.187%" x2="71.298%" y1="32.371%" y2="63.585%">
      <stop offset="0%" stop-color="#FED8B9"/>
      <stop offset="100%" stop-color="#FDBD8A"/>
    </linearGradient>
    <linearGradient id="P" x1="52.104%" x2="49.984%" y1="5.353%" y2="99.652%">
      <stop offset="0%" stop-color="#5690FF"/>
      <stop offset="100%" stop-color="#387DFF"/>
    </linearGradient>
    <linearGradient id="Q" x1="28.882%" x2="61.425%" y1="-2.028%" y2="73.954%">
      <stop offset="0%" stop-color="#51DAFF"/>
      <stop offset="100%" stop-color="#49BAFF"/>
    </linearGradient>
    <linearGradient id="R" x1="0%" y1="50%" y2="50%">
      <stop offset="0%" stop-color="#FED8B9"/>
      <stop offset="100%" stop-color="#FDBD8A"/>
    </linearGradient>
    <linearGradient id="S" x1="30.562%" x2="84.675%" y1="17.511%" y2="134.512%">
      <stop offset="0%" stop-color="#51DAFF"/>
      <stop offset="100%" stop-color="#49BAFF"/>
    </linearGradient>
    <linearGradient id="T" x1="41.833%" x2="54.687%" y1="7.035%" y2="72.716%">
      <stop offset="0%" stop-color="#FED8B9"/>
      <stop offset="100%" stop-color="#FDBD8A"/>
    </linearGradient>
    <linearGradient id="U" x1="12.38%" x2="40.081%" y1="8.618%" y2="39.089%">
      <stop offset="0%" stop-color="#FED8B9"/>
      <stop offset="100%" stop-color="#FDBD8A"/>
    </linearGradient>
    <linearGradient id="V" x1="33.715%" x2="164.682%" y1="21.538%" y2="224.408%">
      <stop offset="0%" stop-color="#E05C68"/>
      <stop offset="100%" stop-color="#F88F57"/>
    </linearGradient>
    <linearGradient id="W" x1="16.398%" x2="140.031%" y1="-30.996%" y2="168.402%">
      <stop offset="0%" stop-color="#FED8B9"/>
      <stop offset="100%" stop-color="#FDBD8A"/>
    </linearGradient>
    <linearGradient id="X" x1="15.145%" x2="72.475%" y1="-7.669%" y2="110.506%">
      <stop offset="0%" stop-color="#E05C68"/>
      <stop offset="100%" stop-color="#F88F57"/>
    </linearGradient>
    <linearGradient id="Y" x1="73.65%" x2="27.951%" y1="-28.842%" y2="125.055%">
      <stop offset="0%" stop-color="#FED8B9"/>
      <stop offset="100%" stop-color="#FDBD8A"/>
    </linearGradient>
    <linearGradient id="Z" x1="50%" x2="50%" y1="100%" y2="0%">
      <stop offset="0%" stop-color="#16CD6F"/>
      <stop offset="100%" stop-color="#58F17B"/>
    </linearGradient>
  </defs>
  <g fill="none" fill-rule="evenodd">
    <path fill="#EEF5FF" d="M82.759 370.566c75.181 22.576 166.702-3.07 241.972 7.898 142.426 20.755 199.369-7.898 225.428-48.206 46.71-72.25 32.855-203.65-98.998-246.885-131.853-43.235-327.276 12.394-405.918 89.739C-33.4 250.457-2.223 345.047 82.759 370.566z"/>
    <g fill-rule="nonzero" transform="translate(10.925)">
      <path fill="#FDBD8A" d="M211.805 56.344l4.23-27.288 14.618 2.266-4.23 27.288z"/>
      <path fill="#FDA674" d="M219.132 39.862c-.197 1.341-.118 2.643.237 3.826.947 3.235 3.708 5.839 7.258 6.39.355.04.75.08 1.105.12l.789-5.642c3.629-.118 3.905-3.51 5.443-6.785-.473-3.471-.078-4.181-3.51-5.167a4.995 4.995 0 0 0-1.105-.237c-4.891-.75-9.467 2.603-10.217 7.495z"/>
      <path fill="url(#a)" d="M225.68 33.156l5.878.907c3.393.513 6.549-1.814 7.1-5.168l.908-5.877-12.031-1.854-1.855 11.992z"/>
      <path fill="url(#b)" d="M218.067 24.832l-1.933 12.387a6.635 6.635 0 0 0 3.156 6.745c.71.434 1.499.75 2.406.829l3.708.552a9.986 9.986 0 0 0 1.5.119c3.037-.119 5.759-1.894 7.06-4.616.316-.67.553-1.46.71-2.209l1.815-11.598c.67-4.22-2.248-8.165-6.43-8.836l-2.367-.355c-4.694-.71-8.954 2.406-9.625 6.982z"/>
      <path fill="url(#c)" d="M194.477 96.351l43.906 6.825 2.761-16.213a78.35 78.35 0 0 0 .868-26.943c-1.065-7.535-6.588-11.243-13.886-12.466-.552 4.97-6.745 5.207-10.572 2.012l-4.102-3.984-5.247.118c-8.166.237-14.477 7.259-13.846 15.424l.118 35.227z"/>
      <path fill="url(#d)" d="M239.172 12.367l-12.94-2.012c-3.155-.513-6.153 1.262-7.376 4.063-2.485.868-4.379 2.998-4.813 5.76l-.828 5.286c-.631 3.984 2.09 7.731 6.075 8.323l.828-5.286a7.293 7.293 0 0 0 8.284-6.075c.08-.513.119-1.026.08-1.538 3.313.118 6.469 1.577 8.678 4.142 3.51.512 6.785-1.854 7.337-5.365.592-3.472-1.815-6.746-5.325-7.298z"/>
      <path fill="url(#e)" d="M323.55 333.471h-12.347L301.42 291.5H245.918l-9.784 41.972h-12.347a3.392 3.392 0 1 0 0 6.785h99.764c1.893 0 3.431-1.538 3.392-3.392a3.392 3.392 0 0 0-3.393-3.393z"/>
      <path fill="url(#f)" d="M427.692 297.535H119.645c-8.245 0-14.911-6.667-14.911-14.912V80.848c0-8.244 6.666-14.911 14.911-14.911h308.047c8.245 0 14.912 6.667 14.912 14.911v201.815c0 8.205-6.667 14.872-14.912 14.872z"/>
      <path fill="#FFF" d="M422.327 253.037H125.05c-3.984 0-7.258-3.234-7.258-7.258V87.396c0-3.984 3.235-7.258 7.258-7.258h297.278c3.985 0 7.259 3.235 7.259 7.258V245.82c0 3.984-3.274 7.218-7.259 7.218z"/>
      <path fill="#CCDEFF" d="M442.604 267.2h-337.83v23.944c0 3.984 3.234 7.258 7.258 7.258h323.353c3.984 0 7.258-3.234 7.258-7.258l-.04-23.945z"/>
      <circle cx="274.675" cy="282.229" r="8.797" fill="#FFF"/>
      <path fill="#CFE0FF" d="M117.791 94.892h49.034v158.146h-49.034z"/>
      <path fill="#EEF5FF" d="M117.791 94.892h311.755v31.953H117.791z"/>
      <path fill="#FFF" d="M422.327 80.138H125.05c-3.984 0-7.258 3.235-7.258 7.258v7.496h311.795v-7.496c0-4.023-3.274-7.258-7.259-7.258z"/>
      <path fill="#FDBD8A" d="M244.852 87.08c4.182-.867 6.864-4.97 5.957-9.151l-3.748-17.751c-.868-4.182-4.97-6.864-9.152-5.957-4.181.868-6.864 4.97-5.956 9.152l3.747 17.751c.868 4.142 4.97 6.825 9.152 5.957z"/>
      <path fill="url(#g)" d="M541.665 46.56a14.95 14.95 0 0 0-9.98 3.827C527.74 43.049 519.967 38 511.013 38c-9.27 0-17.278 5.365-21.105 13.176-1.775-1.026-3.787-1.657-6.035-1.657-6.549 0-11.874 5.325-11.874 11.874h84.576c.04-8.166-6.667-14.833-14.911-14.833z"/>
      <path fill="url(#h)" d="M124.274 29.984C124.274 16.77 113.544 6 100.29 6c-10.02 0-18.62 6.154-22.21 14.911-.71-.118-1.498-.158-2.248-.158A16.52 16.52 0 0 0 61 29.945h63.274v.04z"/>
      <path fill="url(#i)" d="M232.584 48.738c10.927 2.445 14.911 7.1 17.83 14.714 2.92 7.613 3.038 8.402 3.038 8.402l-21.302-.316-2.012-14.674 2.446-8.126z"/>
      <path fill="url(#j)" d="M189.112 92.485c4.142.829 8.166-1.893 8.955-6.035l.71-3.55 3.432-17.673 1.5-7.692c.788-3.906-1.618-7.732-5.405-8.797-.197-.04-.395-.119-.631-.158a4.548 4.548 0 0 0-1.026-.118h-.631c-.552 0-1.105.078-1.657.236-2.8.67-5.089 2.959-5.68 5.957l-2.13 10.966-3.512 17.988c-.749 4.064 1.933 8.087 6.075 8.876z"/>
      <path fill="url(#k)" d="M208.52 45.74c-9.348.157-15.818 1.775-20.197 7.06-1.065 1.303-1.893 2.802-2.366 4.419l-4.182 13.846 19.487 3.195 3.472-17.396 3.787-11.124z"/>
      <path fill="url(#l)" d="M198.462 108.698l-.198.08a7.241 7.241 0 0 1-8.875-4.3l-6.036-17.003c-1.538-3.866.868-5.68 4.813-6.982a7.2 7.2 0 0 1 8.994 4.142l5.877 14.399c1.657 3.944-.473 8.441-4.575 9.664z"/>
      <path fill="#FDBD8A" d="M260.473 93.116c2.643-3.353 2.012-8.205-1.34-10.848l-10.612-8.244c-3.353-2.643-8.205-2.012-10.848 1.34-2.643 3.354-2.012 8.206 1.34 10.849l10.573 8.245c3.392 2.643 8.244 2.011 10.887-1.342z"/>
      <path fill="#B9CFFF" d="M157.712 142.387h-32.505a2.601 2.601 0 0 1-2.603-2.604 2.601 2.601 0 0 1 2.603-2.604h32.505a2.601 2.601 0 0 1 2.604 2.604c.039 1.46-1.144 2.604-2.604 2.604zm0 13.215h-32.505a2.601 2.601 0 0 1-2.603-2.604 2.601 2.601 0 0 1 2.603-2.604h32.505a2.601 2.601 0 0 1 2.604 2.604c.039 1.42-1.144 2.604-2.604 2.604zm0 13.215h-32.505a2.601 2.601 0 0 1-2.603-2.604 2.601 2.601 0 0 1 2.603-2.604h32.505a2.601 2.601 0 0 1 2.604 2.604c.039 1.42-1.144 2.604-2.604 2.604zm0 13.175h-32.505a2.601 2.601 0 0 1-2.603-2.603 2.601 2.601 0 0 1 2.603-2.604h32.505a2.601 2.601 0 0 1 2.604 2.604c.039 1.46-1.144 2.603-2.604 2.603zm0 13.215h-32.505a2.601 2.601 0 0 1-2.603-2.603 2.601 2.601 0 0 1 2.603-2.604h32.505a2.601 2.601 0 0 1 2.604 2.604c.039 1.42-1.144 2.603-2.604 2.603zm-6.47-90.69h-22.248a6.347 6.347 0 0 0-6.351 6.35c0 3.512 2.84 6.352 6.351 6.352h22.249c3.51 0 6.35-2.84 6.35-6.351s-2.84-6.351-6.35-6.351zm265.326 2.288h-39.093a4.057 4.057 0 0 0-4.063 4.063 4.057 4.057 0 0 0 4.063 4.063h39.093a4.057 4.057 0 0 0 4.063-4.063c.04-2.249-1.814-4.063-4.063-4.063z"/>
      <path fill="#EEF5FF" d="M330.572 229.527H182.406a4.394 4.394 0 0 1-4.378-4.38 4.394 4.394 0 0 1 4.378-4.378h148.166a4.394 4.394 0 0 1 4.379 4.379 4.369 4.369 0 0 1-4.379 4.379zm0 15.937H182.406a4.394 4.394 0 0 1-4.378-4.38 4.394 4.394 0 0 1 4.378-4.378h148.166a4.394 4.394 0 0 1 4.379 4.379 4.394 4.394 0 0 1-4.379 4.379z"/>
      <path fill="#CEE0FF" d="M328.363 161.953c1.38 4.773-1.42 9.783-6.193 11.163l-46.154 13.215-49.902 14.28-32.11 9.192a8.807 8.807 0 0 1-5.878-.316 8.965 8.965 0 0 1-5.286-5.878l-21.775-76.094c-1.38-4.813 1.42-9.783 6.193-11.164l128.206-36.686c4.773-1.381 9.783 1.38 11.163 6.193l15.345 53.61 6.39 22.485z"/>
      <path fill="#766DE8" d="M322.21 173.116l-128.246 36.726c-4.773 1.38-9.743-1.38-11.124-6.154l-21.814-76.173c-1.381-4.773 1.38-9.744 6.153-11.124l128.285-36.726c4.773-1.381 9.743 1.38 11.124 6.154l21.814 76.173c1.342 4.773-1.42 9.744-6.193 11.124z"/>
      <circle cx="197.16" cy="135.128" r="10.651" fill="url(#m)"/>
      <path fill="url(#n)" d="M276.016 186.331l-49.902 14.28-32.11 9.192a8.807 8.807 0 0 1-5.878-.316l22.288-43.866c3.748-7.376 14.556-10.453 21.618-6.114l11.44 6.982 32.544 19.842z"/>
      <path fill="url(#o)" d="M328.363 161.953c1.38 4.773-1.42 9.783-6.193 11.163l-46.154 13.215-49.902 14.28 17.357-34.122 21.578-42.406c3.748-7.377 14.557-10.454 21.618-6.115l35.266 21.539 6.43 22.446z"/>
      <path fill="url(#p)" d="M138.856 340.375H80.789c-5.838 0-10.572-4.734-10.572-10.572V191.499c0-5.838 4.734-10.572 10.572-10.572h58.067c5.838 0 10.572 4.734 10.572 10.572v138.304c0 5.838-4.734 10.572-10.572 10.572z"/>
      <path fill="#FFF" d="M137.87 335.917H81.775c-4.024 0-7.298-3.235-7.298-7.258v-135.7c0-3.985 3.235-7.259 7.298-7.259h56.134c4.024 0 7.298 3.235 7.298 7.259v135.74c-.04 3.983-3.274 7.218-7.337 7.218z"/>
      <path fill="url(#q)" d="M480.947 341.124H351.164a10.842 10.842 0 0 1-10.848-10.848V137.692a10.842 10.842 0 0 1 10.848-10.848h129.783a10.842 10.842 0 0 1 10.848 10.848v192.584a10.842 10.842 0 0 1-10.848 10.848z"/>
      <path fill="#FFF" d="M476.331 330.473H355.897c-3.984 0-7.258-3.234-7.258-7.258V171.972h134.912v151.243c.039 4.024-3.235 7.258-7.22 7.258z"/>
      <path fill="#EEF5FF" d="M474.083 250.829h-81.538a4.394 4.394 0 0 1-4.379-4.379 4.394 4.394 0 0 1 4.379-4.379h81.538a4.394 4.394 0 0 1 4.379 4.379 4.369 4.369 0 0 1-4.379 4.379zm0 15.897h-81.538a4.394 4.394 0 0 1-4.379-4.379 4.394 4.394 0 0 1 4.379-4.378h81.538a4.394 4.394 0 0 1 4.379 4.378 4.369 4.369 0 0 1-4.379 4.38zM137.673 309.37H82.091a3.788 3.788 0 0 1 0-7.574h55.582a3.788 3.788 0 0 1 0 7.574zm0 13.806H82.091a3.788 3.788 0 0 1 0-7.574h55.582a3.788 3.788 0 0 1 0 7.574z"/>
      <path fill="#FFF" d="M137.988 185.542H81.736c-3.985 0-7.259 3.235-7.259 7.259v7.495h70.73V192.8c0-4.024-3.235-7.259-7.219-7.259z"/>
      <path fill="url(#r)" d="M124.931 191.223h-30.06a4.142 4.142 0 0 1-4.141-4.142v-1.696h38.343v1.696a4.142 4.142 0 0 1-4.142 4.142z"/>
      <g fill="#FDBD8A">
        <path d="M209.901 103.728l1.5-.474a2.646 2.646 0 0 0-1.578-5.05l-1.5.475a2.646 2.646 0 0 0-1.735 3.313c.473 1.38 1.933 2.17 3.313 1.736z"/>
        <path d="M209.112 104.043a2.815 2.815 0 0 1-2.682-1.972 2.822 2.822 0 0 1 1.854-3.55l1.499-.474a2.822 2.822 0 0 1 3.55 1.854 2.822 2.822 0 0 1-1.854 3.55l-1.499.474a3.518 3.518 0 0 1-.868.118zm1.5-5.759c-.237 0-.514.04-.75.118l-1.5.474c-1.301.394-2.011 1.775-1.617 3.077.434 1.301 1.815 2.012 3.077 1.617l1.5-.473c1.301-.395 2.011-1.775 1.617-3.077-.316-1.105-1.263-1.736-2.328-1.736z"/>
      </g>
      <path fill="#FDBD8A" d="M208.323 99.665c-4.378-4.418-15.7 1.893-15.7 1.893m13.255 2.446c.946 3.235 3.195 5.917 4.852 4.34 1.657-1.579-1.263-9.981-5.207-10.573-3.077-.473-4.537 2.801-4.852 7.022l5.207-.79z"/>
      <path fill="#FDBD8A" d="M197.475 107.041c.355-4.181 1.854-7.219 4.931-6.706 3.945.631 6.47 8.679 4.813 10.217-1.657 1.578-3.314-.828-4.458-3.984-.355-.947-.591-.986-.591-.986l-4.695 1.46zm61.46-16.765c.355-4.181 1.854-7.219 4.93-6.706 3.946.631 6.115 7.574 4.38 9.073-1.263 1.065-2.88.355-4.024-2.8-.355-.948-.592-.987-.592-.987l-4.694 1.42z"/>
      <path fill="#FDBD8A" d="M193.254 108.383c.355-4.182 1.854-7.22 4.931-6.706 3.945.63 6.115 7.573 4.38 9.073-1.263 1.065-2.88.355-4.025-2.801-.355-.947-.591-.986-.591-.986l-4.695 1.42z"/>
      <path fill="#F99564" d="M206.154 111.183c-.118 0-.237 0-.316-.039-1.499-.355-2.643-2.998-3.234-4.576l.355-.118c.907 2.524 2.011 4.102 2.958 4.339.395.079.79-.04 1.184-.434.591-.552.63-2.248.039-4.181-.789-2.604-2.564-5.365-4.734-5.72l.04-.355c2.327.355 4.22 3.274 5.01 5.956.512 1.696.75 3.748-.119 4.576-.394.395-.789.552-1.183.552z"/>
      <path fill="#F99564" d="M201.42 111.341c-.158 0-.315 0-.434-.079-1.025-.276-1.933-1.42-2.603-3.313l.355-.119c.63 1.776 1.46 2.88 2.367 3.117.473.118.946 0 1.38-.355.631-.553.71-1.973.237-3.63-.631-2.287-2.288-4.773-4.537-5.128l.04-.355c2.367.395 4.142 2.959 4.812 5.365.513 1.854.395 3.393-.355 4.024-.394.315-.828.473-1.262.473z"/>
      <path fill="#FDBD8A" d="M261.42 89.803c.947 3.234 3.195 5.917 4.852 4.339 1.657-1.578-1.302-9.98-5.207-10.611-3.077-.474-4.734 2.13-5.089 6.311l5.444-.04z"/>
      <path fill="#FDBD8A" d="M252.347 91.775c.355-4.181 1.854-7.219 4.931-6.706 3.945.631 6.47 8.679 4.813 10.217-1.657 1.538-3.314-.828-4.458-3.984-.355-.947-.592-.986-.592-.986l-4.694 1.46z"/>
      <path fill="#FDBD8A" d="M251.755 92.051l1.5-.473a2.646 2.646 0 0 0-1.578-5.05l-1.5.474a2.646 2.646 0 0 0-1.735 3.314c.473 1.42 1.933 2.17 3.313 1.735z"/>
      <g fill="#F99564">
        <path d="M265.207 94.773h-.237c-.907-.118-1.893-.986-2.682-2.406l.316-.197c.75 1.302 1.656 2.09 2.445 2.209.395.04.79-.079 1.105-.395.552-.552.552-2.13-.04-4.063-.867-2.761-2.76-6.035-5.049-6.39l1.065.236c1.5.316 3.472 3.235 4.34 6.075.512 1.657.749 3.67-.04 4.458-.395.316-.789.473-1.223.473z"/>
        <path d="M261.026 95.957c-.119 0-.237 0-.355-.04-1.5-.355-2.643-2.998-3.235-4.536-.276-.75-.473-.868-.473-.868l.078-.355c.119.04.395.197.75 1.105.907 2.524 1.972 4.063 2.959 4.3.394.118.788-.04 1.222-.395.592-.552.632-2.249.04-4.182-.79-2.603-2.564-5.364-4.734-5.72l.04-.355c2.327.355 4.22 3.275 5.01 5.957.512 1.696.749 3.748-.119 4.576-.394.316-.789.513-1.183.513z"/>
        <path d="M253.767 91.657l-.118-.355 1.499-.473c1.302-.395 2.012-1.776 1.617-3.077-.394-1.302-1.775-2.012-3.077-1.618l-1.499.474-.118-.355 1.499-.474a2.822 2.822 0 0 1 3.55 1.854 2.822 2.822 0 0 1-1.854 3.55l-1.499.474z"/>
      </g>
      <path fill="#CFE0FF" d="M355.897 330.473h28.206V149.645h-35.425v173.57c-.039 4.024 3.235 7.258 7.22 7.258z"/>
      <path fill="#EEF5FF" d="M348.481 146.529h135.108v25.562H348.481z"/>
      <path fill="#B9CFFF" d="M378.698 183.886h-24.576c-1.104 0-1.972-.947-1.972-2.13 0-1.184.868-2.13 1.972-2.13h24.576c1.105 0 1.973.946 1.973 2.13 0 1.183-.868 2.13-1.973 2.13zm0 10.769h-24.576c-1.104 0-1.972-.947-1.972-2.13 0-1.184.868-2.13 1.972-2.13h24.576c1.105 0 1.973.946 1.973 2.13 0 1.183-.868 2.13-1.973 2.13zm0 10.73h-24.576c-1.104 0-1.972-.947-1.972-2.13 0-1.184.868-2.13 1.972-2.13h24.576c1.105 0 1.973.946 1.973 2.13 0 1.183-.868 2.13-1.973 2.13zm0 10.769h-24.576c-1.104 0-1.972-.947-1.972-2.13 0-1.184.868-2.13 1.972-2.13h24.576c1.105 0 1.973.946 1.973 2.13 0 1.144-.868 2.13-1.973 2.13zm0 10.73h-24.576c-1.104 0-1.972-.947-1.972-2.13 0-1.184.868-2.13 1.972-2.13h24.576c1.105 0 1.973.946 1.973 2.13 0 1.183-.868 2.13-1.973 2.13zm-.079-73.136h-19.566a5.556 5.556 0 0 0-5.562 5.562 5.556 5.556 0 0 0 5.562 5.562h19.566a5.556 5.556 0 0 0 5.562-5.562c0-3.038-2.485-5.562-5.562-5.562zm95.03 1.854h-21.933a3.704 3.704 0 0 0-3.708 3.708 3.704 3.704 0 0 0 3.708 3.708h21.933a3.704 3.704 0 0 0 3.708-3.708 3.704 3.704 0 0 0-3.708-3.708z"/>
      <path fill="#FFF" d="M476.37 134.892H355.78c-3.985 0-7.26 3.234-7.26 7.258v4.615h135.11v-4.615c0-3.984-3.275-7.258-7.26-7.258z"/>
      <circle cx="128.481" cy="88.304" r="3.629" fill="#F37C6A"/>
      <circle cx="140.75" cy="88.304" r="3.629" fill="#F7CF06"/>
      <circle cx="153.057" cy="88.304" r="3.629" fill="#4FDC6F"/>
      <circle cx="356.844" cy="141.085" r="2.367" fill="#F37C6A"/>
      <circle cx="364.892" cy="141.085" r="2.367" fill="#F7CF06"/>
      <circle cx="372.939" cy="141.085" r="2.367" fill="#4FDC6F"/>
      <path fill="#CFE0FF" d="M74.517 223.728h70.73v23.511h-70.73z"/>
      <path fill="#EEF5FF" d="M74.517 200.217h70.73v23.511h-70.73z"/>
      <path fill="#9290F4" d="M478.185 229.527c0 2.958-2.366 5.325-5.325 5.365l-28.402.078-30.69.08-19.764.039c-1.223 0-2.367-.434-3.274-1.105a5.27 5.27 0 0 1-2.051-4.181l-.119-46.825c0-2.958 2.367-5.325 5.326-5.365l78.895-.197c2.959 0 5.326 2.367 5.365 5.326l.079 33.017-.04 13.768z"/>
      <circle cx="407.811" cy="193.077" r="6.312" fill="url(#s)"/>
      <path fill="url(#t)" d="M444.418 234.931l-30.69.079-19.764.04c-1.222 0-2.366-.435-3.274-1.105l19.764-21.341c3.313-3.59 9.98-3.59 13.294 0l5.364 5.798 15.306 16.529z"/>
      <path fill="url(#u)" d="M478.185 229.527c0 2.958-2.366 5.325-5.325 5.365l-28.402.078-30.69.08 15.384-16.608 19.132-20.67c3.314-3.59 9.98-3.59 13.294 0l16.607 17.948v13.807z"/>
      <path fill="#B9CFFF" d="M124.931 231.657h-30.06a3.805 3.805 0 0 0-3.826 3.826 3.805 3.805 0 0 0 3.827 3.827h30.059a3.805 3.805 0 0 0 3.826-3.827 3.83 3.83 0 0 0-3.826-3.826zm-3.038-26.549H97.87a6.869 6.869 0 0 0-6.864 6.864 6.869 6.869 0 0 0 6.864 6.864h24.023a6.869 6.869 0 0 0 6.864-6.864 6.844 6.844 0 0 0-6.864-6.864z"/>
      <path fill="#363F5A" d="M449.191 176.39l-16.331-3.629-1.144 5.247a5.308 5.308 0 0 0 4.063 6.351l11.124 2.446 2.288-10.414z"/>
      <path fill="#545F7E" d="M446.819 186.861l2.317-10.477 16.331 3.613-2.317 10.477z"/>
      <path fill="#7683A8" d="M462.978 190.447l2.317-10.476 16.331 3.613-2.317 10.476z"/>
      <path fill="#C1C9DF" d="M474.916 192.606l3.12-10.266 16.005 4.864-3.12 10.266z"/>
      <path fill="#DDE3F0" d="M510.06 192.09l-15.977-4.89-3.117 10.256 10.888 3.274c2.84.868 5.799-.71 6.667-3.59l1.538-5.05z"/>
      <path fill="#0051E0" d="M451.48 165.897l-11.125-2.445a5.308 5.308 0 0 0-6.351 4.063l-1.144 5.246 16.331 3.63 2.288-10.494z"/>
      <path fill="#377DFF" d="M449.159 176.382l2.317-10.477 16.331 3.613-2.317 10.477z"/>
      <path fill="#5590FF" d="M465.283 179.954l2.317-10.477 16.331 3.613-2.317 10.477z"/>
      <path fill="#B9CEFF" d="M481.658 183.589l2.317-10.477 16.331 3.613-2.317 10.477z"/>
      <path fill="#CEE0FF" d="M511.36 179.152l-11.123-2.446-2.288 10.493 16.331 3.63 1.144-5.247a5.339 5.339 0 0 0-4.063-6.43z"/>
      <path fill="#4FCEFF" d="M445.01 190.513h-16.726v-5.365a5.328 5.328 0 0 1 5.325-5.326h11.361v10.69h.04z"/>
      <path fill="#F37C6A" d="M445.01 179.744h16.726v10.73H445.01z"/>
      <path fill="#F7CF06" d="M461.578 179.744h16.726v10.73h-16.726z"/>
      <path fill="#4FDC6F" d="M478.304 179.744h16.726v10.73h-16.726z"/>
      <path fill="#766DE8" d="M511.716 190.513H494.99v-10.73h11.361a5.328 5.328 0 0 1 5.326 5.325v5.405h.039z"/>
      <path fill="#EDEFF6" d="M445.01 201.243h-11.361a5.328 5.328 0 0 1-5.326-5.326v-5.365h16.726v10.69h-.04z"/>
      <path fill="#C1C9E0" d="M445.01 190.513h16.726v10.73H445.01z"/>
      <path fill="#7683A8" d="M461.578 190.513h16.726v10.73h-16.726z"/>
      <path fill="#545F7E" d="M478.304 190.513h16.726v10.73h-16.726z"/>
      <path fill="#363F5A" d="M506.351 201.243h-11.36v-10.73h16.725v5.365a5.345 5.345 0 0 1-5.365 5.365z"/>
      <g transform="translate(440.237 318.876)">
        <path fill="#766DE8" d="M23.156 20.237l3.116-4.892 2.13-3.353-11.084-7.456-7.022-1.656L3.037.276C2.485.08 1.893.197 1.42.552c-.079.04-.118.08-.197.158-.592.67-.513 1.696.158 2.327l20.868 18.66.907-1.46z"/>
        <path fill="#B9CEFF" d="M.355.473C.828-.079 1.657-.157 2.17.355l21.538 19.29-1.42 2.248L.394 2.327C-.079 1.854-.158 1.026.355.473z"/>
        <path fill="#FFF" d="M12.268 5.404l-.907-2.09c-.316-.71-.986-1.144-1.815-1.065l-.079-.75c1.105-.079 2.13.513 2.525 1.538l.907 2.091-.63.276z"/>
        <path fill="#FFF" d="M14.596 6.154l-.908-2.09c-.315-.71-.986-1.145-1.814-1.066l-.08-.75c1.105-.078 2.131.513 2.526 1.539l.907 2.09-.631.277zm2.485.631l-.907-2.09c-.316-.71-.987-1.145-1.815-1.066l-.079-.75c1.105-.078 2.13.514 2.525 1.54l.907 2.09-.631.276z"/>
        <circle cx="21.105" cy="12.032" r="2.051" fill="#FFF"/>
      </g>
      <path fill="url(#v)" d="M548.52 269.172l-12.307-27.495v-.277c0-10.177-8.245-18.382-18.383-18.382-9.901-.04-18.027 7.929-18.382 17.79l-40.592 83.472 8.876 7.969 50.453-78.856 16.568 29.9c.79 3.393 4.3 5.8 8.008 4.735l39.764-11.243.355-14.004-34.36 6.39z"/>
      <g transform="translate(579.882 259.704)">
        <path fill="#766DE8" d="M9.665.71l-1.5.237A30.67 30.67 0 0 0 .08 3.51L2.09 16.726l3.55 6.311 2.998 7.101c.237.552.71.868 1.302.986.079.04.158.04.237.04.867 0 1.617-.75 1.617-1.657L11.44.394 9.665.71z"/>
        <path fill="#B9CEFF" d="M10.572 31.992c-.71.04-1.341-.552-1.341-1.262L8.876.67l2.603-.473.395 30.493c0 .75-.592 1.302-1.302 1.302z"/>
        <path fill="#FFF" d="M5.128 24.615c-.828-.789-1.065-1.893-.592-2.919l.947-2.09.67.315-.946 2.09c-.315.71-.158 1.5.434 2.052l-.513.552z"/>
        <path fill="#FFF" d="M4.063 22.367c-.828-.79-1.065-1.894-.592-2.92l.947-2.09.67.316-.946 2.09c-.316.71-.158 1.5.434 2.052l-.513.552zM2.88 20.079c-.829-.79-1.065-1.894-.592-2.92l.947-2.09.67.316-.946 2.09c-.316.71-.158 1.5.434 2.052l-.513.552z"/>
        <circle cx="5.049" cy="8.915" r="2.051" fill="#FFF"/>
      </g>
      <path fill="#FDBD8A" d="M518.146 179.744l1.302-.316 6.548 16.529H514.28l-2.722-6.904-2.682-6.824z"/>
      <path fill="#FDA674" d="M518.146 179.744c-.395 4.102-2.959 7.613-6.627 9.31l-2.683-6.825 9.31-2.485z"/>
      <path fill="url(#w)" d="M502.682 211.972l1.105 4.774c.67 2.958.631 5.483 2.959 7.179l-.237 2.92h22.446s2.05-6.628 2.485-17.87c.394-11.243-5.05-16.332-8.245-20.237l-10.808 5.286-5.839 5.956c-3.392 2.998-4.852 7.574-3.866 11.992z"/>
      <path fill="url(#x)" d="M521.46 160.178h-12.82c-4.222 0-7.614 3.431-7.575 7.692l-1.026 9.665c.395 5.522 5.326 9.664 10.849 9.072a11.842 11.842 0 0 0 10.572-11.794v-14.635z"/>
      <path fill="url(#y)" d="M500.394 176.233l-.867-.592a1.789 1.789 0 0 1 0-2.92l1.538-.59-.67 4.102z"/>
      <path fill="url(#z)" d="M532.9 193.353c2.919.631 5.917.158 8.796-.75 2.88-.907 5.641-2.287 7.89-4.457 3.984-3.748 6.035-9.783 5.522-15.582-.236-2.446-.986-4.97-2.524-6.706-2.959-3.235-8.284-2.564-10.967.947-2.327 3.037-2.722 4.812-4.93 7.968-1.736 2.446-4.537 3.906-7.298 3.787-1.223-.04-2.486-.394-3.511-1.144.118-.315.236-.631.315-.907.237-.829.395-1.815.474-2.525 0-.079 0-.158.04-.236.039-.277.039-.513.078-.79v-.197c.355-6.154-3.156-12.07-8.915-14.635.197.08.394.119.552.197 3.63 1.342 6.627 3.985 8.205 7.259 1.618 3.432 1.618 7.574-.04 10.809-.039.118 0 .236.08.276.04 0 .079.04.079.04.078 0 .157-.04.197-.12 1.696-3.352 1.736-7.652.04-11.163-1.618-3.392-4.695-6.114-8.443-7.456-2.248-.828-4.694-1.144-7.18-1.025h-.039c-1.38.079-2.76.315-4.102.67a3.46 3.46 0 0 0-1.302.71c-1.42.71-2.643 1.618-3.59 2.801a6.116 6.116 0 0 0-.157 7.693c3.234 4.26 10.177 5.996 15.937 6.193-.04 1.499.118 3.235.788 4.891-.039.04-.039.08-.039.119.592 6.35 4.97 12.229 10.927 14.635a17.444 17.444 0 0 0 6.351 1.183c4.26 0 8.481-1.499 11.637-4.3a.19.19 0 0 0 0-.276.19.19 0 0 0-.276 0c-4.655 4.142-11.716 5.365-17.554 3.038-5.523-2.21-9.665-7.495-10.533-13.373.237.473.553.907.868 1.341l-.118.237c2.09 6.272 6.864 9.665 12.741 10.848z"/>
      <path fill="url(#A)" d="M507.535 219.112l-15.227-21.301c-.553-3.196-3.353-5.641-6.706-5.641h-9.073a1.978 1.978 0 0 0-1.973 1.972c0 1.065.868 1.972 1.973 1.972h4.891v1.026h-10.966a1.978 1.978 0 0 0-1.973 1.972c0 .987.71 1.815 1.697 1.933v.04c0 1.065.867 1.972 1.972 1.972h6.272l17.475 24.418c2.328 3.235 6.785 3.945 10.02 1.657 3.195-2.327 3.905-6.785 1.618-10.02z"/>
      <path fill="#FDBD8A" d="M53.057 258.521l-2.288 3.353-1.302 1.893-5.049 7.416-9.783-6.469 6.903-10.296 1.144-1.736 2.643 1.499z"/>
      <path fill="#FDA674" d="M61.538 251.893c-1.656 3.55-2.05 8.363-6.035 8.482l-.197 1.262a9.974 9.974 0 0 1-3.077.355c-.513 0-1.026-.04-1.5-.118l-1.301 1.893a10.112 10.112 0 0 1-3.116-3.471 10.449 10.449 0 0 1-.79-1.933c-.394-1.341-.473-2.722-.275-4.182.118-.67.276-1.262.473-1.854a9.48 9.48 0 0 1 1.065-2.09 10.338 10.338 0 0 1 1.972-2.17c.198-.158.355-.276.553-.434.434-.276.868-.552 1.34-.789.593-.315 1.263-.513 1.894-.71a9.86 9.86 0 0 1 1.144-.197 9.015 9.015 0 0 1 2.722.04c.395.078.79.157 1.184.275 3.905 1.066 3.432 1.855 3.944 5.641z"/>
      <path fill="url(#B)" d="M64.181 245.266v.158l-.157 5.089a11.584 11.584 0 0 1-8.718 11.085 9.974 9.974 0 0 1-3.077.355c-.513 0-1.026-.04-1.5-.119a11.89 11.89 0 0 1-4.378-1.578 11.663 11.663 0 0 1-4.852-5.877c-.355-.908-.552-1.854-.67-2.84-.04-.434-.08-.908-.08-1.342l.158-5.089a11.63 11.63 0 0 1 5.839-9.9c.118-.08.276-.159.394-.238a10.884 10.884 0 0 1 3.353-1.144c.118 0 .197-.039.316-.039l1.065-.118c.276 0 .552-.04.789 0 .71 0 1.42.079 2.09.197 1.144.237 2.249.631 3.235 1.144 1.065.552 2.012 1.302 2.84 2.13a12.12 12.12 0 0 1 2.565 3.984c.512 1.302.788 2.722.788 4.142z"/>
      <path fill="url(#C)" d="M70.099 229.842c.04-.355.079-.71.079-1.065 0-4.142-3.393-7.534-7.535-7.534a7.512 7.512 0 0 0-7.416 6.272 4.026 4.026 0 0 0-2.525-.908 3.956 3.956 0 0 0-3.945 3.945v.198c-1.42.157-2.485 1.38-2.485 2.8 0 .474.119.947.355 1.342-3.392-.356-6.39 2.406-6.272 5.877l.434 10.809c3.314.513 6.47-.947 8.323-3.51l.158.039c2.446.355 4.734-1.302 5.05-3.748l.157-1.065c1.026-.67 1.736-1.736 1.973-2.998a5.527 5.527 0 0 0 3.234-1.42 6.856 6.856 0 0 0 5.247 2.445 6.886 6.886 0 0 0 6.903-6.903c0-1.775-.67-3.353-1.735-4.576z"/>
      <circle cx="48.718" cy="248.659" r="4.655" fill="#FDBD8A"/>
      <path fill="#F99564" d="M48.836 251.617c-.552-.394-.789-1.144-.552-1.775s.907-1.065 1.578-.986c.434.079.789.316.986.631.276-1.262-.04-2.643-.907-3.51l.315-.277c1.144 1.184 1.46 3.077.79 4.655-.04.079-.158.158-.237.118-.119-.04-.158-.118-.158-.236.04-.434-.355-.908-.79-.947-.472-.079-.946.237-1.104.67-.157.474 0 .987.395 1.302l-.316.355z"/>
      <path fill="url(#D)" d="M74.122 267.83l-.513-1.972 11.164-1.499c.947 0 1.736.789 1.736 1.736 0 .946-.79 1.735-1.736 1.735h-10.65z"/>
      <path fill="#9290F4" d="M135.306 294.694a3.554 3.554 0 0 1-4.26 2.762l-18.699-3.906-20.197-4.22-13.018-2.723c-.828-.157-1.499-.591-2.012-1.183-.67-.828-1.025-1.933-.789-3.037l6.43-30.81a3.554 3.554 0 0 1 4.26-2.76l51.914 10.848a3.554 3.554 0 0 1 2.761 4.26l-4.536 21.696-1.854 9.073z"/>
      <circle cx="94.122" cy="260.966" r="4.221" fill="url(#E)"/>
      <path fill="url(#F)" d="M112.387 293.59l-20.198-4.221-13.017-2.722c-.829-.158-1.5-.592-2.012-1.183l15.976-11.283c2.683-1.893 7.061-.986 8.757 1.855l2.722 4.575 7.772 12.979z"/>
      <path fill="url(#G)" d="M135.306 294.694a3.554 3.554 0 0 1-4.26 2.762l-18.699-3.906-20.197-4.22 12.426-8.797 15.463-10.927c2.683-1.894 7.062-.987 8.758 1.854l8.442 14.122-1.933 9.112z"/>
      <path fill="url(#H)" d="M50.65 312.485l-32.622-7.613s.512-14.044 5.562-25.838c5.365-12.545 15.305-22.88 15.305-22.88l11.795 9.586v46.745h-.04z"/>
      <path fill="url(#I)" d="M65.838 36.45l-62.564-.79L7.456 24.38l56.962-10.572c5.523-.474 10.217 4.733 10.217 11.321 0 5.957-3.826 10.888-8.797 11.322z" transform="translate(16.174 304.675)"/>
      <path fill="url(#J)" d="M62.564 33.333l-51.44-10.177a12.551 12.551 0 0 1-8.56-6.193C-.355 11.755-.63 5.483 1.894.079L67.85 14.28c3.984 1.38 6.627 5.128 6.627 9.35.04 6.31-5.76 11.005-11.913 9.703z" transform="translate(16.174 304.675)"/>
      <g transform="translate(0 325.976)">
        <path fill="#353F5A" d="M29.073 1.538l.394 1.5c.75 2.721 1.105 5.601 1.105 8.402l-12.82 3.787-7.22-.552-7.731.276c-.592.04-1.105-.276-1.42-.75-.08-.079-.08-.118-.119-.197-.355-.789 0-1.775.829-2.17L27.02.592c.83-.434 1.815.079 2.052.946z"/>
        <path fill="#DDE3F0" d="M.316 13.925c.276.67 1.065.986 1.696.67l26.39-11.913a1.28 1.28 0 0 0 .71-1.499 1.297 1.297 0 0 0-1.775-.867L.947 12.229c-.631.276-.908 1.065-.631 1.696z"/>
        <path fill="#FFF" d="M10.335 15.937c-.315 0-.63-.079-.946-.197l.276-.671c.71.276 1.499.118 2.012-.513l1.499-1.735.552.473-1.5 1.736a2.366 2.366 0 0 1-1.893.907z"/>
        <path fill="#FFF" d="M12.781 15.937c-.316 0-.631-.079-.947-.197l.276-.671c.71.276 1.5.118 2.012-.513l1.5-1.735.552.473-1.5 1.736a2.366 2.366 0 0 1-1.893.907zm2.604.118c-.316 0-.632-.079-.947-.197l.276-.67c.71.276 1.499.118 2.012-.513l1.499-1.736.552.473-1.499 1.736a2.366 2.366 0 0 1-1.893.907z"/>
        <circle cx="23.59" cy="9.231" r="2.051" fill="#FFF"/>
      </g>
      <path fill="url(#K)" d="M77.554 277.929v-3.51h10.612c.946 0 1.735.788 1.735 1.735 0 .947-.789 1.736-1.735 1.736l-10.612.039z"/>
      <path fill="url(#L)" d="M78.817 267.83c-2.13-2.603-6.036-2.643-8.245-.157l-17.475 19.96c-2.604 2.998-2.328 7.535.67 10.138 2.998 2.604 7.535 2.328 10.138-.67l15.937-18.265c2.84-3.313 2.407-8.323-1.025-11.006z"/>
      <path fill="url(#M)" d="M37.12 264.556c3.156-2.406 7.653-1.854 10.06 1.302l11.005 15.976 10.849-12.78L79.96 279.27l-15.109 17.91c-3.314 3.47-6.785 3.984-10.02 1.656a6.45 6.45 0 0 1-1.696-1.735l-.04-.04-17.317-22.446c-2.367-3.116-1.815-7.613 1.341-10.059z"/>
      <path fill="url(#N)" d="M79.408 274.892v-3.511H90.02c.946 0 1.735.789 1.735 1.735 0 .947-.789 1.736-1.735 1.736l-10.612.04z"/>
      <path fill="url(#O)" d="M77.988 271.854v-3.471H88.6c.946 0 1.735.789 1.735 1.735 0 .947-.789 1.736-1.735 1.736H77.988z"/>
      <path fill="#FDBD8A" d="M64.26 252.682h-.434v-5.167l1.776 2.722c.67 1.065-.08 2.445-1.342 2.445z"/>
      <path fill="#116FF7" d="M294.714 341.045l-6.193.08-23.353.275c-.987 0-1.775-.75-1.775-1.696 0-.079 0-.158.039-.276.04-.237.118-.473.237-.67.157-.316.434-.553.789-.671l7.495-3.156 1.38-.789 2.13-1.183 2.288-1.302.829-.474 13.964-2.09.671 3.787.079.355.907 5.207.158.828.355 1.775z"/>
      <path fill="#FFF" d="M294.872 341.124l-6.312.08-24.655.315c-.355 0-.71-.158-.946-.395a1.401 1.401 0 0 1-.395-.986 1.307 1.307 0 0 1 1.144-1.38h.197l23.945-.277 6.39-.079h.158l.474 2.722zm-19.566-5.68l-2.21-.986c-.749-.316-1.617-.158-2.169.473l-.592-.513c.79-.868 1.973-1.104 3.038-.631l2.209.986-.276.67z"/>
      <path fill="#FFF" d="M277.673 334.34l-2.21-.987c-.749-.316-1.617-.158-2.17.473l-.59-.512c.788-.868 1.972-1.105 3.037-.632l2.209.987-.276.67zm2.366-1.263l-2.209-.986c-.75-.316-1.617-.158-2.17.473l-.591-.513c.789-.868 1.972-1.104 3.038-.63l2.209.985-.277.67z"/>
      <path fill="url(#P)" d="M370.414 329.369l-22.327-95.424c-1.696-8.994-9.586-15.78-19.053-15.78-8.127-.039-15.109 5.01-17.989 12.15l-.04.08a17.671 17.671 0 0 0-.788 2.445l-32.229 98.896 14.635-2.328 35.937-79.25 27.298 81.578 14.556-2.367z"/>
      <path fill="#FFF" d="M294.872 341.124l-6.312.08c0-.04-.04-.04-.04-.08-.433-.789-.67-1.696-.71-2.682v-.04a5.591 5.591 0 0 1 5.444-5.601l.08.355.907 5.207h.157l.474 2.761z"/>
      <path fill="#116FF7" d="M373.728 341.045l-6.706.08-24.063.275c-.987 0-1.776-.75-1.776-1.696 0-.079 0-.158.04-.276.04-.237.118-.473.237-.67.157-.316.433-.553.789-.671l7.534-3.156 6.627-3.748 13.965-2.09c.591 1.223 1.065 2.485 1.499 3.787.04.118.079.276.118.434.434 1.42.829 2.88 1.065 4.378l.119.79.118.828.434 1.735z"/>
      <path fill="#FFF" d="M373.886 341.124l-6.825.08-25.365.315c-.394 0-.71-.158-.986-.395a1.401 1.401 0 0 1-.394-.986 1.307 1.307 0 0 1 1.144-1.38h.197l24.379-.277 7.14-.079h.157l.553 2.722zm-20.79-5.68l-2.208-.986c-.75-.316-1.618-.158-2.17.473l-.592-.513c.79-.868 1.973-1.104 3.038-.631l2.209.986-.276.67z"/>
      <path fill="#FFF" d="M355.503 334.34l-2.21-.987c-.749-.316-1.616-.158-2.169.473l-.591-.512c.788-.868 1.972-1.105 3.037-.632l2.21.987-.277.67zm2.406-1.263l-2.209-.986c-.75-.316-1.617-.158-2.17.473l-.591-.513c.789-.868 1.972-1.104 3.037-.63l2.21.985-.277.67zm15.977 8.047l-6.825.08c0-.04-.04-.04-.04-.08-.552-.75-.867-1.696-.946-2.682v-.395a5.286 5.286 0 0 1 5.286-5.286c.197 0 .394 0 .552.04.04.118.08.276.119.434.433 1.42.828 2.88 1.065 4.378l.118.79h.158l.513 2.721z"/>
      <path fill="url(#Q)" d="M325.523 222.505h6.982a12.256 12.256 0 0 0 12.268-12.268v-14.635c0-5.326-4.34-9.665-9.665-9.665h-9.861c-6.628 0-12.032 5.365-12.032 12.031v12.269c0 6.785 5.523 12.268 12.308 12.268z"/>
      <path fill="#F7CE05" d="M332.268 200.927l-28.244 8.56c-3.748 1.144-7.693-.986-8.837-4.734l-2.327-7.613 35.03-10.65 4.378 14.437z"/>
      <path fill="url(#R)" d="M308.797 201.598a7.533 7.533 0 0 0-8.284-6.706s-20.907 4.142-34.95 1.656c-3.314-.591-6.668-.315-6.786 1.42-.118 1.736 5.089.947 4.379 3.63-.71 2.682-7.85 2.406-10.77 2.958-2.919.592-2.8 3.393 1.736 3.63 0 0-3.274 3.47 3.63 3.747 23.668.947 45.207-2.21 45.207-2.21 3.59-1.538 6.272-3.983 5.838-8.125z"/>
      <path fill="url(#S)" d="M317.949 188.422l-18.896 6.785.986 16.963 1.539-.237c6.706-1.065 13.215-2.998 19.33-5.838l.275-.119-3.234-17.554z"/>
      <path fill="url(#T)" d="M336.647 167.87l-4.931-17.515h.079c-2.564-9.428-6.233-16.805-9.113-22.761-2.88-5.957-4.615-1.894-4.615-1.894-1.854-3.984-4.379-3.077-3.866-.276.513 2.84 3.314 9.112 1.184 10.69-2.17 1.578-4.34-2.17-5.839-1.46-1.499.71-.04 2.92 1.854 5.524 1.894 2.603 3.432 3.786 5.68 11.676h.04l5.641 19.96c1.105 3.827 5.09 6.076 8.916 4.971 3.826-1.065 6.074-5.05 4.97-8.915z"/>
      <circle cx="328.047" cy="171.972" r="14.241" fill="url(#U)"/>
      <path fill="url(#V)" d="M323.314 158.166c-2.604.513-4.734 2.327-5.563 4.812-.788 2.367-.946 5.444 1.381 8.284 4.694 5.641 21.223 7.772 21.223 7.772s2.288-2.604 2.564-9.35c.276-6.706-5.365-11.203-10.77-11.992-2.918-.394-6.35 0-8.835.474z"/>
      <circle cx="321.617" cy="173.984" r="5.089" fill="#FDBD8A"/>
      <path fill="#F99564" d="M319.684 175.207c-.512 0-.986-.276-1.183-.434-.079-.079-.118-.197-.04-.315.08-.08.198-.119.316-.04.355.237.71.395 1.026.355.355-.04.67-.276.71-.592.04-.157-.04-.355-.158-.512-.197-.276-.592-.474-.986-.474l-.355-.04.197-.315c.631-.986 1.38-1.933 2.485-1.893.986.04 1.736.868 2.328 1.696.079.079.04.237-.04.316-.079.078-.236.039-.315-.04-.553-.75-1.223-1.499-2.012-1.538-.79-.04-1.38.63-1.933 1.42.394.079.75.315.947.592.197.276.276.552.236.867-.079.474-.552.868-1.104.908-.04.04-.08.04-.119.04z"/>
      <path fill="url(#W)" d="M315.266 167.08l-2.17-.354c-.591-.119-1.025.592-.67 1.065l2.327 3.274.513-3.984z"/>
      <path fill="url(#X)" d="M359.882 196.864c-1.381-3.038-4.26-4.97-6.667-6.351-.67-.395-1.341-.75-1.972-1.105-2.012-1.104-4.103-2.209-5.8-3.787-2.287-2.13-3.747-5.01-4.22-8.047.04-.118.079-.237.118-.316 0 0-.079 0-.158.08-.433-2.92.04-5.957 1.46-8.56l-.316-.159c-1.499 2.722-1.933 5.878-1.499 8.916-.118.078-.236.118-.355.236-.512-2.998-6.035-3.905-11.084-3.195-4.3.631-8.284 3.037-8.284 3.037-.119.395-.632 1.184-.632 1.184-5.207 8.008-7.692 17.672-7.021 27.18l.355-.04c-.67-9.35 1.775-18.856 6.824-26.785-3.313 11.282-14.438 42.209 11.203 42.209 6.628 0 10.415-2.13 12.347-5.483 11.52-.316 12.86-11.716 10.375-17.357-2.603-5.957-15.345-12.702-13.61-20.158.592 2.88 2.052 5.562 4.222 7.574 1.735 1.617 3.826 2.722 5.877 3.826.632.355 1.302.71 1.973 1.105 2.327 1.341 5.207 3.274 6.509 6.193 1.34 2.998 1.025 6.785-.987 11.598l.316.158c2.09-4.97 2.406-8.876 1.026-11.953z"/>
      <path fill="#F7CF06" d="M71.874 127.2c-.158 0-.355 0-.513-.04-1.223-.119-2.406-.75-3.156-1.696a4.288 4.288 0 0 1-.907-3.117c.118-1.144.71-2.13 1.617-2.84a4.587 4.587 0 0 1 3.432-.947c1.223.119 2.367.75 3.156 1.696a4.288 4.288 0 0 1 .907 3.117c-.315 2.209-2.248 3.826-4.536 3.826zm-.434-1.105c1.933.197 3.629-1.026 3.826-2.84a3.309 3.309 0 0 0-.67-2.328 3.748 3.748 0 0 0-2.407-1.302c-.946-.118-1.893.119-2.603.71-.67.553-1.105 1.302-1.184 2.13a3.309 3.309 0 0 0 .671 2.328 3.273 3.273 0 0 0 2.367 1.302z"/>
      <path fill="#4FDC6F" d="M332.978 51.657c-1.104-.119-1.893-1.065-1.775-2.09.118-1.027 1.105-1.776 2.21-1.658 1.104.119 1.893 1.065 1.774 2.091-.118 1.026-1.104 1.775-2.209 1.657"/>
      <path fill="#F07379" d="M563.277 105.35c-.198 0-.395-.039-.553-.078l-3.51-1.223c-.632-.197-1.066-.71-1.184-1.38-.118-.671.118-1.381.631-1.815l2.8-2.407c.514-.433 1.145-.552 1.737-.355.591.198 1.065.75 1.183 1.381l.71 3.63a1.985 1.985 0 0 1-.631 1.814c-.355.276-.75.434-1.183.434zm-.671-6.271c-.158 0-.316.079-.473.197l-2.801 2.406c-.237.197-.316.474-.276.79.039.275.236.473.473.59l3.51 1.224c.316.118.593-.08.671-.158a.796.796 0 0 0 .277-.75l-.71-3.629c-.04-.276-.237-.473-.474-.591-.079-.08-.118-.08-.197-.08z"/>
      <path fill="#4FCEFF" d="M5.327 178.055l.71 3.63c.197.985-.75 1.853-1.657 1.538L.87 182c-.947-.316-1.184-1.618-.395-2.288l2.8-2.407c.75-.63 1.855-.236 2.052.75"/>
      <path fill="#387DFF" d="M401.6 8.676c-.158 0-.355 0-.513-.04-1.222-.118-2.406-.749-3.155-1.696a4.288 4.288 0 0 1-.908-3.116c.119-1.144.71-2.13 1.618-2.84a4.587 4.587 0 0 1 3.432-.947c1.222.118 2.366.75 3.155 1.696a4.288 4.288 0 0 1 .908 3.116 4.129 4.129 0 0 1-1.5 2.762 4.834 4.834 0 0 1-3.037 1.065zm-.434-1.105a3.554 3.554 0 0 0 2.722-.789 3.047 3.047 0 0 0 1.105-2.05 3.309 3.309 0 0 0-.67-2.328 3.748 3.748 0 0 0-2.407-1.302c-.947-.118-1.894.118-2.604.71-.67.552-1.104 1.302-1.183 2.13a3.309 3.309 0 0 0 .67 2.328 3.273 3.273 0 0 0 2.367 1.301z"/>
      <path fill="#6AEA87" d="M594.103 127.012a1.898 1.898 0 0 1 1.657 2.091 1.898 1.898 0 0 1-2.09 1.657 1.898 1.898 0 0 1-1.658-2.09 1.898 1.898 0 0 1 2.091-1.658"/>
      <circle cx="217.278" cy="29.606" r="4.655" fill="#FDBD8A"/>
      <path fill="#F99564" d="M217.436 32.525c-.592-.316-.947-1.026-.829-1.657.119-.67.75-1.184 1.42-1.184.395-.039.829.198 1.066.513a3.903 3.903 0 0 0-1.42-3.353l.276-.315c1.301 1.025 1.893 2.88 1.46 4.457a.266.266 0 0 1-.237.158c-.119 0-.198-.079-.198-.197-.04-.474-.512-.868-.946-.829-.474 0-.908.395-.987.868-.078.474.158.986.592 1.223l-.197.316z"/>
      <circle cx="518.067" cy="175.01" r="4.892" fill="url(#Y)"/>
      <path fill="#F99564" d="M516.529 177.771c-.08 0-.198-.079-.198-.158-.04-.118.04-.236.158-.236.434-.08.71-.237.947-.513a.841.841 0 0 0 .079-.907.9.9 0 0 0-.474-.237c-.315-.04-.71.118-.986.355l-.236.237-.08-.316c-.275-1.065-.433-2.209.316-2.959.67-.67 1.815-.63 2.762-.512.118 0 .197.118.157.236 0 .119-.118.198-.236.158-.829-.118-1.854-.158-2.407.395-.552.552-.473 1.42-.276 2.288.316-.198.67-.277 1.026-.277.315.04.592.158.789.395.276.394.237.986-.08 1.38-.315.356-.67.553-1.183.632-.039.04-.078.04-.078.04z"/>
      <path fill="url(#Z)" d="M523.59 194.852c-3.156-2.406-7.653-1.854-10.06 1.302l-11.637 15.069-4.93-6.864-3.827 19.96 2.722 3.156c2.288 3.235 6.785 3.985 10.02 1.657a6.45 6.45 0 0 0 1.696-1.736l.04-.039 17.317-22.446c2.406-3.156 1.815-7.653-1.341-10.059z"/>
      <path fill="#1DBC64" d="M501.718 211.13l11.652-15.075.311.241-11.651 15.075zM507.377 227.988v-.592h.158l-.119-.118 17.318-22.485.315.237z"/>
    </g>
  </g>
</svg>
