<?xml version="1.0" encoding="UTF-8"?> <!-- Generator: Adobe Illustrator 16.0.3, SVG Export Plug-In . SVG Version: 6.00 Build 0) --> <svg xmlns="http://www.w3.org/2000/svg" xmlns:xlink="http://www.w3.org/1999/xlink" id="Capa_1" x="0px" y="0px" width="530px" height="490px" viewBox="0 0 530 490" xml:space="preserve"> <g opacity="0.2"> <path id="XMLID_117_" fill="#FFFFFF" fill-opacity="0" d="M422.1,438.2c0,19.3-99.3,34.899-221.8,34.899S-21.5,457.5-21.5,438.2 s99.3-34.9,221.8-34.9S422.1,418.9,422.1,438.2z"></path> <path opacity="0.0244" fill="#FCFDFE" d="M417.1,438.2c0,18.899-97.1,34.1-216.899,34.1 c-119.8,0-216.9-15.3-216.9-34.1S80.4,404.1,200.2,404.1C320.1,404.1,417.1,419.4,417.1,438.2z"></path> <path opacity="0.0488" fill="#F9FAFD" d="M412.2,438.2c0,18.399-94.9,33.399-211.9,33.399 S-11.6,456.7-11.6,438.2c0-18.4,94.9-33.4,211.9-33.4C317.3,404.9,412.2,419.8,412.2,438.2z"></path> <ellipse opacity="0.0732" fill="#F6F7FC" cx="200.3" cy="438.2" rx="206.9" ry="32.6"></ellipse> <ellipse opacity="0.0976" fill="#F2F5FB" cx="200.3" cy="438.2" rx="202" ry="31.8"></ellipse> <ellipse opacity="0.122" fill="#EFF2FA" cx="200.3" cy="438.2" rx="197" ry="31"></ellipse> <path opacity="0.1463" fill="#ECEFF9" d="M392.3,438.2c0,16.7-86,30.2-192,30.2s-192-13.5-192-30.2 s86-30.2,192-30.2S392.3,421.5,392.3,438.2z"></path> <ellipse opacity="0.1707" fill="#E8ECF8" cx="200.3" cy="438.2" rx="187" ry="29.4"></ellipse> <ellipse opacity="0.1951" fill="#E5EAF7" cx="200.3" cy="438.2" rx="182.101" ry="28.7"></ellipse> <ellipse opacity="0.2195" fill="#E2E7F6" cx="200.3" cy="438.2" rx="177.101" ry="27.9"></ellipse> <path opacity="0.2439" fill="#DFE4F5" d="M372.4,438.2c0,15-77.101,27.1-172.101,27.1 S28.1,453.2,28.1,438.2S105.2,411.1,200.2,411.1S372.4,423.3,372.4,438.2z"></path> <ellipse opacity="0.2683" fill="#DBE2F4" cx="200.3" cy="438.2" rx="167.2" ry="26.3"></ellipse> <path opacity="0.2927" fill="#D8DFF2" d="M362.5,438.2c0,14.1-72.6,25.5-162.2,25.5 c-89.6,0-162.2-11.4-162.2-25.5c0-14.101,72.6-25.5,162.2-25.5C289.9,412.7,362.5,424.1,362.5,438.2z"></path> <ellipse opacity="0.3171" fill="#D4DCF1" cx="200.3" cy="438.2" rx="157.2" ry="24.7"></ellipse> <ellipse opacity="0.3415" fill="#D1DAF0" cx="200.3" cy="438.2" rx="152.3" ry="24"></ellipse> <path opacity="0.3659" fill="#CED7EF" d="M347.6,438.2c0,12.8-65.899,23.2-147.3,23.2 C118.9,461.4,53,451,53,438.2S118.9,415,200.3,415C281.6,415,347.6,425.4,347.6,438.2z"></path> <path opacity="0.3902" fill="#CBD5EE" d="M342.6,438.2c0,12.399-63.699,22.399-142.3,22.399 c-78.6,0-142.3-10-142.3-22.399c0-12.4,63.7-22.4,142.3-22.4C278.9,415.8,342.6,425.9,342.6,438.2z"></path> <path opacity="0.4146" fill="#C8D2ED" d="M337.6,438.2c0,11.899-61.5,21.6-137.3,21.6 S63,450.1,63,438.2c0-11.9,61.5-21.601,137.3-21.601S337.6,426.3,337.6,438.2z"></path> <ellipse opacity="0.439" fill="#C4D0EC" cx="200.3" cy="438.2" rx="132.4" ry="20.8"></ellipse> <path opacity="0.4634" fill="#C1CDEA" d="M327.7,438.2c0,11.1-57,20.1-127.4,20.1 c-70.4,0-127.4-9-127.4-20.1c0-11.101,57-20.101,127.4-20.101C270.6,418.2,327.7,427.2,327.7,438.2z"></path> <path opacity="0.4878" fill="#BDCBE9" d="M322.7,438.2c0,10.6-54.8,19.3-122.4,19.3 c-67.6,0-122.4-8.6-122.4-19.3c0-10.601,54.8-19.3,122.4-19.3C267.9,419,322.7,427.6,322.7,438.2z"></path> <path opacity="0.5122" fill="#BAC8E8" d="M317.7,438.2c0,10.2-52.6,18.5-117.5,18.5 c-64.9,0-117.5-8.3-117.5-18.5s52.6-18.5,117.5-18.5C265.2,419.7,317.7,428,317.7,438.2z"></path> <ellipse opacity="0.5366" fill="#B6C5E7" cx="200.3" cy="438.2" rx="112.5" ry="17.7"></ellipse> <path opacity="0.561" fill="#B3C3E5" d="M307.8,438.2c0,9.399-48.1,16.899-107.5,16.899 c-59.4,0-107.5-7.6-107.5-16.899s48.1-16.9,107.5-16.9C259.7,421.3,307.8,428.9,307.8,438.2z"></path> <path opacity="0.5854" fill="#AFC0E4" d="M302.8,438.2c0,8.899-45.9,16.1-102.6,16.1 c-56.7,0-102.6-7.2-102.6-16.1c0-8.9,45.9-16.101,102.6-16.101C256.9,422.1,302.8,429.3,302.8,438.2z"></path> <path opacity="0.6098" fill="#ACBEE3" d="M297.9,438.2c0,8.5-43.7,15.399-97.601,15.399 c-53.9,0-97.6-6.899-97.6-15.399s43.7-15.4,97.6-15.4C254.2,422.9,297.9,429.7,297.9,438.2z"></path> <ellipse opacity="0.6341" fill="#A8BBE2" cx="200.3" cy="438.2" rx="92.601" ry="14.6"></ellipse> <ellipse opacity="0.6585" fill="#A5B9E0" cx="200.3" cy="438.2" rx="87.601" ry="13.8"></ellipse> <path opacity="0.6829" fill="#A1B6DF" d="M282.9,438.2c0,7.2-37,13-82.7,13c-45.7,0-82.7-5.8-82.7-13 s37-13,82.7-13C245.9,425.2,282.9,431,282.9,438.2z"></path> <path opacity="0.7073" fill="#9EB4DE" d="M278,438.2c0,6.8-34.8,12.2-77.7,12.2 c-42.9,0-77.7-5.5-77.7-12.2c0-6.8,34.8-12.2,77.7-12.2C243.2,426,278,431.5,278,438.2z"></path> <ellipse opacity="0.7317" fill="#9AB1DD" cx="200.3" cy="438.2" rx="72.7" ry="11.4"></ellipse> <path opacity="0.7561" fill="#96AFDB" d="M268,438.2c0,5.899-30.3,10.7-67.8,10.7 c-37.4,0-67.8-4.801-67.8-10.7c0-5.9,30.3-10.7,67.8-10.7C237.7,427.6,268,432.3,268,438.2z"></path> <ellipse opacity="0.7805" fill="#93ACDA" cx="200.3" cy="438.2" rx="62.8" ry="9.9"></ellipse> <path opacity="0.8049" fill="#8FAAD9" d="M258.1,438.2c0,5-25.9,9.1-57.8,9.1 c-31.9,0-57.8-4.1-57.8-9.1s25.9-9.101,57.8-9.101C232.2,429.1,258.1,433.2,258.1,438.2z"></path> <ellipse opacity="0.8293" fill="#8BA7D8" cx="200.3" cy="438.2" rx="52.8" ry="8.3"></ellipse> <ellipse opacity="0.8537" fill="#88A5D6" cx="200.3" cy="438.2" rx="47.9" ry="7.5"></ellipse> <path opacity="0.878" fill="#84A2D5" d="M243.2,438.2c0,3.7-19.2,6.8-42.9,6.8 c-23.7,0-42.9-3-42.9-6.8c0-3.7,19.2-6.8,42.9-6.8C224,431.5,243.2,434.5,243.2,438.2z"></path> <ellipse opacity="0.9024" fill="#80A0D4" cx="200.3" cy="438.2" rx="37.9" ry="6"></ellipse> <ellipse opacity="0.9268" fill="#7C9ED2" cx="200.3" cy="438.2" rx="33" ry="5.2"></ellipse> <ellipse opacity="0.9512" fill="#779BD1" cx="200.3" cy="438.2" rx="28" ry="4.4"></ellipse> <path opacity="0.9756" fill="#7399D0" d="M223.3,438.2c0,2-10.3,3.6-23,3.6c-12.7,0-23-1.6-23-3.6 s10.3-3.601,23-3.601C213,434.6,223.3,436.2,223.3,438.2z"></path> <path id="XMLID_116_" fill="#6F96CF" d="M218.3,438.2c0,1.6-8.1,2.8-18.1,2.8s-18.1-1.3-18.1-2.8c0-1.601,8.1-2.8,18.1-2.8 C210.3,435.4,218.3,436.7,218.3,438.2z"></path> </g> <g opacity="0.2"> <path id="XMLID_153_" fill="#FFFFFF" fill-opacity="0" d="M525.6,469.8c0,11.2-57.5,20.2-128.3,20.2C326.4,490,269,481,269,469.8 s57.5-20.2,128.3-20.2S525.6,458.6,525.6,469.8z"></path> <ellipse opacity="0.0244" fill="#FCFDFE" cx="397.3" cy="469.8" rx="125.5" ry="19.7"></ellipse> <path opacity="0.0488" fill="#F9FAFD" d="M519.9,469.8c0,10.7-54.9,19.3-122.601,19.3 s-122.6-8.6-122.6-19.3s54.899-19.3,122.6-19.3S519.9,459.1,519.9,469.8z"></path> <path opacity="0.0732" fill="#F6F7FC" d="M517,469.8c0,10.4-53.6,18.8-119.7,18.8 c-66.1,0-119.7-8.399-119.7-18.8c0-10.399,53.601-18.8,119.7-18.8C463.4,451,517,459.4,517,469.8z"></path> <path opacity="0.0976" fill="#F2F5FB" d="M514.1,469.8c0,10.2-52.3,18.4-116.8,18.4 s-116.8-8.2-116.8-18.4S332.8,451.4,397.3,451.4S514.1,459.6,514.1,469.8z"></path> <ellipse opacity="0.122" fill="#EFF2FA" cx="397.3" cy="469.8" rx="114" ry="17.9"></ellipse> <path opacity="0.1463" fill="#ECEFF9" d="M508.4,469.8c0,9.7-49.7,17.5-111.101,17.5 c-61.3,0-111.1-7.8-111.1-17.5c0-9.6,49.7-17.5,111.1-17.5C458.6,452.3,508.4,460.1,508.4,469.8z"></path> <ellipse opacity="0.1707" fill="#E8ECF8" cx="397.3" cy="469.8" rx="108.2" ry="17"></ellipse> <path opacity="0.1951" fill="#E5EAF7" d="M502.6,469.8c0,9.2-47.199,16.601-105.3,16.601 C339.1,486.4,292,479,292,469.8c0-9.1,47.2-16.6,105.3-16.6C455.4,453.2,502.6,460.6,502.6,469.8z"></path> <path opacity="0.2195" fill="#E2E7F6" d="M499.7,469.8c0,8.9-45.9,16.101-102.5,16.101 c-56.601,0-102.5-7.2-102.5-16.101c0-8.899,45.899-16.1,102.5-16.1C453.9,453.7,499.7,460.9,499.7,469.8z"></path> <path opacity="0.2439" fill="#DFE4F5" d="M496.9,469.8c0,8.7-44.601,15.7-99.601,15.7 s-99.6-7-99.6-15.7c0-8.6,44.6-15.7,99.6-15.7S496.9,461.1,496.9,469.8z"></path> <path opacity="0.2683" fill="#DBE2F4" d="M494,469.8c0,8.4-43.3,15.2-96.7,15.2 c-53.399,0-96.7-6.8-96.7-15.2c0-8.399,43.301-15.2,96.7-15.2C450.7,454.6,494,461.4,494,469.8z"></path> <ellipse opacity="0.2927" fill="#D8DFF2" cx="397.3" cy="469.8" rx="93.8" ry="14.8"></ellipse> <path opacity="0.3171" fill="#D4DCF1" d="M488.2,469.8c0,7.9-40.7,14.3-91,14.3 c-50.2,0-90.9-6.399-90.9-14.3c0-7.899,40.7-14.3,90.9-14.3C447.5,455.5,488.2,461.9,488.2,469.8z"></path> <path opacity="0.3415" fill="#D1DAF0" d="M485.4,469.8c0,7.7-39.4,13.9-88.101,13.9 s-88.1-6.2-88.1-13.9c0-7.6,39.399-13.899,88.1-13.899C445.9,455.9,485.4,462.1,485.4,469.8z"></path> <path opacity="0.3659" fill="#CED7EF" d="M482.5,469.8c0,7.4-38.1,13.4-85.2,13.4 c-47.1,0-85.2-6-85.2-13.4c0-7.399,38.101-13.399,85.2-13.399C444.3,456.4,482.5,462.4,482.5,469.8z"></path> <path opacity="0.3902" fill="#CBD5EE" d="M479.6,469.8c0,7.2-36.899,13-82.3,13 c-45.5,0-82.3-5.8-82.3-13s36.9-13,82.3-13C442.7,456.8,479.6,462.6,479.6,469.8z"></path> <path opacity="0.4146" fill="#C8D2ED" d="M476.7,469.8c0,6.9-35.601,12.5-79.5,12.5 c-43.9,0-79.4-5.6-79.4-12.5c0-6.899,35.601-12.5,79.4-12.5C441.2,457.3,476.7,462.9,476.7,469.8z"></path> <path opacity="0.439" fill="#C4D0EC" d="M473.8,469.8c0,6.7-34.3,12.101-76.6,12.101 S320.6,476.5,320.6,469.8s34.301-12.1,76.601-12.1C439.6,457.7,473.8,463.1,473.8,469.8z"></path> <path opacity="0.4634" fill="#C1CDEA" d="M471,469.8c0,6.4-33,11.601-73.7,11.601 s-73.7-5.2-73.7-11.601c0-6.399,33-11.6,73.7-11.6S471,463.4,471,469.8z"></path> <ellipse opacity="0.4878" fill="#BDCBE9" cx="397.3" cy="469.8" rx="70.8" ry="11.1"></ellipse> <path opacity="0.5122" fill="#BAC8E8" d="M465.2,469.8c0,5.9-30.4,10.7-68,10.7 c-37.5,0-67.9-4.8-67.9-10.7c0-5.899,30.4-10.7,67.9-10.7C434.8,459.1,465.2,463.9,465.2,469.8z"></path> <path opacity="0.5366" fill="#B6C5E7" d="M462.3,469.8c0,5.7-29.1,10.2-65.1,10.2 c-35.9,0-65.101-4.6-65.101-10.2c0-5.6,29.101-10.2,65.101-10.2S462.3,464.1,462.3,469.8z"></path> <path opacity="0.561" fill="#B3C3E5" d="M459.5,469.8c0,5.4-27.9,9.8-62.2,9.8 c-34.399,0-62.2-4.399-62.2-9.8c0-5.399,27.801-9.8,62.2-9.8C431.6,460,459.5,464.4,459.5,469.8z"></path> <ellipse opacity="0.5854" fill="#AFC0E4" cx="397.3" cy="469.8" rx="59.3" ry="9.3"></ellipse> <path opacity="0.6098" fill="#ACBEE3" d="M453.7,469.8c0,4.9-25.3,8.9-56.5,8.9s-56.4-4-56.4-8.9 c0-4.899,25.3-8.899,56.4-8.899C428.4,460.9,453.7,464.9,453.7,469.8z"></path> <path opacity="0.6341" fill="#A8BBE2" d="M450.8,469.8c0,4.7-24,8.4-53.6,8.4 c-29.601,0-53.601-3.8-53.601-8.4c0-4.7,24-8.399,53.601-8.399C426.9,461.4,450.8,465.1,450.8,469.8z"></path> <path opacity="0.6585" fill="#A5B9E0" d="M448,469.8c0,4.4-22.7,8-50.7,8s-50.7-3.6-50.7-8 c0-4.399,22.7-8,50.7-8S448,465.4,448,469.8z"></path> <ellipse opacity="0.6829" fill="#A1B6DF" cx="397.3" cy="469.8" rx="47.8" ry="7.5"></ellipse> <path opacity="0.7073" fill="#9EB4DE" d="M442.2,469.8c0,3.9-20.101,7.101-45,7.101 c-24.8,0-44.9-3.2-44.9-7.101c0-3.899,20.101-7.1,44.9-7.1C422.1,462.7,442.2,465.9,442.2,469.8z"></path> <path opacity="0.7317" fill="#9AB1DD" d="M439.3,469.8c0,3.7-18.8,6.601-42.1,6.601 c-23.2,0-42.101-3-42.101-6.601c0-3.7,18.801-6.6,42.101-6.6S439.3,466.1,439.3,469.8z"></path> <path opacity="0.7561" fill="#96AFDB" d="M436.5,469.8c0,3.4-17.5,6.2-39.2,6.2 c-21.6,0-39.2-2.8-39.2-6.2c0-3.399,17.5-6.2,39.2-6.2C418.9,463.6,436.5,466.4,436.5,469.8z"></path> <path opacity="0.7805" fill="#93ACDA" d="M433.6,469.8c0,3.2-16.3,5.7-36.3,5.7 c-20.1,0-36.3-2.6-36.3-5.7c0-3.2,16.3-5.7,36.3-5.7S433.6,466.6,433.6,469.8z"></path> <ellipse opacity="0.8049" fill="#8FAAD9" cx="397.3" cy="469.8" rx="33.4" ry="5.3"></ellipse> <path opacity="0.8293" fill="#8BA7D8" d="M427.8,469.8c0,2.7-13.7,4.8-30.6,4.8 c-16.9,0-30.601-2.199-30.601-4.8c0-2.7,13.7-4.8,30.601-4.8C414.2,465,427.8,467.1,427.8,469.8z"></path> <ellipse opacity="0.8537" fill="#88A5D6" cx="397.3" cy="469.8" rx="27.7" ry="4.4"></ellipse> <path opacity="0.878" fill="#84A2D5" d="M422.1,469.8c0,2.2-11.1,3.9-24.8,3.9s-24.8-1.7-24.8-3.9 s11.1-3.899,24.8-3.899S422.1,467.6,422.1,469.8z"></path> <path opacity="0.9024" fill="#80A0D4" d="M419.2,469.8c0,1.9-9.8,3.5-21.9,3.5 c-12.1,0-21.899-1.5-21.899-3.5c0-1.899,9.8-3.5,21.899-3.5C409.4,466.3,419.2,467.9,419.2,469.8z"></path> <ellipse opacity="0.9268" fill="#7C9ED2" cx="397.3" cy="469.8" rx="19.101" ry="3"></ellipse> <path opacity="0.9512" fill="#779BD1" d="M413.5,469.8c0,1.4-7.3,2.601-16.2,2.601 c-8.899,0-16.2-1.101-16.2-2.601c0-1.399,7.301-2.5,16.2-2.5C406.2,467.3,413.5,468.4,413.5,469.8z"></path> <path opacity="0.9756" fill="#7399D0" d="M410.6,469.8c0,1.2-6,2.101-13.3,2.101 c-7.399,0-13.3-0.9-13.3-2.101s6-2.1,13.3-2.1S410.6,468.6,410.6,469.8z"></path> <path id="XMLID_120_" fill="#6F96CF" d="M407.7,469.8c0,0.9-4.7,1.601-10.4,1.601c-5.8,0-10.399-0.7-10.399-1.601 c0-0.899,4.699-1.6,10.399-1.6S407.7,468.9,407.7,469.8z"></path> </g> <g> <g id="XMLID_2_"> <g> <path fill="#F1F6FC" d="M264.85,53.95v47.9c0,6.1-5,11.1-11.1,11.1H61.05c-6.1,0-11.1-5-11.1-11.1v-47.9c0-6.1,5-11.1,11.1-11.1 h192.7C259.85,42.85,264.85,47.85,264.85,53.95z"></path> </g> </g> <g id="XMLID_42_"> <g> <linearGradient id="SVGID_1_" gradientUnits="userSpaceOnUse" x1="181.0498" y1="112.1504" x2="395.8496" y2="112.1504" gradientTransform="matrix(1 0 0 1 -131 -61)"> <stop offset="0" style="stop-color:#053F5E"></stop> <stop offset="0.4763" style="stop-color:#053D5C"></stop> <stop offset="0.7495" style="stop-color:#043853"></stop> <stop offset="0.971" style="stop-color:#022E45"></stop> <stop offset="1" style="stop-color:#022C43"></stop> </linearGradient> <path fill="url(#SVGID_1_)" d="M264.85,52.95v6.5H50.05v-6.5c0-5.6,4.5-10.1,10.1-10.1h194.6 C260.35,42.85,264.85,47.45,264.85,52.95z"></path> </g> </g> <g id="XMLID_6_"> <g> <circle fill="#053F5E" cx="81.75" cy="87.05" r="16.4"></circle> </g> </g> <g id="XMLID_3_"> <g> <rect x="107.05" y="72.05" fill="#1D4354" width="139.7" height="4.4"></rect> </g> </g> <g id="XMLID_4_"> <g> <rect x="107.05" y="84.85" fill="#1D4354" width="139.7" height="4.4"></rect> </g> </g> <g id="XMLID_5_"> <g> <rect x="107.05" y="97.75" fill="#82C91E" width="52.4" height="4.4"></rect> </g> </g> <circle fill="#FFFFFF" cx="67.45" cy="51.15" r="2.1"></circle> <circle fill="#FFFFFF" cx="76.55" cy="51.15" r="2.1"></circle> <circle fill="#FFFFFF" cx="85.75" cy="51.15" r="2.1"></circle> </g> <g> <g id="XMLID_16_"> <g> <path fill="#F1F6FC" d="M279.3,128.8V385.4c0,1.199-1,2.1-2.1,2.1H64.8c-1.2,0-2.1-1-2.1-2.1V128.8c0-1.2,1-2.1,2.1-2.1h212.3 C278.3,126.6,279.3,127.6,279.3,128.8z"></path> </g> </g> <g id="XMLID_14_"> <g> <linearGradient id="SVGID_2_" gradientUnits="userSpaceOnUse" x1="193.7002" y1="201.3501" x2="410.2998" y2="201.3501" gradientTransform="matrix(1 0 0 1 -131 -61)"> <stop offset="0" style="stop-color:#053F5E"></stop> <stop offset="0.4763" style="stop-color:#053D5C"></stop> <stop offset="0.7495" style="stop-color:#043853"></stop> <stop offset="0.971" style="stop-color:#022E45"></stop> <stop offset="1" style="stop-color:#022C43"></stop> </linearGradient> <path fill="url(#SVGID_2_)" d="M279.3,134.1v20H62.7v-20c0-4.1,3.4-7.5,7.5-7.5h201.6C275.9,126.6,279.3,130,279.3,134.1z"></path> </g> </g> <circle id="XMLID_123_" fill="#FFFFFF" cx="79.1" cy="140.4" r="2.4"></circle> <circle id="XMLID_122_" fill="#FFFFFF" cx="89.7" cy="140.4" r="2.4"></circle> <circle id="XMLID_121_" fill="#FFFFFF" cx="100.3" cy="140.4" r="2.4"></circle> <g id="XMLID_22_"> <g> <path fill="#053F5E" d="M105.8,261.4c10.7,0,19.3,8.6,19.3,19.3s-8.7,19.3-19.3,19.3c-10.7,0-19.3-8.7-19.3-19.3 C86.5,270.1,95.1,261.4,105.8,261.4z"></path> <path fill="#053F5E" d="M105.8,314.1c10.7,0,19.3,8.601,19.3,19.301c0,10.699-8.7,19.3-19.3,19.3c-10.7,0-19.3-8.601-19.3-19.3 C86.5,322.7,95.1,314.1,105.8,314.1z"></path> </g> </g> <g id="XMLID_21_"> <g> <rect x="147.7" y="268.2" fill="#053F5E" width="107.5" height="4"></rect> <rect x="147.7" y="284" fill="#053F5E" width="59.4" height="4"></rect> </g> </g> </g> <g id="XMLID_15_" opacity="0.2"> <g> <path fill="#1D4354" d="M279.3,154.2v68.3h-38.5c-6,0-10.8-4.8-10.8-10.8V127v-0.3h41.8h5.4c1.2,0,2.1,1,2.1,2.1v5.4V154.2 L279.3,154.2z"></path> </g> </g> <g> <g id="XMLID_10_"> <g> <path fill="#F1F6FC" d="M378,103.2v98.4c0,6-4.8,10.8-10.8,10.8H251.3c-6,0-10.8-4.8-10.8-10.8v-98.4c0-6,4.8-10.8,10.8-10.8 h115.9C373.2,92.4,378,97.2,378,103.2z"></path> </g> </g> <g id="XMLID_8_"> <g> <linearGradient id="SVGID_3_" gradientUnits="userSpaceOnUse" x1="371.5" y1="165.5498" x2="509" y2="165.5498" gradientTransform="matrix(1 0 0 1 -131 -61)"> <stop offset="0" style="stop-color:#053F5E"></stop> <stop offset="0.4763" style="stop-color:#053D5C"></stop> <stop offset="0.7495" style="stop-color:#043853"></stop> <stop offset="0.971" style="stop-color:#022E45"></stop> <stop offset="1" style="stop-color:#022C43"></stop> </linearGradient> <path fill="url(#SVGID_3_)" d="M378,103.8v13H240.5v-13c0-6.3,5.1-11.5,11.5-11.5h114.6C372.9,92.4,378,97.5,378,103.8z"></path> </g> </g> <ellipse fill="#FFFFFF" cx="255.979" cy="104.6" rx="2.1" ry="2.1"></ellipse> <path fill="#FFFFFF" d="M267.1,104.6c0,1.2-0.899,2.1-2.1,2.1s-2.1-0.9-2.1-2.1c0-1.2,0.9-2.1,2.1-2.1S267.1,103.5,267.1,104.6z"></path> <path fill="#FFFFFF" d="M267.1,104.6c0,1.2-0.899,2.1-2.1,2.1s-2.1-0.9-2.1-2.1c0-1.2,0.9-2.1,2.1-2.1S267.1,103.5,267.1,104.6z"></path> <path fill="#FFFFFF" d="M276.3,104.6c0,1.2-0.899,2.1-2.1,2.1s-2.101-0.9-2.101-2.1c0-1.2,0.9-2.1,2.101-2.1 C275.3,102.5,276.3,103.5,276.3,104.6z"></path> <g id="XMLID_11_"> <g> <ellipse fill="#053F5E" cx="267.2" cy="149" rx="16.4" ry="16.4"></ellipse> </g> </g> <g id="XMLID_12_"> <g> <rect x="292.4" y="153" fill="#053F5E" width="75.1" height="4.4"></rect> <rect x="292.4" y="140.1" fill="#053F5E" width="75.1" height="4.4"></rect> </g> </g> <g id="XMLID_13_"> <g> <rect x="292.4" y="165.9" fill="#82C91E" width="28.199" height="4.4"></rect> </g> </g> </g> <g id="XMLID_31_" opacity="0.2"> <g> <path fill="#1D4354" d="M188.3,332.1V387.4H64.8c-1.2,0-2.1-1-2.1-2.101v-54.5c0.5-0.8,1.3-1.3,2.2-1.3h120.8 C187.1,329.6,188.3,330.7,188.3,332.1z"></path> </g> </g> <g> <g id="XMLID_32_"> <g> <path fill="#F1F6FC" d="M180.8,340v68.9c0,1.399-1.2,2.6-2.6,2.6H57.5c-1.4,0-2.6-1.2-2.6-2.6V340c0-1.4,1.2-2.6,2.6-2.6h120.8 C179.7,337.4,180.8,338.6,180.8,340z"></path> </g> </g> <g> <g id="XMLID_33_"> <g> <path fill="#82C91E" d="M87.5,354c11.3,0,20.4,9.1,20.4,20.4c0,11.3-9.1,20.399-20.4,20.399s-20.4-9.1-20.4-20.399 C67.1,363.2,76.2,354,87.5,354z"></path> </g> </g> <path id="XMLID_114_" fill="#FFFFFF" d="M95,375.6L81.9,383.2c-0.9,0.5-2-0.101-2-1.2v-15.1c0-1,1.1-1.7,2-1.101L95,373.4 C95.9,373.8,95.9,375.1,95,375.6z"></path> </g> <g id="XMLID_34_"> <g> <rect x="115.3" y="371.9" fill="#1D4354" width="55.9" height="5"></rect> <rect x="115.3" y="358.1" fill="#1D4354" width="55.9" height="5"></rect> </g> </g> <g id="XMLID_35_"> <g> <rect x="115.3" y="385.8" fill="#82C91E" width="27.9" height="5"></rect> </g> </g> </g> <g id="XMLID_17_" opacity="0.2"> <g> <path fill="#1D4354" d="M151.1,152.4v45.3c0,0.8-0.7,1.5-1.5,1.5H83.1c-0.8,0-1.5-0.7-1.5-1.5v-45.3c0-0.8,0.7-1.5,1.5-1.5h66.5 C150.4,150.9,151.1,151.6,151.1,152.4z"></path> </g> </g> <g> <path fill="#FFFFFF" d="M142.5,194H76c-0.8,0-1.5-0.7-1.5-1.5v-45.3c0-0.8,0.7-1.5,1.5-1.5h66.5c0.8,0,1.5,0.7,1.5,1.5v45.3 C144,193.3,143.3,194,142.5,194z"></path> <g> <rect x="79.7" y="150.3" fill="#A8CADE" width="59.1" height="36.9"></rect> </g> <g id="XMLID_19_"> <g> <polygon fill="#053F5E" points="106.9,171.8 116.4,187.2 103.1,187.2 100,182 "></polygon> <polygon fill="#315868" points="100,182 103.1,187.2 103.1,187.2 99.9,182.1 "></polygon> <polygon fill="#053F5E" points="99.9,182.1 103.1,187.2 79.7,187.2 79.8,177 88.9,163.9 100,182 "></polygon> </g> </g> <g> <polygon fill="#FFFFFF" points="90.5,171.1 91.3,172.6 92.9,170.3 88.9,163.6 84.3,170.2 85.7,172.6 86.8,171 88.5,173.9 "></polygon> </g> <g id="XMLID_18_"> <g> <path fill="#053F5E" d="M121.4,156.4c3.6,0,6.5,2.9,6.5,6.5s-2.9,6.5-6.5,6.5s-6.5-2.9-6.5-6.5S117.8,156.4,121.4,156.4z"></path> </g> </g> <g> <polygon fill="#FFFFFF" points="108.4,178.7 109.3,180.2 110.8,178 106.8,171.5 102.5,177.9 103.9,180.2 104.9,178.7 106.6,181.4 "></polygon> </g> </g> <g id="XMLID_30_" opacity="0.2"> <g> <path fill="#1D4354" d="M279.3,299.7v85.6c0,1.2-1,2.101-2.1,2.101h-38.5c-1.3-1.5-2-3.5-2-5.601v-63.6v-9.7v-0.2 c0-4.8,3.9-8.7,8.7-8.7L279.3,299.7L279.3,299.7z"></path> </g> </g> <g> <linearGradient id="SVGID_4_" gradientUnits="userSpaceOnUse" x1="390.7002" y1="1479.4502" x2="495" y2="1479.4502" gradientTransform="matrix(1 0 0 -1 -144 1834)"> <stop offset="0" style="stop-color:#EFF4FC"></stop> <stop offset="0.8479" style="stop-color:#F5F8FD"></stop> </linearGradient> <path fill="url(#SVGID_4_)" d="M342.1,400.1h-86.5c-4.9,0-8.9-4-8.9-8.899v-73.3c0-4.9,4-8.9,8.9-8.9h86.5c4.9,0,8.9,4,8.9,8.9 v73.3C351,396.1,347,400.1,342.1,400.1z"></path> <g id="XMLID_26_"> <g> <linearGradient id="SVGID_5_" gradientUnits="userSpaceOnUse" x1="377.7002" y1="379.2998" x2="482" y2="379.2998" gradientTransform="matrix(1 0 0 1 -131 -61)"> <stop offset="0" style="stop-color:#053F5E"></stop> <stop offset="0.4763" style="stop-color:#053D5C"></stop> <stop offset="0.7495" style="stop-color:#043853"></stop> <stop offset="0.971" style="stop-color:#022E45"></stop> <stop offset="1" style="stop-color:#022C43"></stop> </linearGradient> <path fill="url(#SVGID_5_)" d="M351,317.7v9.899H246.7V317.7c0-4.8,3.9-8.7,8.7-8.7h86.9C347.1,309,351,312.9,351,317.7z"></path> </g> </g> <path fill="#FFFFFF" d="M260,318.3c0,0.9-0.7,1.601-1.6,1.601s-1.6-0.7-1.6-1.601c0-0.899,0.7-1.6,1.6-1.6S260,317.5,260,318.3z"></path> <path fill="#FFFFFF" d="M266.9,318.3c0,0.9-0.7,1.601-1.601,1.601c-0.9,0-1.6-0.7-1.6-1.601c0-0.899,0.7-1.6,1.6-1.6 C266.2,316.7,266.9,317.5,266.9,318.3z"></path> <path fill="#FFFFFF" d="M266.9,318.3c0,0.9-0.7,1.601-1.601,1.601c-0.9,0-1.6-0.7-1.6-1.601c0-0.899,0.7-1.6,1.6-1.6 C266.2,316.7,266.9,317.5,266.9,318.3z"></path> <path fill="#FFFFFF" d="M273.8,318.3c0,0.9-0.7,1.601-1.6,1.601c-0.9,0-1.601-0.7-1.601-1.601c0-0.899,0.7-1.6,1.601-1.6 C273.1,316.7,273.8,317.5,273.8,318.3z"></path> <g> <g id="XMLID_28_"> <g> <path fill="#053F5E" d="M333.6,384.9l-5.399,12l-11.8-0.2L314.1,385.1L316.7,367.9l0.8,0.399c2.5,1.4,4.1,3.9,4.4,6.8 l1.199,15.4l4.601-7.5L333.6,384.9z"></path> <polygon fill="#1D4354" points="316.7,367.9 314,385.1 313,380.2 303.2,365.7 303.2,360.4 "></polygon> <polygon fill="#053F5E" points="313,380.2 314,385.1 312.2,396.6 283.2,396.6 282,383.8 282.8,380.2 292.5,365.7 292.5,360.4 303.2,360.4 303.2,365.7 "></polygon> <polygon fill="#1D4354" points="292.5,360.4 292.5,365.7 282.8,380.2 282,383.8 280.5,367.1 "></polygon> <path fill="#053F5E" d="M280.5,367.1l1.5,16.7l-2.6,12.8l-11.9,0.2l-5.4-12l6.1-1.8l4.6,7.5l1.2-15.4 c0.2-2.899,1.9-5.399,4.4-6.8L280.5,367.1z"></path> </g> </g> <polygon fill="#F9C5B6" points="303.2,360.8 297.9,370.5 292.5,360.8 292.5,353.8 303.2,353.8 "></polygon> <path opacity="0.3" fill="#1B1E3B" d="M292.5,357.8l1.5,2.601c1,1.699,2.8,2.8,4.8,2.8 c1.8,0,3.4-0.8,4.4-2.2v-7.1h-10.7V357.8L292.5,357.8z"></path> <path fill="#F9C5B6" d="M291.7,343.1v8.101c0,1.8,0.5,3.6,1.399,5.2l1.601,2.699c1,1.7,2.8,2.801,4.8,2.801l0,0 c1.9,0,3.7-1,4.7-2.601l0.3-0.5c1-1.6,1.5-3.5,1.5-5.399V345.6V338.4h-14.1L291.7,343.1z"></path> <path fill="#F9C5B6" d="M291.8,352.4l-1.6-0.9c0,0-1.7-2.5-0.9-4.2c0,0,0.601-1.5,1.7-0.8l1.6,1.6L291.8,352.4z"></path> <path fill="#F9C5B6" d="M305.6,352.4l1.601-0.9c0,0,1.7-2.5,0.899-4.2c0,0-0.6-1.5-1.699-0.8l-1.601,1.6L305.6,352.4z"></path> <path fill="#F9C5B6" d="M263.1,384.6l-0.5-1.399l-14.4-9.2l0,0c0.8-0.8,2.1-1,3.1-0.4l2.9,1.801l1-0.2c0.8-0.2,1.7,0,2.4,0.399 l1.4,0.9l4.8,1.4c1.3,0.399,2.3,1.3,2.8,2.6l1,2.7L263.1,384.6z"></path> <path fill="#F9C5B6" d="M332.7,384.6l0.5-1.399L347.6,374l0,0c-0.8-0.8-2.1-1-3.1-0.4l-2.9,1.801l-1-0.2 c-0.8-0.2-1.699,0-2.399,0.399l-1.4,0.9L332,378c-1.3,0.4-2.3,1.3-2.8,2.6l-1,2.7L332.7,384.6z"></path> <polygon fill="#FFFFFF" points="292.4,360.1 289.2,361.9 293,375.5 297.9,370.5 "></polygon> <polygon fill="#FFFFFF" points="303.4,360.1 306.6,361.9 302.8,375.5 297.9,370.5 "></polygon> <path fill="#F9C5B6" d="M295.9,355.6h1.1c0.4,0,0.8-0.1,1.1-0.399l0.7-0.601l0.7,0.601c0.3,0.3,0.7,0.399,1.1,0.399h1.101 c0,0,0,3.2-3.2,3.101C296.4,358.6,296.6,357.4,295.9,355.6z"></path> <polygon fill="#FFFFFF" points="261.9,384.7 268.4,382.8 270,385.4 263.2,387.4 "></polygon> <polygon fill="#FFFFFF" points="333.7,384.8 327.5,382.9 325.9,385.5 332.5,387.4 "></polygon> <path fill="#FFFFFF" d="M1186.6-538.3h14.9C1201.6-538.3,1193.5-524.2,1186.6-538.3z"></path> </g> <g> <g id="XMLID_27_"> <g> <path fill="#82C91E" d="M261.3,335.8c3.2,0,5.7,2.601,5.7,5.7c0,3.2-2.6,5.7-5.7,5.7c-3.2,0-5.7-2.601-5.7-5.7 S258.2,335.8,261.3,335.8z"></path> </g> </g> <polygon fill="#FFFFFF" points="262.9,341.5 259.8,343.3 259.8,339.7 "></polygon> </g> </g> <g> <g id="XMLID_36_"> <g> <circle fill="#82C91E" cx="214.8" cy="383.9" r="16.1"></circle> </g> </g> <g id="XMLID_105_"> <polygon id="XMLID_106_" fill="#FFFFFF" points="212.7,390.5 207.1,384.9 210.3,381.7 212.7,384.1 219.3,377.4 222.5,380.6 "></polygon> </g> </g> <g id="XMLID_9_" opacity="0.2"> <g> <linearGradient id="SVGID_6_" gradientUnits="userSpaceOnUse" x1="417.2998" y1="174.5996" x2="509" y2="174.5996" gradientTransform="matrix(1 0 0 1 -131 -61)"> <stop offset="0" style="stop-color:#053F5E"></stop> <stop offset="0.5851" style="stop-color:#053E5C"></stop> <stop offset="0.7955" style="stop-color:#043955"></stop> <stop offset="0.9453" style="stop-color:#03314A"></stop> <stop offset="1" style="stop-color:#022C43"></stop> </linearGradient> <path fill="url(#SVGID_6_)" d="M378,116.9v17.9h-85.7c-3.3,0-6-2.7-6-6V92.4h80.2l0,0h0.6c6,0,10.801,4.8,10.801,10.8v0.6 L378,116.9L378,116.9z"></path> </g> </g> <g> <linearGradient id="SVGID_7_" gradientUnits="userSpaceOnUse" x1="438.9004" y1="1752.25" x2="584" y2="1752.25" gradientTransform="matrix(1 0 0 -1 -144 1834)"> <stop offset="0" style="stop-color:#EFF4FC"></stop> <stop offset="0.8479" style="stop-color:#F5F8FD"></stop> </linearGradient> <path fill="url(#SVGID_7_)" d="M434,126.5H300.9c-3.301,0-6-2.7-6-6V43c0-3.3,2.699-6,6-6H434c3.3,0,6,2.7,6,6v77.6 C440,123.9,437.3,126.5,434,126.5z"></path> <g id="XMLID_38_"> <g> <rect x="320.9" y="47.7" fill="#1D4354" width="106" height="2"></rect> <rect x="320.9" y="53.2" fill="#1D4354" width="44" height="2.1"></rect> </g> </g> <g> <g id="XMLID_40_"> <g> <path fill="#84C91E" d="M430.5,69.2c-12.1-0.2-23.8,4.2-32.2,13c-7,7.3-13.5,13.7-23.8,16c-11.1,2.4-20.7-4.2-31.4-4.9 c-11.8-0.9-18.199,9.6-28.8,12.7c-1,0.3-0.399-1.5-0.399-1.5c10.1-3,16-12.8,27-12.9c12.3-0.1,22.899,8.2,35.399,4.5 c6.601-1.9,12.8-5.9,17.4-10.9c3.3-3.6,6.399-7.1,10.399-9.9c7.801-5.3,17-7.8,26.4-7.6V69.2z"></path> </g> </g> </g> <g> <g id="XMLID_37_"> <g> <path fill="#315868" d="M432.6,69.8c-9.1-1.9-15.1,5.4-21,10.8c-3.899,3.6-8.199,7.2-12.6,10.1c-8.8,5.8-18.3,2.6-27.6,0 C358.2,87,342.3,88.2,331.8,98c-5.5,5.1-9.2,14-18,11.9l0.4-1.5c8.3,1.9,12.1-7.7,17.2-12.1c3-2.6,6.6-4.6,10.199-6.1 c9.801-3.9,20.101-3.8,30.2-1c6.9,2,14.601,4.9,21.8,2.6c6.601-2.1,12.801-8.3,17.801-13c6.1-5.7,12-12.4,21.199-10.4V69.8 L432.6,69.8L432.6,69.8z"></path> </g> </g> </g> <g> <g id="XMLID_39_"> <g> <rect x="314.6" y="110.1" fill="#A8CADE" width="116.4" height="1.1"></rect> <rect x="313.5" y="111.2" fill="#A8CADE" width="1.1" height="5.9"></rect> <rect x="313.5" y="110.1" fill="#A8CADE" width="1.1" height="1.1"></rect> <rect x="313.5" y="45.7" fill="#A8CADE" width="1.1" height="64.4"></rect> <rect x="303.9" y="110.1" fill="#A8CADE" width="9.6" height="1.1"></rect> </g> </g> </g> </g> <g> <g id="XMLID_7_"> <g> <path fill="#82C91E" d="M477.9,35.6l-12.2,38.8h8.399l12.2-38.8H477.9z M463.6,70.1v-7.5L450,58.1V58l13.5-4.6v-7.5l-21.7,8.8 v6.5L463.6,70.1z M526.2,9.4v91.1c0,2.4-2,4.4-4.4,4.4h-91.1c-2.4,0-4.4-2-4.4-4.4V9.4c0-2.4,2-4.4,4.4-4.4h91.1 C524.2,5,526.2,7,526.2,9.4z M510.5,61.3v-6.5L489,46v7.5l13.4,4.5v0.1L489,62.6v7.5L510.5,61.3z"></path> <polygon fill="#FFFFFF" points="510.5,54.8 510.5,61.3 489,70.1 489,62.6 502.4,58.1 502.4,57.9 489,53.5 489,46 "></polygon> <polygon fill="#FFFFFF" points="486.2,35.6 474,74.4 465.7,74.4 477.9,35.6 "></polygon> <polygon fill="#FFFFFF" points="463.6,62.6 463.6,70.1 441.9,61.3 441.9,54.7 463.6,45.9 463.6,53.4 450,58 450,58.1 "></polygon> </g> </g> </g> <g> <linearGradient id="SVGID_8_" gradientUnits="userSpaceOnUse" x1="430.7002" y1="1574.1504" x2="503.2002" y2="1574.1504" gradientTransform="matrix(1 0 0 -1 -144 1834)"> <stop offset="0" style="stop-color:#EFF4FC"></stop> <stop offset="0.8479" style="stop-color:#F5F8FD"></stop> </linearGradient> <rect x="286.7" y="220" fill="url(#SVGID_8_)" width="72.5" height="79.7"></rect> <g id="XMLID_23_"> <g> <rect x="294.8" y="228.4" fill="#84C91E" width="25.9" height="28.2"></rect> </g> </g> <g id="XMLID_25_"> <g> <rect x="294.8" y="286.6" fill="#82C91E" width="36.5" height="4.9"></rect> </g> </g> <g id="XMLID_24_"> <g> <rect x="294.8" y="275" fill="#053F5E" width="57.2" height="4.9"></rect> <rect x="294.8" y="263.3" fill="#053F5E" width="57.2" height="4.9"></rect> <rect x="326.4" y="251.7" fill="#053F5E" width="25.6" height="4.899"></rect> <rect x="326.4" y="240.1" fill="#053F5E" width="25.6" height="4.9"></rect> <rect x="326.4" y="228.4" fill="#053F5E" width="25.6" height="4.9"></rect> </g> </g> <g id="XMLID_155_"> <linearGradient id="XMLID_44_" gradientUnits="userSpaceOnUse" x1="441" y1="1591.8496" x2="453.239" y2="1591.8496" gradientTransform="matrix(1 0 0 -1 -144 1834)"> <stop offset="0" style="stop-color:#EFF4FC"></stop> <stop offset="0.8479" style="stop-color:#F5F8FD"></stop> </linearGradient> <path id="XMLID_161_" fill="url(#XMLID_44_)" d="M306.6,247.8l-1.1-2.4h-4.8l-1.101,2.4H297l4.9-11.3h2.399l4.9,11.3H306.6z M303.1,239.9l-1.399,3.3h2.8L303.1,239.9z"></path> <linearGradient id="XMLID_45_" gradientUnits="userSpaceOnUse" x1="453.7783" y1="1590.5498" x2="461.6603" y2="1590.5498" gradientTransform="matrix(1 0 0 -1 -144 1834)"> <stop offset="0" style="stop-color:#EFF4FC"></stop> <stop offset="0.8479" style="stop-color:#F5F8FD"></stop> </linearGradient> <path id="XMLID_157_" fill="url(#XMLID_45_)" d="M317.7,247.8h-2.3v-1.1c-0.601,0.8-1.4,1.2-2.301,1.2 c-0.899,0-1.699-0.301-2.3-0.801c-0.6-0.5-0.899-1.199-0.899-2.1c0-0.9,0.3-1.6,1-2c0.6-0.4,1.5-0.7,2.699-0.7h1.801l0,0 c0-0.9-0.5-1.4-1.5-1.4c-0.4,0-0.9,0.1-1.301,0.3c-0.5,0.2-0.899,0.4-1.199,0.6l-1.101-1.6c1.101-0.8,2.5-1.2,3.9-1.2 c1.1,0,1.899,0.3,2.6,0.8s1,1.4,1,2.5L317.7,247.8L317.7,247.8z M315.2,244.5v-0.4h-1.5c-1,0-1.5,0.3-1.5,0.9 c0,0.3,0.1,0.6,0.399,0.7c0.2,0.2,0.601,0.3,1,0.3c0.4,0,0.801-0.1,1.101-0.4C315,245.3,315.2,245,315.2,244.5z"></path> </g> </g> <g> <rect x="357.3" y="439.1" fill="#FACDBE" width="10" height="15.2"></rect> <path fill="#4D5068" d="M368.6,450.4c0,0,0.601,6.399,2.301,11.8c0.199,0.7,0.8,1.2,0.8,2v5.6H348v-3c0-1.399,0.4-2.7,1.3-3.8 c2-2.7,8-8.4,7.101-12.6H368.6L368.6,450.4z"></path> <g> <path fill="#E4EDF9" d="M368.5,450.4L368.5,450.4c0.1,0,0,0.1,0,0.199C368.6,450.5,368.6,450.4,368.5,450.4z"></path> <path fill="#E4EDF9" d="M372,465.6v4.101h-24.3V466.6c0-0.399,0-0.699,0.1-1.1L372,465.6L372,465.6z"></path> </g> <rect x="422.3" y="439.1" fill="#FACDBE" width="10" height="15.2"></rect> <linearGradient id="SVGID_9_" gradientUnits="userSpaceOnUse" x1="499.0996" y1="1469.8496" x2="550.5996" y2="1469.8496" gradientTransform="matrix(1 0 0 -1 -144 1834)"> <stop offset="0" style="stop-color:#E4EDF9"></stop> <stop offset="0.8365" style="stop-color:#B5CBEB"></stop> </linearGradient> <path fill="url(#SVGID_9_)" d="M406.6,316.7c-2.8,6.899-21.3,59.6-21.3,59.6L370,448h-14.9l7.7-81.3l5.601-86.4l32.3,3.8l5.8,16 V316.7H406.6z"></path> <linearGradient id="SVGID_10_" gradientUnits="userSpaceOnUse" x1="541.9004" y1="1467.9502" x2="582.8454" y2="1467.9502" gradientTransform="matrix(1 0 0 -1 -144 1834)"> <stop offset="0" style="stop-color:#B5CBEB"></stop> <stop offset="0.6944" style="stop-color:#D5E2F5"></stop> <stop offset="1" style="stop-color:#E4EDF9"></stop> </linearGradient> <polygon fill="url(#SVGID_10_)" points="438.9,296.6 437.9,368.7 434.4,448 420.2,448 414.5,384.8 397.9,312.5 400.7,284.1 436.2,287.4 "></polygon> <path fill="#4D5068" d="M433.7,450.4c0,0-1.4,6.199,3.5,11.8c0.5,0.5,0.8,1.2,0.8,2v5.6h-22.5v-3c0-1.399,0.4-2.7,1.3-3.8 c2-2.7,5.601-8.4,4.7-12.6H433.7L433.7,450.4z"></path> <g> <path fill="#E4EDF9" d="M433.6,450.4L433.6,450.4c0.101,0,0,0.1,0,0.199C433.6,450.5,433.6,450.4,433.6,450.4z"></path> <path fill="#E4EDF9" d="M438.2,465.6v4.101h-23V466.6c0-0.399,0-0.699,0.1-1.1L438.2,465.6L438.2,465.6z"></path> </g> <g opacity="0.2"> <path fill="#6F96CF" d="M362.8,366.7l-7.7,81.3h6.5c3.4-18-2-37.2,3.301-54.8c0.699-2.4,1.699-4.8,2.1-7.3c0.7-4,0-8-0.4-12 c-0.699-7.2-0.399-14.5,1.2-21.601c2.9-12.2,10-23.399,10.3-36c0.101-4.2-0.6-8.5-1.3-12.6c-1.399-7.7-3-15.4-4.8-23l-3.6-0.4 L362.8,366.7z"></path> </g> <g opacity="0.2"> <path fill="#6F96CF" d="M437.9,368.7l0.899-72.2l-2.7-9.2l-28.8-2.6c1,10.8,5,21.3,11.4,30c3.6,4.899,8,9.3,10,15 c1.1,3.2,1.399,6.7,1.7,10.1c0.399,5.5,0.899,11,1.3,16.5c0.399,5.3,0.899,10.8-0.4,16c-0.7,3-1.899,5.8-2.1,8.8 c-0.2,2.801,0.5,5.5,1,8.301c3.399,19.3-3.601,39.5-0.2,58.5h4.3L437.9,368.7z"></path> </g> <path fill="#FACDBE" d="M402.7,193.1H424v-28h-23.3C406.1,172.1,402.7,193.1,402.7,193.1z"></path> <path fill="#FFFFFF" d="M436.2,293.3c-0.7,16.601-54.4-10.2-66.101-3.899l14.2-97.7c0,0,13-5.2,18.5-1.1c7.601,5.6,21.3,0,21.3,0 l9.601,3.8C433.6,194.3,436.8,279.1,436.2,293.3z"></path> <path fill="#4D5068" d="M403.7,175.6c0,0,3.899,64.5-28,105.3c0,0-9.7,24.1-17.601,25.3c0,0-8.199-20.9,1.801-37.4 c6.199-10.1,18.1-32.4,18.8-44.2l2-34L403.7,175.6z"></path> <path fill="#4D5068" d="M424,175.6c0,0-9.3,42.3-9.6,63.8c-0.2,17.5,27.1,76.1,27.1,76.1s16.8-17.6,7.9-37.9 c-5.801-13.399-12.4-24-11.5-32.7l-0.2-60.4L424,175.6z"></path> <g> <path fill="#FACDBE" d="M393.4,159.8c0.199-2.8,0.699-5.6,1.6-8.4c0-0.2-1.2-0.4-2.4-0.5c-0.899-0.1-1.3-1.2-0.699-1.8 c2.6-2.9,7.3-7.6,8.1-9.3c1.1-2.4,0.2-0.5,1.5-2.9c0.4-0.7,0.9-1.4,1.2-2.1c0.399-0.9,1.6-1.9,2.6-2c1.101-0.1,2.101,0.1,3.2,0.4 c4.5,1.1,8.6,2,12.8,4c1.5,0.7,3.101,1.5,4.5,2.6c2,1.5,3.5,3.7,4.4,6c1.5,4.1,0.899,8.6,0,12.8c-0.2,1-0.4,2.1-0.9,3 c-0.8,1.5-2.2,2.6-3.7,3.5c-2.5,1.6-5.199,2.9-7.8,4.3c-1.6,0.8-3.2,1.6-4.899,2.1c-2.801,0.8-5.7,0.8-8.601,0.7 c-2.2-0.1-4.6-0.2-6.5-1.3c-1.8-1-3-2.9-3.7-4.8C393.3,164,393.2,161.9,393.4,159.8z"></path> </g> <g> <g id="XMLID_41_"> <g> <path fill="#4D5068" d="M426.4,166.4c-0.301,0.1-0.601,0.3-0.9,0.4c-0.3,0.1-0.6,0.5-0.9,0.5c-0.6,0.1-0.699-0.9-0.699-1.4 c0-0.9,0.399-1.8,0.8-2.6c0.399-0.7,1-1.2,1.5-1.9c1.5-1.8,1.399-4.1,1.5-6.2c0.1-1.1,0.1-2.2-0.2-3.2c-0.4-1-1.2-1.9-2.2-2.1 c-1.1-0.2-2.2,0.5-3,1.3c-1.7,1.5-3.1,3.3-4,5.3c-0.1-1.9-0.1-3.7-0.2-5.6c0-1.3-0.1-2.6-0.5-3.8c-0.5-1.6-1.699-3.2-1.3-4.8 c0.2-0.8,0.7-1.4,0.8-2.2c0.101-1.1-0.699-2.2-1.699-2.7s-2.101-0.7-3.301-0.9c-1.699-0.3-3.399-0.9-5.1-1.3 c-1.6-0.4-3.2-1-4.4-2.1c-1.3-1.1-2-2.8-2.399-4.4c-0.4-1.7-0.4-3.4-0.4-5.1c0-1,0-2.1,0.101-3.1c4.1,3.4,9.5,4.7,14.8,5.3 c5.3,0.7,10.7,0.8,15.7,2.5c3.1,1.1,8,3,9.5,6.2c2.1,4.5,1.8,11.2,0.6,15.8c-0.9,3.5-2.5,6.9-4.9,9.7 C433.1,163.2,429.9,164.6,426.4,166.4z"></path> </g> </g> </g> <path opacity="0.4" fill="#A48877" d="M399,169.2c-0.2-1.7,0.6-3.3,2.1-4.2l0,0 c0.5-0.3,0.801-0.7,1-1.2l1.301-3.6c0.3-0.9,0.399-2,0.3-3l-0.4-2.8c-0.2-1.5-1.899-2.4-3.3-1.8l-4.8,2.2l-3,2.9l0,0 c-0.2,2.5-0.2,5.1,0.6,7.6c0.7,2.2,2.101,4.2,4.101,5.4c0.699,0.4,1.5,0.7,2.399,0.9L399,169.2z"></path> <g opacity="0.4"> <path fill="#3E3F51" d="M437.9,244.9l-0.101-23c-2.899,4.6-4.5,10-4.5,15.4c0,2.9,0.3,5.8-0.7,8.5c-1,2.7-4,5-6.699,4 c2.399,1.5,4.8,3,7.199,4.5c0.801,0.5,1.601,1,2,1.8c0.5,1,0.4,2.101,0.301,3.2c-0.7,8.4,3.1,16.3,4.699,24.601 c0.801,3.899,1.101,7.899,1.2,11.8c0.2,6.2,0.101,12.3-0.5,18.5c0.4,0.8,0.601,1.3,0.601,1.3s16.8-17.6,7.899-37.9 C443.6,264.3,437.1,253.7,437.9,244.9z"></path> </g> <path fill="#FACDBE" d="M463.9,221.5L475.3,251c1.2,3,0.9,6.4-0.8,9.2l-36.4,46.3l-6.5-9.7L455,260c1.5-3.2,1.4-6.9-0.2-10.1 L443.5,230C443.5,230,457.2,235.1,463.9,221.5z"></path> <path fill="#FACDBE" d="M431.7,296.9l-4.2,0.699l-2.9,2.601c-1,1-1.1,2.6-0.199,3.6l0.899,1L424,306.9c-0.5,0.899-0.5,2,0.2,2.8 l4,4.899c0.8,0.9,2.1,1.101,3.1,0.5l4.4-2.699c1-0.601,1.6-1.601,1.899-2.7l0.601-3.2L431.7,296.9z"></path> <g opacity="0.4"> <path fill="#A48877" d="M475.3,251L463.9,221.5c-0.801,1.7-1.801,3.1-2.801,4.3c0.7,2.4,1.4,4.7,2,7.1 c1.601,5.8,3.2,11.6,4.801,17.5c0.6,2.3,1.3,4.699,1,7c-0.601,5.199-5.2,8.699-8.9,12.5c-12.4,12.6-16.2,32.1-29.4,43.8 c-0.5,0.5-1.1,1-1.6,1.5c0.7,0.399,1.6,0.399,2.4-0.101l4.399-2.699c1-0.601,1.601-1.601,1.9-2.7l0.6-3.2l36.4-46.3 C476.2,257.5,476.5,254.1,475.3,251z"></path> </g> <path fill="#4D5068" d="M424,175.6l14.8,9.7l6.601,3.1c4.3,2,7.6,5.6,9.3,10l11.899,27.1c-12.899,2.5-13.399,14.1-22.6,12l-13-31.3 l-6.9-15.6L424,175.6L424,175.6z"></path> <g opacity="0.4"> <path fill="#54576E" d="M438.3,192.6c2.4,2,5.101,3.7,7.5,5.7c8.5,7.3,12.601,18.1,15.7,29c1.5-0.8,3.2-1.4,5.3-1.8L454.9,198.4 c-1.7-4.4-5.101-8-9.301-10l-6.6-3.1l-12.2-8C429.2,183.2,433.2,188.5,438.3,192.6z"></path> </g> <g opacity="0.4"> <path fill="#3E3F51" d="M382.5,241.4c1.7-2.1,3.1-4.8,2.6-7.5c-0.3-1.7-1.399-3.3-2.1-4.9c-2.7-6.1-0.6-13.7-3.4-19.5l-0.899,15.1 c-0.7,11.9-12.601,34.1-18.8,44.2c-10.101,16.5-1.801,37.4-1.801,37.4c0.4-0.101,0.801-0.2,1.2-0.4c1.5-12.899,4-25.7,9.9-37.2 c1.399-2.8,3.1-5.5,4.1-8.399c1.4-4.101,1.7-8.7,3.9-12.5C378.6,245.4,380.7,243.5,382.5,241.4z"></path> </g> <path fill="#4D5068" d="M403.7,175.6l-14.9,6.4l-8.3,2.2c-5.1,1.3-9.4,4.9-11.6,9.8L355.1,221.5c8.9,0,18.101,11.9,19.5,9.6 l17-29.8L403.7,175.6z"></path> <path fill="#FACDBE" d="M356.8,222.5l32.3-51.9v-8.7c0-1.1,0.4-2.1,1.2-2.9l3.601-3.6l4.3-1.9c1.3-0.6,2.7,0.2,2.899,1.6l0.4,2.5 c0.1,0.9,0,1.8-0.3,2.7l-1.2,3.3c-0.2,0.4-0.5,0.8-0.9,1.1l0,0c-1.3,0.8-2,2.2-1.899,3.7l0.3,2.4l5.7,1.1l-7.101,5.5L373,231 c-2.1,4.7-7.6,6.8-12.3,4.6l0,0C355.7,233.4,353.9,227.2,356.8,222.5z"></path> <g opacity="0.4"> <path fill="#A48877" d="M403.4,171.9l-2.4-0.5c-1.4,1.8-3.2,3.2-4.9,4.8c-6.5,6-9.899,14.5-13.1,22.8c-2,5.2-4.1,10.5-6.1,15.7 c-2,5.2-4.101,10.5-7.9,14.6c-2.3,2.4-5.1,4.4-8.1,5.8c-0.2,0.1-0.5,0.2-0.7,0.3c0.2,0.1,0.399,0.2,0.6,0.3 c4.7,2.2,10.3,0.1,12.3-4.6l23.301-53.6L403.4,171.9z"></path> </g> </g> <g id="XMLID_29_"> <g> <path fill="#8B9CD0" d="M306,349.7L306,349.7c-0.1,0.1-0.2,0.1-0.2,0.1l-0.1-0.1C305.8,349.7,305.9,349.7,306,349.7L306,349.7z"></path> <path fill="#1D4354" d="M306,339.7c0,0-7-3.101-10.3-3.5c0.2,0,0.5,0,0.7,0c3.199-0.101,6.6-0.2,9.699,0.8 c0.301,0.1,0.5,0.2,0.7,0.4c0.101,0.199,0.2,0.399,0.2,0.6c0.4,2.2-0.2,4.4,0.2,6.6c0.3,1.101-0.101,1.801-0.3,2.801 c-0.1,0.8-0.301,1.6-0.9,2.199l0,0c-0.1,0-0.199,0-0.3,0l0,0c-0.2-0.3-0.399-0.699-0.399-1.1c0-0.2,0-0.4,0.1-0.6 c0.199-0.9,0.699-1.7,0.8-2.601c0.101-1.1-0.101-2.399-0.399-3.5c-0.101-0.6-0.4-1.3-0.701-1.8C305.6,339.8,306,339.7,306,339.7z"></path> <path fill="#1D4354" d="M295.7,336.3c-0.5,0-1,0.101-1.5,0.2C294.5,336.2,295,336.2,295.7,336.3z"></path> <path fill="#1D4354" d="M302,339.7c0.6-0.4,1.4-0.7,2.1-0.5c0.4,0.1,0.7,0.399,0.9,0.7c-2.8,0.699-10.8,2.899-10.8,5 c0,0.899-0.2,0.3-0.4-1c0.101-0.2,0.3-0.4,0.3-0.7c0.101-0.7-0.199-1.4-0.3-2c-0.1-0.5,0-1.101,0.4-1.5 c0.3-0.4,0.899-0.601,1.399-0.5c0.5,0.2,0.801,0.6,1.2,1c0.9,0.8,2.2,1.1,3.3,0.7C300.8,340.6,301.4,340.1,302,339.7z"></path> <path fill="#053F5E" d="M294.2,344.9c0-2.101,8-4.301,10.8-5c0.4,0.5,0.6,1.199,0.7,1.8c0.2,1.1,0.5,2.399,0.399,3.5 c-0.1,0.899-0.6,1.7-0.8,2.6c-0.1,0.2-0.1,0.4-0.1,0.601c0,0.399,0.2,0.8,0.399,1.1l0,0c-1.899,0-3.899,0-5.8,0.1 c-1.7,0-3.399,0-5.1-0.3c-0.601-0.1-1.3-0.3-1.9-0.5c0-1.2-0.899-2.2-0.399-3.3c0.3-0.6,0.899-1,1.3-1.6 C294,345.2,294.2,345.8,294.2,344.9z"></path> <path fill="#1D4354" d="M295.7,336.3c3.3,0.3,10.3,3.5,10.3,3.5s-0.4,0.101-1,0.2c-0.2-0.3-0.5-0.6-0.9-0.7 c-0.699-0.2-1.5,0.101-2.1,0.5c-0.6,0.4-1.2,0.9-1.9,1.2c-1.1,0.4-2.5,0.2-3.3-0.7c-0.399-0.399-0.7-0.8-1.2-1s-1.1,0-1.399,0.5 c-0.3,0.4-0.4,1-0.4,1.5c0.101,0.7,0.4,1.4,0.3,2c0,0.3-0.199,0.5-0.3,0.7c-0.399-2.3-0.7-6.7,0.4-7.5l0,0 C294.7,336.3,295.2,336.3,295.7,336.3z"></path> <path fill="#053F5E" d="M291.5,348.2c0.4,0.3,0.9,0.5,1.3,0.7v0.1c0,0.3-0.1,0.7-0.5,0.8C291.3,350.2,291.5,348.8,291.5,348.2z"></path> <path fill="#1D4354" d="M294.2,336.5c-1.101,0.8-0.7,5.2-0.4,7.5c-0.399,0.6-1,1-1.3,1.6c-0.6,1.101,0.4,2.101,0.4,3.301 c-0.5-0.2-0.9-0.4-1.301-0.7l0,0c0-1.3-0.199-2.601-0.3-3.8c-0.2-1.301-0.399-2.7-0.2-4c0.2-1.301,0.801-2.7,2-3.4 C293.4,336.7,293.8,336.6,294.2,336.5z"></path> <path fill="#053F5E" d="M303,333.7c1.4,0.5,2.2,0.2,3,1.8c0.4,0.9,0.9,1.7,1.3,2.6c0.2,0.4,0.4,0.801,0.5,1.301 c0.101,0.6,0.101,1.199,0,1.8c-0.2,2.399,0,4.7-0.3,7c-0.1,0.399-0.1,0.899-0.5,1.2c-0.3,0.199-0.7,0.199-1.1,0.3 c0.6-0.5,0.8-1.4,0.899-2.2c0.2-1,0.5-1.7,0.3-2.8c-0.399-2.2,0.101-4.4-0.199-6.601c0-0.199-0.101-0.399-0.2-0.6 c-0.2-0.2-0.4-0.3-0.7-0.4c-3.1-1.1-6.4-0.899-9.7-0.8c-0.2,0-0.5,0-0.7,0c-0.699-0.1-1.199,0-1.5,0.2l0,0 c-0.4,0.1-0.8,0.2-1.199,0.5c-1.101,0.7-1.801,2.1-2,3.4c-0.201,1.3,0,2.699,0.199,4c0.1,1.3,0.301,2.6,0.301,3.8l0,0 c-0.5-0.3-0.9-0.601-1.301-1l0.5,0.1c-1-0.899-0.9-2.2-1-3.399c-0.3-2.2-1.4-5.101,0.5-6.801c0.1-0.1,0.301-0.3,0.4-0.399 c0.1-0.2,0.199-0.4,0.199-0.7c0.4-1.4,1.701-2.4,3.101-2.5c0.601,0,1.2,0.1,1.8,0c0.4-0.1,0.7-0.3,1-0.4 c0.801-0.399,1.6-0.699,2.5-0.699C300.6,332.5,301.7,333.3,303,333.7z"></path> </g> </g> <path fill="#8B9CD0" d="M305.5,350.1"></path> <path fill="#F9C5B6" d="M305.4,351.3c0,0,0.899-1.399,0.399-9.6l-12,4.6l-0.8-1c0,0-1.1-0.2-0.8,7.101L305.4,351.3z"></path> <path fill="#FFFFFF" d="M297.2,356.3h4C301.1,356.3,299,360.1,297.2,356.3z"></path> <path fill="#053F5E" d="M317.4,382.8l-4.601,3l-3.3,7.9l-26.4,2.399L282,383.7l-2.3,0.8l-3.2-15l12.6-7.3l6.2,17.399l2.601-9.1 l5.399,3.5l3.4-11.7C306.6,362.3,324.6,373.5,317.4,382.8z"></path> <path fill="#053F5E" d="M291.5,348.2c0,0-0.8-0.3-1.8-4.2s1.1-6.7,1.1-6.7l1.3-2.8l5.7-1.1l1-1.101l5.2,1.601l1.9,1.5l1.899,4.8 c0,0-13.6,2.2-13.899,5.6c-0.301,3.4-1.101-1.7-1.5-4.399C292.1,338.8,291.5,348.2,291.5,348.2z"></path> <path fill="#053F5E" d="M313.2,365.9l4.1,2.3c0,0,1.101,0.7,1.3,0.8c0.2,0.2,2.801,2.2,2.7,4.9c-0.1,2.699-13.5,0.8-13.5,0.8 l1.9-8.3L313.2,365.9z"></path> </svg> 