<?xml version="1.0" standalone="no"?>
<!DOCTYPE svg PUBLIC "-//W3C//DTD SVG 20010904//EN"
 "http://www.w3.org/TR/2001/REC-SVG-20010904/DTD/svg10.dtd">
<svg version="1.0" xmlns="http://www.w3.org/2000/svg"
 width="480.000000pt" height="596.000000pt" viewBox="0 0 480.000000 596.000000"
 preserveAspectRatio="xMidYMid meet">
<metadata>
Created by potrace 1.15, written by Peter Selinger 2001-2017
</metadata>
<g transform="translate(0.000000,596.000000) scale(0.100000,-0.100000)"
fill="#000000" stroke="none">
<path d="M10 5948 c0 -7 9 -55 21 -105 l21 -93 259 0 259 0 0 40 0 40 1830 0
1830 0 0 -40 0 -40 251 2 252 3 23 95 c13 52 23 98 24 103 0 4 -1073 7 -2385
7 -1901 0 -2385 -3 -2385 -12z"/>
<path d="M60 5703 c0 -5 9 -50 21 -101 l22 -92 231 2 231 3 3 28 3 27 785 0
784 0 0 -940 0 -940 -35 0 -35 0 0 350 0 350 -30 0 -30 0 0 535 0 535 -949 0
-949 0 14 -62 c8 -35 19 -80 25 -100 l10 -38 204 0 205 0 0 35 0 35 650 0 650
0 0 -820 0 -820 -35 0 -35 0 0 350 0 350 -30 0 -30 0 0 415 0 415 -786 0 -786
0 5 -22 c4 -12 14 -57 23 -100 l17 -78 178 0 179 0 0 40 0 40 510 0 510 0 0
-1365 0 -1365 795 0 795 0 0 1365 0 1365 519 0 519 0 7 -40 7 -40 166 2 167 3
22 95 c12 52 22 98 23 103 0 4 -353 7 -785 7 l-785 0 0 -425 0 -425 -35 0 -35
0 0 -345 0 -345 -25 0 -25 0 0 820 0 820 655 0 655 0 0 -35 0 -35 195 0 194 0
11 43 c6 23 16 60 21 82 6 22 12 48 15 58 5 16 -44 17 -940 17 l-946 0 0 -540
0 -540 -40 0 -40 0 0 -345 0 -345 -30 0 -30 0 0 940 0 940 795 0 795 0 0 -35
0 -35 222 2 222 3 23 90 c12 50 23 96 23 103 0 9 -230 12 -1115 12 l-1115 0 0
-665 0 -665 -35 0 -35 0 0 -345 0 -345 -30 0 -30 0 0 345 0 345 -35 0 -35 0 0
665 0 665 -1115 0 c-613 0 -1115 -3 -1115 -7z"/>
<path d="M3260 4056 l0 -326 40 -25 40 -25 0 -690 0 -690 -950 0 -950 0 0 693
0 692 35 19 35 19 0 324 c0 177 -3 323 -6 323 -4 0 -58 -30 -120 -66 l-114
-66 0 -1049 0 -1049 1120 0 1120 0 0 1049 0 1049 -117 68 c-65 37 -121 69
-125 71 -5 2 -8 -142 -8 -321z"/>
<path d="M1078 4125 l-128 -75 0 -1080 0 -1080 1440 0 1440 0 0 1079 0 1079
-117 73 c-65 41 -121 76 -125 77 -4 2 -8 -146 -8 -330 l1 -333 44 -27 45 -27
0 -711 0 -710 -1275 0 -1275 0 0 720 0 720 40 20 c23 12 43 26 46 33 2 7 3
155 2 330 l-3 317 -127 -75z"/>
<path d="M748 3937 l-118 -72 0 -1107 0 -1108 1760 0 1760 0 0 1104 0 1104
-115 71 c-63 39 -120 71 -125 71 -6 0 -10 -115 -10 -325 l0 -325 45 -22 45
-22 0 -743 0 -743 -1595 0 -1595 0 0 744 0 744 45 26 45 27 0 324 c0 254 -3
325 -12 324 -7 0 -66 -33 -130 -72z"/>
<path d="M438 3754 l-128 -76 0 -1134 0 -1134 2080 0 2080 0 0 1133 0 1132
-117 70 c-64 39 -120 72 -125 73 -4 2 -8 -145 -8 -327 l0 -330 40 -22 40 -23
0 -763 0 -763 -1905 0 -1905 0 0 768 0 767 40 23 40 23 0 329 c0 182 -1 330
-2 330 -2 0 -60 -34 -130 -76z"/>
<path d="M118 3567 l-118 -72 0 -1157 0 -1158 2390 0 2390 0 0 1158 0 1157
-112 65 c-62 36 -116 67 -120 68 -4 2 -8 -144 -8 -325 l0 -328 40 -23 40 -23
0 -794 0 -795 -2225 0 -2225 0 0 798 0 797 40 25 40 25 0 327 c0 181 -3 328
-7 328 -5 0 -61 -33 -125 -73z"/>
<path d="M283 827 l-43 -21 0 -328 0 -328 260 0 260 0 0 325 0 325 -40 20
c-21 11 -44 20 -50 20 -7 0 -10 -104 -10 -315 l0 -315 -165 0 -165 0 -2 319
-3 318 -42 -20z"/>
<path d="M3780 846 c0 -1 5 -17 11 -35 l11 -31 499 0 499 0 0 35 0 35 -510 0
c-280 0 -510 -2 -510 -4z"/>
<path d="M1918 676 l-3 -164 -193 150 -193 150 -54 -28 c-30 -16 -54 -32 -52
-36 3 -8 583 -458 591 -458 3 0 6 116 6 258 l0 258 -35 17 c-66 31 -64 34 -67
-147z"/>
<path d="M2733 787 l-103 -52 0 -367 0 -368 450 0 450 0 0 45 0 45 -400 0
-400 0 0 285 0 285 80 40 80 40 325 0 325 0 0 50 0 50 -352 -1 -353 0 -102
-52z"/>
<path d="M158 764 l-48 -24 0 -335 0 -335 390 0 390 0 0 335 0 335 -40 20
c-21 11 -44 20 -50 20 -7 0 -10 -107 -10 -325 l0 -325 -290 0 -290 0 -2 329
-3 329 -47 -24z"/>
<path d="M2050 510 c0 -154 -2 -280 -5 -280 -3 0 -148 112 -323 248 -174 136
-323 251 -329 256 -10 6 -13 -70 -13 -363 l0 -371 50 0 50 0 2 246 3 246 317
-246 c174 -135 324 -246 333 -246 13 0 15 43 15 369 l0 369 -44 26 c-25 14
-47 26 -50 26 -3 0 -6 -126 -6 -280z"/>
<path d="M3820 738 c0 -7 3 -23 6 -35 6 -23 7 -23 225 -23 l219 0 0 -340 0
-340 30 0 30 0 0 340 0 340 214 0 214 0 11 31 c6 18 11 34 11 35 0 2 -216 4
-480 4 -377 0 -480 -3 -480 -12z"/>
<path d="M2180 366 l0 -366 50 0 50 0 0 338 0 337 -50 28 -50 28 0 -365z"/>
<path d="M33 703 l-33 -17 0 -343 0 -343 505 0 505 0 0 338 0 338 -45 22 c-25
12 -48 22 -50 22 -3 0 -5 -153 -5 -340 l0 -340 -410 0 -410 0 0 340 c0 370 3
353 -57 323z"/>
<path d="M1298 694 l-48 -24 0 -335 0 -335 50 0 50 0 0 360 c0 198 -1 360 -2
360 -2 -1 -24 -12 -50 -26z"/>
<path d="M2553 697 l-43 -21 0 -338 0 -338 50 0 50 0 0 360 c0 198 -3 360 -7
359 -5 0 -27 -10 -50 -22z"/>
<path d="M2823 684 l-63 -35 0 -110 0 -109 385 0 385 0 0 50 0 51 -335 -7
-335 -7 0 31 c0 27 6 35 40 52 37 19 58 20 335 20 l295 0 0 50 0 50 -322 0
-323 0 -62 -36z"/>
<path d="M3850 651 c0 -5 4 -21 10 -35 10 -26 10 -26 135 -26 l125 0 0 -295 0
-295 60 0 60 0 0 330 0 330 -195 0 c-114 0 -195 -4 -195 -9z"/>
<path d="M4360 330 l0 -330 60 0 60 0 0 295 0 295 124 0 124 0 11 31 c6 18 11
34 11 35 0 2 -88 4 -195 4 l-195 0 0 -330z"/>
<path d="M1500 221 l0 -221 50 0 50 0 0 110 0 110 142 -110 142 -110 93 0 c51
0 93 2 93 5 0 5 -547 429 -561 433 -5 2 -9 -84 -9 -217z"/>
<path d="M2760 255 l0 -145 385 0 385 0 0 50 0 50 -335 0 -335 0 0 45 0 45
335 0 335 0 0 50 0 50 -385 0 -385 0 0 -145z"/>
</g>
</svg>
