<?xml version="1.0" encoding="iso-8859-1"?>
<!-- Generator: Adobe Illustrator 20.1.0, SVG Export Plug-In . SVG Version: 6.00 Build 0)  -->
<svg version="1.1" id="Layer_1" xmlns="http://www.w3.org/2000/svg" xmlns:xlink="http://www.w3.org/1999/xlink" x="0px" y="0px"
	 width="489.273px" height="298.137px" viewBox="250.059 367.582 489.273 298.137"
	 style="enable-background:new 250.059 367.582 489.273 298.137;" xml:space="preserve">
<path style="fill:#3F4749;" d="M292.339,367.582h370.52c12.173,0,22.133,9.959,22.133,22.133V617.96H270.207V389.716
	C270.207,377.542,280.166,367.582,292.339,367.582z"/>
<path style="fill:#FFFFFF;" d="M285.236,602.931h384.729V389.716c0-3.876-3.227-7.103-7.103-7.103h-370.52
	c-3.876,0-7.103,3.227-7.103,7.103v213.216h-0.003V602.931z"/>
<path style="fill:#ECF0F1;" d="M293.198,413.029h368.805v85.374H293.198V413.029z"/>
<path style="fill:#B6B6B8;" d="M250.062,617.961h455.076v12.782c0,7.029-5.753,12.782-12.782,12.782H262.841
	c-7.029,0-12.782-5.753-12.782-12.782v-12.782H250.062z"/>
<path style="fill:#3F4749;" d="M432.179,622.632h90.84l-9.731,6.463h-71.38l-9.731-6.463H432.179z"/>
<path style="fill:#0081E1;" d="M669.966,406.385H285.236v-16.669c0-3.876,3.227-7.103,7.103-7.103h370.52
	c3.876,0,7.103,3.227,7.103,7.103v16.669H669.966z"/>
<path style="fill:#FFFFFF;" d="M449.421,389.416H646.5c1.453,0,2.636,1.186,2.636,2.636v4.891c0,1.453-1.186,2.636-2.636,2.636
	H449.421c-1.453,0-2.636-1.186-2.636-2.636v-4.891C446.785,390.602,447.97,389.416,449.421,389.416z"/>
<g>
	<path style="fill:#ECF0F1;" d="M301.604,389.235c3.292,0,5.962,2.668,5.962,5.962c0,3.295-2.67,5.962-5.962,5.962
		c-3.295,0-5.967-2.668-5.967-5.962C295.637,391.903,298.307,389.235,301.604,389.235z"/>
	<path style="fill:#ECF0F1;" d="M325.14,389.235c3.295,0,5.962,2.668,5.962,5.962c0,3.295-2.668,5.962-5.962,5.962
		c-3.292,0-5.962-2.668-5.962-5.962C319.178,391.903,321.849,389.235,325.14,389.235z"/>
	<path style="fill:#ECF0F1;" d="M348.682,389.235c3.292,0,5.962,2.668,5.962,5.962c0,3.295-2.67,5.962-5.962,5.962
		c-3.298,0-5.967-2.668-5.967-5.962C342.715,391.903,345.384,389.235,348.682,389.235z"/>
</g>
<path style="fill:#3F4749;" d="M334.129,519c9.503,0,17.204,7.701,17.204,17.204c0,9.5-7.701,17.204-17.204,17.204
	c-9.5,0-17.201-7.704-17.201-17.204C316.928,526.701,324.629,519,334.129,519z"/>
<path style="fill:#0081E1;" d="M423.009,519c9.5,0,17.201,7.701,17.201,17.204c0,9.5-7.701,17.204-17.201,17.204
	s-17.201-7.704-17.201-17.204C405.808,526.701,413.509,519,423.009,519z"/>
<g>
	<path style="fill:#DCE3DB;" d="M309.447,560.784h49.37v2.678h-49.37V560.784z M309.447,577.614h33.16v2.678h-33.16V577.614z
		 M309.447,569.2h49.37v2.676h-49.37V569.2z"/>
	<path style="fill:#DCE3DB;" d="M398.328,560.784h49.367v2.678h-49.367V560.784z M398.328,577.614h33.163v2.678h-33.163V577.614z
		 M398.328,569.2h49.367v2.676h-49.367V569.2z"/>
</g>
<path style="fill:#FFBD66;" d="M517.354,519c9.5,0,17.201,7.701,17.201,17.204c0,9.5-7.701,17.204-17.201,17.204
	s-17.201-7.704-17.201-17.204C500.152,526.701,507.853,519,517.354,519z"/>
<path style="fill:#DCE3DB;" d="M492.672,560.784h49.367v2.678h-49.367L492.672,560.784L492.672,560.784z M492.672,577.614h33.163
	v2.678h-33.163V577.614z M492.672,569.2h49.367v2.676h-49.367L492.672,569.2L492.672,569.2z"/>
<g>
	<path style="fill:#3F4749;" d="M570.932,460.764h136.094c4.316,0,7.814,3.498,7.814,7.814v179.945c0,4.316-3.498,7.814-7.814,7.814
		H570.932c-4.316,0-7.814-3.498-7.814-7.814V468.578C563.117,464.262,566.616,460.764,570.932,460.764z"/>
	<path style="fill:#FFFFFF;" d="M572.618,474.605h132.724c0.501,0,0.907,0.406,0.907,0.907V637.12c0,0.501-0.406,0.907-0.907,0.907
		H572.618c-0.501,0-0.907-0.406-0.907-0.907V475.513C571.71,475.012,572.117,474.605,572.618,474.605z"/>
	<circle style="fill:#B6B6B8;" cx="638.982" cy="646.854" r="5.096"/>
	<path style="fill:#ECF0F1;" d="M578.792,494.847H699.17v70.95H578.792V494.847z"/>
	<path style="fill:#3F4749;" d="M602.766,576.018c5.896,0,10.678,4.782,10.678,10.678s-4.779,10.678-10.678,10.678
		c-5.896,0-10.678-4.782-10.678-10.678S596.868,576.018,602.766,576.018z"/>
	<path style="fill:#DCE3DB;" d="M587.445,601.954h30.642v2.167h-30.642V601.954z M587.445,615.571h20.583v2.167h-20.583V615.571z
		 M587.445,608.761h30.642v2.167h-30.642V608.761z"/>
	<path style="fill:#0081E1;" d="M644.444,576.018c5.896,0,10.678,4.782,10.678,10.678s-4.782,10.678-10.678,10.678
		c-5.896,0-10.678-4.782-10.678-10.678S638.547,576.018,644.444,576.018z"/>
	<path style="fill:#DCE3DB;" d="M629.123,601.954h30.642v2.167h-30.642V601.954z M629.123,615.571h20.583v2.167h-20.583V615.571z
		 M629.123,608.761h30.642v2.167h-30.642V608.761z"/>
	<path style="fill:#0081E1;" d="M706.25,490.149H571.707v-14.636c0-0.501,0.406-0.907,0.907-0.907h132.724
		c0.501,0,0.907,0.406,0.907,0.907v14.636H706.25z"/>
	<g>
		<path style="fill:#ECF0F1;" d="M581.681,479.027c1.936,0,3.502,1.566,3.502,3.499s-1.566,3.499-3.502,3.499
			c-1.933,0-3.499-1.566-3.499-3.499S579.75,479.027,581.681,479.027z"/>
		<path style="fill:#ECF0F1;" d="M591.532,479.027c1.933,0,3.499,1.566,3.499,3.499s-1.566,3.499-3.499,3.499
			s-3.499-1.566-3.499-3.499S589.599,479.027,591.532,479.027z"/>
		<path style="fill:#ECF0F1;" d="M601.384,479.027c1.933,0,3.499,1.566,3.499,3.499s-1.566,3.499-3.499,3.499
			s-3.499-1.566-3.499-3.499S599.454,479.027,601.384,479.027z"/>
	</g>
	<path style="fill:#FFFFFF;" d="M621.023,479.81h80.009c0.59,0,1.07,0.635,1.07,1.411v2.618c0,0.776-0.48,1.411-1.07,1.411h-80.009
		c-0.59,0-1.07-0.635-1.07-1.411v-2.618C619.953,480.444,620.433,479.81,621.023,479.81z"/>
	<path style="fill:#FFFFFF;" d="M684.358,543.666c1.107,0,2.001,0.894,2.001,2.001c0,1.104-0.894,2.001-2.001,2.001
		c-1.104,0-2.001-0.897-2.001-2.001C682.357,544.561,683.254,543.666,684.358,543.666z"/>
	<g>
		<path style="fill:#ECF0F1;" d="M689.99,543.666c1.107,0,2.001,0.894,2.001,2.001c0,1.104-0.894,2.001-2.001,2.001
			c-1.107,0-2.001-0.897-2.001-2.001C687.989,544.561,688.885,543.666,689.99,543.666z"/>
		<path style="fill:#ECF0F1;" d="M695.621,543.666c1.107,0,2.001,0.894,2.001,2.001c0,1.104-0.894,2.001-2.001,2.001
			c-1.104,0-2.001-0.897-2.001-2.001C693.619,544.561,694.517,543.666,695.621,543.666z"/>
	</g>
	<path style="fill:#B6B6B8;" d="M621.965,466.324h34.033c0.484,0,0.876,0.392,0.876,0.876v0.003c0,0.484-0.392,0.876-0.876,0.876
		h-34.033c-0.484,0-0.876-0.392-0.876-0.876V467.2C621.089,466.716,621.481,466.324,621.965,466.324z"/>
</g>
<g>
	<path style="fill:#3F4749;" d="M672.314,540.145h63.051c2.191,0,3.966,1.776,3.966,3.966v117.642c0,2.191-1.776,3.966-3.966,3.966
		h-63.051c-2.191,0-3.966-1.776-3.966-3.966V544.111C668.348,541.92,670.123,540.145,672.314,540.145z"/>
	<path style="fill:#FFFFFF;" d="M675.267,551.899h57.145c0.216,0,0.391,0.175,0.391,0.391v101.282c0,0.216-0.175,0.391-0.391,0.391
		h-57.145c-0.216,0-0.391-0.175-0.391-0.391V552.289C674.876,552.073,675.052,551.899,675.267,551.899z"/>
	<g>
		<circle style="fill:#B6B6B8;" cx="703.844" cy="659.309" r="3.586"/>
		<path style="fill:#B6B6B8;" d="M694.247,546.616h19.184c0.484,0,0.876,0.392,0.876,0.876v0.003c0,0.484-0.392,0.876-0.876,0.876
			h-19.184c-0.484,0-0.876-0.392-0.876-0.876v-0.003C693.371,547.008,693.763,546.616,694.247,546.616z"/>
	</g>
	<path style="fill:#0081E1;" d="M732.803,558.69h-57.927v-6.4c0-0.218,0.176-0.391,0.391-0.391h57.145
		c0.216,0,0.391,0.173,0.391,0.391L732.803,558.69L732.803,558.69z"/>
	<path style="fill:#FFFFFF;" d="M698.365,553.307h32.208c0.432,0,0.781,0.35,0.781,0.781v2.093c0,0.432-0.35,0.781-0.781,0.781
		h-32.208c-0.432,0-0.781-0.35-0.781-0.781v-2.093C697.584,553.657,697.934,553.307,698.365,553.307z"/>
	<path style="fill:#ECF0F1;" d="M677.686,560.882h52.308v30.831h-52.308V560.882z"/>
	<path style="fill:#FFBD66;" d="M705.376,598.034c5.362,0,9.708,4.346,9.708,9.71c0,5.362-4.346,9.71-9.708,9.71
		c-5.361,0-9.708-4.346-9.708-9.71C695.669,602.383,700.015,598.034,705.376,598.034z"/>
	<path style="fill:#DCE3DB;" d="M688.526,624.525h33.7v2.381h-33.7V624.525z M688.526,639.501h22.64v2.381h-22.64V639.501z
		 M688.526,632.013h33.7v2.381h-33.7V632.013z"/>
</g>
</svg>
